<?xml version="1.0" encoding="UTF-8"?><svg xmlns="http://www.w3.org/2000/svg" width="200.06mm" height="95.25mm" viewBox="0 0 567.11 270"><defs><style>.cls-1,.cls-2,.cls-3,.cls-4,.cls-5,.cls-6,.cls-7,.cls-8,.cls-9,.cls-10{stroke-miterlimit:10;}.cls-1,.cls-2,.cls-3,.cls-4,.cls-5,.cls-6,.cls-7,.cls-8,.cls-9,.cls-10,.cls-11{stroke:#231f20;stroke-width:.5px;}.cls-1,.cls-11,.cls-12{fill:#fff;}.cls-2{fill:#ee2257;}.cls-3{fill:#ee2759;}.cls-4{fill:#ee2558;}.cls-5{fill:#a3a5b3;}.cls-6{fill:#70727e;}.cls-7{fill:#1c1e23;}.cls-8{fill:#a2a5b2;}.cls-9{fill:#cacdd4;}.cls-10{fill:#dee1e2;}.cls-13{fill:#231f20;}.cls-13,.cls-12{stroke-width:0px;}</style></defs><g id="Layer_2"><path class="cls-2" d="m448.8,108.99c.3.45,12.36-2.53,11.61,9.53s.6,143.38.6,143.38h-44.82s-.22-142.5,0-142.89-.68-10.42,12.74-10.05,19.86.03,19.86.03Z"/><path class="cls-7" d="m370.8,164.79c.3.28,12.36-1.61,11.61,6.05s.6,91.07.6,91.07h-44.82s-.22-90.5,0-90.75-.68-6.62,12.74-6.38,19.86.02,19.86.02Z"/><path class="cls-6" d="m293.8,179.48c.3.24,12.36-1.36,11.61,5.14s.6,77.29.6,77.29h-44.82s-.22-76.81,0-77.02-.68-5.62,12.74-5.42,19.86.01,19.86.01Z"/><path class="cls-5" d="m217.06,203.14c.3.17,12.36-.97,11.61,3.66s.6,55.1.6,55.1h-44.82s-.22-54.76,0-54.91-.68-4,12.74-3.86c13.42.14,19.86,0,19.86,0Z"/><path class="cls-9" d="m140.34,214.65c.3.14,12.36-.78,11.61,2.94s.6,44.31.6,44.31h-44.82s-.22-44.04,0-44.16-.68-3.22,12.74-3.11c13.42.11,19.86,0,19.86,0Z"/><path class="cls-10" d="m63.31,224.76c.3.11,12.36-.61,11.61,2.31s.6,34.83.6,34.83H30.71s-.22-34.62,0-34.71-.68-2.53,12.74-2.44c13.42.09,19.86,0,19.86,0Z"/><circle class="cls-4" cx="438.55" cy="69.13" r="23.2"/><circle class="cls-7" cx="362.39" cy="91.63" r="23.2"/><circle class="cls-6" cx="283.56" cy="128.82" r="23.2"/><circle class="cls-8" cx="206.81" cy="162.99" r="23.2"/><circle class="cls-9" cx="129.34" cy="175.23" r="23.2"/><circle class="cls-10" cx="53.07" cy="184.34" r="23.2"/><path class="cls-3" d="m468.5,61.53l31-19.83s-.59,6.31-.33,6.01,52.67-.23,52.67-.23l-.81,24.85-52.25,1.67-.33,6.01-29.95-18.48Z"/><path class="cls-12" d="m489.79,51.09v6.12h-.97v-6.12h.97Z"/><path class="cls-12" d="m495.31,54.85v2.36h-.94v-2.3c0-.77-.41-1.19-1.1-1.19-.41,0-.85.23-1.18.64v2.85h-.94v-4.23h.94v.38c.37-.32.83-.49,1.37-.49,1.1,0,1.85.76,1.85,1.98Z"/><path class="cls-12" d="m500.71,50.82v6.39h-.93v-.34c-.36.29-.82.45-1.36.45-1.19,0-2.14-.99-2.14-2.23s.95-2.21,2.14-2.21c.54,0,1,.16,1.36.44v-2.49h.93Zm-.93,5.03v-1.52c-.32-.45-.76-.61-1.22-.61-.77,0-1.34.62-1.34,1.37s.57,1.39,1.34,1.39c.47,0,.91-.16,1.22-.62Z"/><path class="cls-12" d="m503.71,56.55c.55,0,.93-.18.93-.51,0-.25-.21-.43-.57-.5l-.94-.16c-.65-.11-1.25-.43-1.25-1.2,0-.82.71-1.32,1.76-1.32.82,0,1.76.28,1.85,1.39h-.86c-.04-.46-.45-.64-.99-.64s-.84.2-.84.5c0,.23.16.44.66.52l.79.13c.64.12,1.27.4,1.27,1.22,0,.89-.78,1.35-1.85,1.35-1,0-1.85-.4-1.96-1.51h.86c.1.53.49.75,1.12.75Z"/><path class="cls-12" d="m510.74,52.98v4.23h-.93v-.33c-.36.28-.82.44-1.36.44-1.19,0-2.14-.99-2.14-2.22s.95-2.22,2.14-2.22c.54,0,1,.16,1.36.44v-.33h.93Zm-.93,2.88v-1.53c-.32-.45-.76-.61-1.22-.61-.77,0-1.34.62-1.34,1.38s.57,1.38,1.34,1.38c.47,0,.91-.16,1.22-.61Z"/><path class="cls-12" d="m515.05,57.15c-.37.14-.67.17-.96.17-1.08,0-1.66-.65-1.66-1.74v-1.82h-1v-.78h1v-1.56h.94v1.56h1.57v.78h-1.57v1.82c0,.61.31.87.83.87.25,0,.5-.07.72-.16l.13.86Z"/><path class="cls-12" d="m517.66,56.55c.55,0,.93-.18.93-.51,0-.25-.21-.43-.57-.5l-.94-.16c-.65-.11-1.25-.43-1.25-1.2,0-.82.71-1.32,1.76-1.32.82,0,1.76.28,1.85,1.39h-.86c-.04-.46-.45-.64-.99-.64s-.84.2-.84.5c0,.23.16.44.66.52l.79.13c.64.12,1.27.4,1.27,1.22,0,.89-.78,1.35-1.85,1.35-1,0-1.85-.4-1.96-1.51h.86c.1.53.49.75,1.12.75Z"/><path class="cls-12" d="m524.54,55.37h-3.32c.09.64.5,1.12,1.29,1.12.41,0,.73-.13.9-.4h1.03c-.27.77-1.02,1.22-1.94,1.22-1.33,0-2.23-.96-2.23-2.22s.89-2.22,2.18-2.22c1.4,0,2.28,1.07,2.1,2.5Zm-3.3-.65h2.38c-.05-.69-.5-1.06-1.16-1.06-.7,0-1.11.47-1.22,1.06Z"/><path class="cls-12" d="m529.7,54.85v2.36h-.94v-2.3c0-.77-.41-1.19-1.1-1.19-.41,0-.85.23-1.18.64v2.85h-.94v-4.23h.94v.38c.37-.32.83-.49,1.37-.49,1.1,0,1.85.76,1.85,1.98Z"/><path class="cls-12" d="m490.43,67.35c.55,0,.93-.18.93-.51,0-.25-.21-.43-.57-.5l-.94-.16c-.65-.11-1.25-.43-1.25-1.2,0-.82.71-1.32,1.76-1.32.82,0,1.76.28,1.85,1.39h-.86c-.04-.46-.45-.64-.99-.64s-.84.2-.84.5c0,.23.16.44.66.52l.79.13c.64.12,1.27.4,1.27,1.22,0,.89-.78,1.35-1.85,1.35-1,0-1.85-.4-1.96-1.51h.86c.1.53.49.75,1.12.75Z"/><path class="cls-12" d="m496.35,67.95c-.37.14-.67.17-.96.17-1.08,0-1.66-.65-1.66-1.74v-1.82h-1v-.78h1v-1.56h.94v1.56h1.57v.78h-1.57v1.82c0,.61.31.87.83.87.25,0,.5-.07.72-.16l.13.86Z"/><path class="cls-12" d="m501.28,63.78v4.23h-.93v-.33c-.36.28-.82.44-1.36.44-1.19,0-2.14-.99-2.14-2.22s.95-2.22,2.14-2.22c.54,0,1,.16,1.36.44v-.33h.93Zm-.93,2.88v-1.53c-.32-.45-.76-.61-1.22-.61-.77,0-1.34.62-1.34,1.38s.57,1.38,1.34,1.38c.47,0,.91-.16,1.22-.61Z"/><path class="cls-12" d="m505.08,63.69v.88c-.68.03-1.19.28-1.57.77v2.67h-.94v-4.23h.94v.58c.39-.42.92-.67,1.57-.67Z"/><path class="cls-12" d="m509.06,67.95c-.37.14-.67.17-.96.17-1.08,0-1.66-.65-1.66-1.74v-1.82h-1v-.78h1v-1.56h.94v1.56h1.57v.78h-1.57v1.82c0,.61.31.87.83.87.25,0,.5-.07.72-.16l.13.86Z"/><path class="cls-12" d="m513.84,66.17h-3.32c.09.64.5,1.12,1.29,1.12.41,0,.73-.13.9-.4h1.03c-.27.77-1.02,1.22-1.94,1.22-1.33,0-2.23-.96-2.23-2.22s.89-2.22,2.18-2.22c1.4,0,2.28,1.07,2.1,2.5Zm-3.3-.65h2.38c-.05-.69-.5-1.06-1.16-1.06-.7,0-1.11.47-1.22,1.06Z"/><path class="cls-12" d="m517.36,63.69v.88c-.68.03-1.19.28-1.57.77v2.67h-.94v-4.23h.94v.58c.39-.42.92-.67,1.57-.67Z"/><path class="cls-12" d="m524.69,65.65v2.36h-.94v-2.3c0-.77-.41-1.19-1.1-1.19-.41,0-.85.23-1.18.64v2.85h-.94v-6.39h.94v2.54c.37-.32.83-.49,1.37-.49,1.1,0,1.85.76,1.85,1.98Z"/><path class="cls-12" d="m529.94,66.17h-3.32c.09.64.5,1.12,1.29,1.12.41,0,.73-.13.9-.4h1.03c-.27.77-1.02,1.22-1.94,1.22-1.33,0-2.23-.96-2.23-2.22s.89-2.22,2.18-2.22c1.4,0,2.28,1.07,2.1,2.5Zm-3.3-.65h2.38c-.05-.69-.5-1.06-1.16-1.06-.7,0-1.11.47-1.22,1.06Z"/><path class="cls-12" d="m533.45,63.69v.88c-.68.03-1.19.28-1.57.77v2.67h-.94v-4.23h.94v.58c.39-.42.92-.67,1.57-.67Z"/><path class="cls-12" d="m534.35,67.5c0-.32.27-.57.58-.57.33,0,.59.24.59.57s-.26.58-.59.58c-.32,0-.58-.25-.58-.58Zm1.01-1.32h-.84l-.07-4.29h.98l-.07,4.29Z"/><path class="cls-13" d="m417.79,97.91v1.76h3.06v.89h-3.06v1.68h3.42v.9h-4.39v-6.12h4.39v.89h-3.42Z"/><path class="cls-13" d="m429.3,100.71v2.42h-.93v-2.42c0-.75-.4-1.07-1-1.07-.41,0-.81.15-1.12.58.03.14.04.29.04.44v2.48h-.93v-2.48c0-.75-.4-1.02-.95-1.02-.44,0-.84.18-1.14.6v2.89h-.94v-4.23h.94v.36c.32-.29.69-.47,1.25-.47.6,0,1.09.21,1.4.61.41-.41.89-.61,1.51-.61,1.11,0,1.86.67,1.86,1.92Z"/><path class="cls-13" d="m434.92,101.01c0,1.24-.96,2.23-2.15,2.23-.54,0-1-.16-1.35-.44v.33h-.94v-6.39h.94v2.48c.35-.27.81-.43,1.35-.43,1.19,0,2.15.99,2.15,2.21Zm-.94,0c0-.75-.57-1.37-1.35-1.37-.47,0-.9.15-1.22.59v1.56c.32.44.75.6,1.22.6.78,0,1.35-.63,1.35-1.39Z"/><path class="cls-13" d="m440.22,98.9v4.23h-.93v-.33c-.36.28-.82.44-1.36.44-1.19,0-2.14-.99-2.14-2.22s.95-2.22,2.14-2.22c.54,0,1,.16,1.36.44v-.33h.93Zm-.93,2.88v-1.53c-.32-.45-.76-.61-1.22-.61-.77,0-1.34.62-1.34,1.38s.57,1.38,1.34,1.38c.47,0,.91-.16,1.22-.61Z"/><path class="cls-13" d="m442.45,96.74v6.39h-.94v-6.39h.94Z"/><path class="cls-13" d="m444.69,96.74v6.39h-.94v-6.39h.94Z"/><path class="cls-13" d="m450.17,98.9v4.23h-.93v-.33c-.36.28-.82.44-1.36.44-1.19,0-2.14-.99-2.14-2.22s.95-2.22,2.14-2.22c.54,0,1,.16,1.36.44v-.33h.93Zm-.93,2.88v-1.53c-.32-.45-.76-.61-1.22-.61-.77,0-1.34.62-1.34,1.38s.57,1.38,1.34,1.38c.47,0,.91-.16,1.22-.61Z"/><path class="cls-13" d="m455.69,98.9v4.35c0,1.29-.87,2.06-2.14,2.06-1.19,0-2.06-.7-2.18-1.71h.96c.08.51.53.86,1.22.86s1.22-.44,1.22-1.22v-.67c-.36.28-.84.44-1.38.44-1.19,0-2.12-.95-2.12-2.09,0-1.26.94-2.14,2.12-2.14.54,0,1.02.16,1.38.44v-.33h.93Zm-.93,2.67v-1.31c-.32-.47-.77-.66-1.24-.66-.78,0-1.32.56-1.32,1.34,0,.65.54,1.28,1.32,1.28.47,0,.93-.18,1.24-.65Z"/><path class="cls-13" d="m460.97,101.3h-3.32c.09.64.5,1.12,1.29,1.12.41,0,.73-.13.9-.4h1.03c-.27.77-1.02,1.22-1.94,1.22-1.33,0-2.23-.96-2.23-2.22s.89-2.22,2.18-2.22c1.4,0,2.28,1.07,2.1,2.5Zm-3.3-.65h2.38c-.05-.69-.5-1.06-1.16-1.06-.7,0-1.11.47-1.22,1.06Z"/><path class="cls-13" d="m330.85,121.81v1.92h2.96v.89h-2.96v2.42h-.97v-6.12h4.33v.89h-3.36Z"/><path class="cls-13" d="m339.01,124.92c0,1.3-.94,2.22-2.25,2.22s-2.25-.93-2.25-2.22.94-2.22,2.25-2.22,2.25.93,2.25,2.22Zm-.94,0c0-.8-.55-1.38-1.31-1.38s-1.31.58-1.31,1.38.55,1.38,1.31,1.38,1.31-.58,1.31-1.38Z"/><path class="cls-13" d="m342.51,122.71v.88c-.68.03-1.19.28-1.57.77v2.67h-.94v-4.23h.94v.58c.39-.42.92-.67,1.57-.67Z"/><path class="cls-13" d="m347.85,124.91c0,1.24-.96,2.23-2.15,2.23-.54,0-1-.16-1.35-.44v.33h-.94v-6.39h.94v2.48c.35-.27.81-.43,1.35-.43,1.19,0,2.15.99,2.15,2.21Zm-.94,0c0-.75-.57-1.37-1.35-1.37-.47,0-.9.15-1.21.59v1.56c.31.44.75.6,1.21.6.78,0,1.35-.63,1.35-1.39Z"/><path class="cls-13" d="m351.34,122.71v.88c-.68.03-1.19.28-1.57.77v2.67h-.94v-4.23h.94v.58c.39-.42.92-.67,1.57-.67Z"/><path class="cls-13" d="m356.28,122.8v4.23h-.93v-.41c-.37.33-.83.52-1.38.52-1.1,0-1.84-.78-1.84-2v-2.34h.93v2.29c0,.77.42,1.21,1.1,1.21.41,0,.85-.23,1.19-.67v-2.83h.93Z"/><path class="cls-13" d="m361.79,122.8v4.35c0,1.29-.87,2.06-2.14,2.06-1.19,0-2.06-.7-2.18-1.71h.96c.08.51.53.86,1.22.86s1.22-.44,1.22-1.22v-.67c-.36.28-.84.44-1.38.44-1.19,0-2.12-.95-2.12-2.09,0-1.26.94-2.14,2.12-2.14.54,0,1.02.16,1.38.44v-.33h.93Zm-.93,2.67v-1.31c-.32-.47-.77-.66-1.24-.66-.78,0-1.32.56-1.32,1.34,0,.65.54,1.28,1.32,1.28.47,0,.93-.18,1.24-.65Z"/><path class="cls-13" d="m367.08,125.2h-3.32c.09.64.5,1.12,1.29,1.12.41,0,.73-.13.9-.4h1.03c-.27.77-1.02,1.22-1.94,1.22-1.33,0-2.23-.96-2.23-2.22s.89-2.22,2.18-2.22c1.4,0,2.28,1.07,2.1,2.5Zm-3.3-.65h2.38c-.05-.69-.5-1.06-1.16-1.06-.7,0-1.11.47-1.22,1.06Z"/><path class="cls-13" d="m370.59,122.71v.88c-.68.03-1.19.28-1.57.77v2.67h-.94v-4.23h.94v.58c.39-.42.92-.67,1.57-.67Z"/><path class="cls-13" d="m374.09,125.08v-.86h3.06v.86h-3.06Z"/><path class="cls-13" d="m385.44,124.92c0,1.3-.94,2.22-2.25,2.22s-2.25-.93-2.25-2.22.94-2.22,2.25-2.22,2.25.93,2.25,2.22Zm-.94,0c0-.8-.55-1.38-1.31-1.38s-1.31.58-1.31,1.38.55,1.38,1.31,1.38,1.31-.58,1.31-1.38Z"/><path class="cls-13" d="m390.67,122.8v4.35c0,1.29-.87,2.06-2.14,2.06-1.19,0-2.06-.7-2.18-1.71h.96c.08.51.53.86,1.22.86s1.22-.44,1.22-1.22v-.67c-.36.28-.84.44-1.38.44-1.19,0-2.12-.95-2.12-2.09,0-1.26.94-2.14,2.12-2.14.54,0,1.02.16,1.38.44v-.33h.93Zm-.93,2.67v-1.31c-.32-.47-.77-.66-1.24-.66-.78,0-1.32.56-1.32,1.34,0,.65.54,1.28,1.32,1.28.47,0,.93-.18,1.24-.65Z"/><path class="cls-13" d="m333.95,135.48v2.36h-.94v-2.3c0-.77-.41-1.19-1.1-1.19-.41,0-.85.23-1.18.64v2.85h-.94v-6.39h.94v2.54c.37-.32.83-.49,1.37-.49,1.1,0,1.85.76,1.85,1.98Z"/><path class="cls-13" d="m339.16,133.6v4.23h-.93v-.41c-.37.33-.83.52-1.38.52-1.1,0-1.84-.78-1.84-2v-2.34h.93v2.29c0,.77.42,1.21,1.1,1.21.41,0,.85-.23,1.19-.67v-2.83h.93Z"/><path class="cls-13" d="m342.15,137.18c.55,0,.93-.18.93-.51,0-.25-.21-.43-.57-.5l-.94-.16c-.65-.11-1.25-.43-1.25-1.2,0-.82.71-1.32,1.76-1.32.82,0,1.76.28,1.85,1.39h-.86c-.04-.46-.45-.64-.99-.64s-.84.2-.84.5c0,.23.16.44.66.52l.79.13c.64.12,1.27.4,1.27,1.22,0,.89-.78,1.35-1.85,1.35-1,0-1.85-.4-1.96-1.51h.86c.1.53.49.75,1.12.75Z"/><path class="cls-13" d="m349.23,135.48v2.36h-.94v-2.3c0-.77-.41-1.19-1.1-1.19-.41,0-.85.23-1.18.64v2.85h-.94v-6.39h.94v2.54c.37-.32.83-.49,1.37-.49,1.1,0,1.85.76,1.85,1.98Z"/><path class="cls-13" d="m354.7,135.72c0,1.3-.94,2.22-2.25,2.22s-2.25-.93-2.25-2.22.94-2.22,2.25-2.22,2.25.93,2.25,2.22Zm-.94,0c0-.8-.55-1.38-1.31-1.38s-1.31.58-1.31,1.38.55,1.38,1.31,1.38,1.31-.58,1.31-1.38Z"/><path class="cls-13" d="m356.68,131.44v6.39h-.94v-6.39h.94Z"/><path class="cls-13" d="m362.16,131.44v6.39h-.93v-.34c-.36.29-.82.45-1.36.45-1.19,0-2.14-.99-2.14-2.23s.95-2.21,2.14-2.21c.54,0,1,.16,1.36.44v-2.49h.93Zm-.93,5.03v-1.52c-.32-.45-.76-.61-1.22-.61-.77,0-1.34.62-1.34,1.37s.57,1.39,1.34,1.39c.47,0,.91-.16,1.22-.62Z"/><path class="cls-13" d="m367.61,135.48v2.36h-.94v-2.3c0-.77-.41-1.19-1.1-1.19-.41,0-.85.23-1.18.64v2.85h-.94v-4.23h.94v.38c.37-.32.83-.49,1.37-.49,1.1,0,1.85.76,1.85,1.98Z"/><path class="cls-13" d="m368.78,132.05c0-.33.26-.58.59-.58s.59.24.59.58-.27.58-.59.58-.59-.24-.59-.58Zm1.06,1.56v4.23h-.93v-4.23h.93Z"/><path class="cls-13" d="m375.42,135.48v2.36h-.94v-2.3c0-.77-.41-1.19-1.1-1.19-.41,0-.85.23-1.18.64v2.85h-.94v-4.23h.94v.38c.37-.32.83-.49,1.37-.49,1.1,0,1.85.76,1.85,1.98Z"/><path class="cls-13" d="m380.72,133.6v4.35c0,1.29-.87,2.06-2.14,2.06-1.19,0-2.06-.7-2.18-1.71h.96c.08.51.53.86,1.22.86s1.22-.44,1.22-1.22v-.67c-.36.28-.84.44-1.38.44-1.19,0-2.12-.95-2.12-2.09,0-1.26.94-2.14,2.12-2.14.54,0,1.02.16,1.38.44v-.33h.93Zm-.93,2.67v-1.31c-.32-.47-.77-.66-1.24-.66-.78,0-1.32.56-1.32,1.34,0,.65.54,1.28,1.32,1.28.47,0,.93-.18,1.24-.65Z"/><path class="cls-13" d="m383.66,137.18c.55,0,.93-.18.93-.51,0-.25-.21-.43-.57-.5l-.94-.16c-.65-.11-1.25-.43-1.25-1.2,0-.82.71-1.32,1.76-1.32.82,0,1.76.28,1.85,1.39h-.86c-.04-.46-.45-.64-.99-.64s-.84.2-.84.5c0,.23.16.44.66.52l.79.13c.64.12,1.27.4,1.27,1.22,0,.89-.78,1.35-1.85,1.35-1,0-1.85-.4-1.96-1.51h.86c.1.53.49.75,1.12.75Z"/><path class="cls-13" d="m389.29,135.88v-.86h3.06v.86h-3.06Z"/><path class="cls-13" d="m334.02,144.4v4.23h-.93v-.33c-.36.28-.82.44-1.36.44-1.19,0-2.14-.99-2.14-2.22s.95-2.22,2.14-2.22c.54,0,1,.16,1.36.44v-.33h.93Zm-.93,2.88v-1.53c-.32-.45-.76-.61-1.22-.61-.77,0-1.34.62-1.34,1.38s.57,1.38,1.34,1.38c.47,0,.91-.16,1.22-.61Z"/><path class="cls-13" d="m337.82,144.31v.88c-.68.03-1.19.28-1.57.77v2.67h-.94v-4.23h.94v.58c.39-.42.92-.67,1.57-.67Z"/><path class="cls-13" d="m341.8,148.57c-.37.14-.67.17-.96.17-1.08,0-1.66-.65-1.66-1.74v-1.82h-1v-.78h1v-1.56h.94v1.56h1.57v.78h-1.57v1.82c0,.61.31.87.83.87.25,0,.5-.07.72-.16l.13.86Z"/><path class="cls-13" d="m342.76,142.85c0-.33.26-.58.59-.58s.59.24.59.58-.27.58-.59.58-.59-.24-.59-.58Zm1.06,1.56v4.23h-.93v-4.23h.93Z"/><path class="cls-13" d="m346.99,146.83l-.8.81v1h-.94v-6.39h.94v4.16l1.99-2h1.19l-1.74,1.76,2.01,2.47h-1.21l-1.43-1.81Z"/><path class="cls-13" d="m351.31,142.24v6.39h-.94v-6.39h.94Z"/><path class="cls-13" d="m356.64,146.8h-3.32c.09.64.5,1.12,1.29,1.12.41,0,.73-.13.9-.4h1.03c-.27.77-1.02,1.22-1.94,1.22-1.33,0-2.23-.96-2.23-2.22s.89-2.22,2.18-2.22c1.4,0,2.28,1.07,2.1,2.5Zm-3.3-.65h2.38c-.05-.69-.5-1.06-1.16-1.06-.7,0-1.11.47-1.22,1.06Z"/><path class="cls-13" d="m360.16,144.31v.88c-.68.03-1.19.28-1.57.77v2.67h-.94v-4.23h.94v.58c.39-.42.92-.67,1.57-.67Z"/><path class="cls-13" d="m360.74,148.6c-.24-.09-.36-.26-.36-.48,0-.31.26-.56.58-.56s.58.24.58.56c0,.14,0,.2-.19.54l-.49.97h-.57l.44-1.04Z"/><path class="cls-13" d="m371.85,146.21v2.42h-.93v-2.42c0-.75-.4-1.07-1-1.07-.41,0-.81.15-1.12.58.03.14.04.29.04.44v2.48h-.93v-2.48c0-.75-.4-1.02-.95-1.02-.44,0-.84.18-1.14.6v2.89h-.94v-4.23h.94v.36c.32-.29.69-.47,1.25-.47.6,0,1.09.21,1.4.61.41-.41.89-.61,1.51-.61,1.11,0,1.86.67,1.86,1.92Z"/><path class="cls-13" d="m377.33,146.52c0,1.3-.94,2.22-2.25,2.22-.46,0-.87-.12-1.21-.31l-.26.31-.5-.4.26-.32c-.34-.39-.54-.91-.54-1.5,0-1.3.94-2.22,2.25-2.22.43,0,.83.1,1.16.29l.32-.39.5.41-.31.37c.36.39.58.92.58,1.54Zm-3.36.77l1.69-2.03c-.17-.08-.37-.13-.59-.13-.76,0-1.31.58-1.31,1.38,0,.3.07.56.21.77Zm2.42-.77c0-.31-.09-.6-.24-.83l-1.71,2.05c.19.1.41.15.64.15.77,0,1.31-.58,1.31-1.38Z"/><path class="cls-13" d="m382.81,146.51c0,1.24-.96,2.23-2.15,2.23-.54,0-1-.16-1.35-.44v.33h-.94v-6.39h.94v2.48c.35-.27.81-.43,1.35-.43,1.19,0,2.15.99,2.15,2.21Zm-.94,0c0-.75-.57-1.37-1.35-1.37-.47,0-.9.15-1.21.59v1.56c.31.44.75.6,1.21.6.78,0,1.35-.63,1.35-1.39Z"/><path class="cls-13" d="m384.78,142.24v6.39h-.94v-6.39h.94Z"/><path class="cls-13" d="m390.11,146.8h-3.32c.09.64.5,1.12,1.29,1.12.41,0,.73-.13.9-.4h1.03c-.27.77-1.02,1.22-1.94,1.22-1.33,0-2.23-.96-2.23-2.22s.89-2.22,2.18-2.22c1.4,0,2.28,1.07,2.1,2.5Zm-3.3-.65h2.38c-.05-.69-.5-1.06-1.16-1.06-.7,0-1.11.47-1.22,1.06Z"/><path class="cls-13" d="m393.63,144.31v.88c-.68.03-1.19.28-1.57.77v2.67h-.94v-4.23h.94v.58c.39-.42.92-.67,1.57-.67Z"/><path class="cls-13" d="m394.21,148.6c-.24-.09-.36-.26-.36-.48,0-.31.26-.56.58-.56s.58.24.58.56c0,.14,0,.2-.19.54l-.49.97h-.57l.44-1.04Z"/><path class="cls-13" d="m331.5,158.78c.55,0,.93-.18.93-.51,0-.25-.21-.43-.57-.5l-.94-.16c-.65-.11-1.25-.43-1.25-1.2,0-.82.71-1.32,1.76-1.32.82,0,1.76.28,1.85,1.39h-.86c-.04-.46-.45-.64-.99-.64s-.84.2-.84.5c0,.23.16.44.66.52l.79.13c.64.12,1.27.4,1.27,1.22,0,.89-.78,1.35-1.85,1.35-1,0-1.85-.4-1.96-1.51h.86c.1.53.49.75,1.12.75Z"/><path class="cls-13" d="m338.74,157.32c0,1.23-.96,2.21-2.15,2.21-.54,0-1-.16-1.35-.43v2.42h-.94v-6.32h.94v.33c.35-.27.81-.43,1.35-.43,1.19,0,2.15.98,2.15,2.21Zm-.94,0c0-.76-.57-1.4-1.35-1.4-.47,0-.9.18-1.22.63v1.55c.32.45.75.63,1.22.63.78,0,1.35-.65,1.35-1.4Z"/><path class="cls-13" d="m344.12,157.32c0,1.3-.94,2.22-2.25,2.22s-2.25-.93-2.25-2.22.94-2.22,2.25-2.22,2.25.93,2.25,2.22Zm-.94,0c0-.8-.55-1.38-1.31-1.38s-1.31.58-1.31,1.38.55,1.38,1.31,1.38,1.31-.58,1.31-1.38Z"/><path class="cls-13" d="m347.62,155.11v.88c-.68.03-1.19.28-1.57.77v2.66h-.94v-4.23h.94v.58c.39-.42.92-.67,1.57-.67Z"/><path class="cls-13" d="m351.6,159.37c-.37.13-.67.17-.96.17-1.08,0-1.66-.65-1.66-1.74v-1.82h-1v-.78h1v-1.56h.94v1.56h1.57v.78h-1.57v1.82c0,.61.31.87.83.87.25,0,.5-.07.72-.16l.13.86Z"/><path class="cls-13" d="m352.67,159.4c-.24-.09-.36-.26-.36-.48,0-.31.26-.56.58-.56s.58.24.58.56c0,.14,0,.2-.19.54l-.49.97h-.57l.44-1.04Z"/><path class="cls-13" d="m358.52,158.78c.55,0,.93-.18.93-.51,0-.25-.21-.43-.57-.5l-.94-.16c-.65-.11-1.25-.43-1.25-1.2,0-.82.71-1.32,1.76-1.32.82,0,1.76.28,1.85,1.39h-.86c-.04-.46-.45-.64-.99-.64s-.84.2-.84.5c0,.23.16.44.66.52l.79.13c.64.12,1.27.4,1.27,1.22,0,.89-.78,1.35-1.85,1.35-1,0-1.85-.4-1.96-1.51h.86c.1.53.49.75,1.12.75Z"/><path class="cls-13" d="m361.41,153.65c0-.33.26-.58.59-.58s.59.24.59.58-.27.58-.59.58-.59-.24-.59-.58Zm1.06,1.56v4.23h-.93v-4.23h.93Z"/><path class="cls-13" d="m365.63,157.63l-.8.81v1h-.94v-6.39h.94v4.16l1.99-2h1.19l-1.74,1.76,2.01,2.47h-1.21l-1.43-1.81Z"/><path class="cls-13" d="m370.76,157.63l-.8.81v1h-.94v-6.39h.94v4.16l1.99-2h1.19l-1.74,1.76,2.01,2.47h-1.21l-1.43-1.81Z"/><path class="cls-13" d="m377.9,157.6h-3.32c.09.64.5,1.12,1.29,1.12.41,0,.73-.13.9-.4h1.03c-.27.77-1.02,1.22-1.94,1.22-1.33,0-2.23-.96-2.23-2.22s.89-2.22,2.18-2.22c1.4,0,2.28,1.07,2.1,2.5Zm-3.3-.65h2.38c-.05-.69-.5-1.06-1.16-1.06-.7,0-1.11.47-1.22,1.06Z"/><path class="cls-13" d="m381.42,155.11v.88c-.68.03-1.19.28-1.57.77v2.66h-.94v-4.23h.94v.58c.39-.42.92-.67,1.57-.67Z"/><path class="cls-13" d="m386.47,157.08v2.36h-.94v-2.3c0-.77-.41-1.19-1.1-1.19-.41,0-.85.23-1.18.64v2.85h-.94v-6.39h.94v2.54c.37-.32.83-.49,1.37-.49,1.1,0,1.85.76,1.85,1.98Z"/><path class="cls-13" d="m391.72,157.6h-3.32c.09.64.5,1.12,1.29,1.12.41,0,.73-.13.9-.4h1.03c-.27.77-1.02,1.22-1.94,1.22-1.33,0-2.23-.96-2.23-2.22s.89-2.22,2.18-2.22c1.4,0,2.28,1.07,2.1,2.5Zm-3.3-.65h2.38c-.05-.69-.5-1.06-1.16-1.06-.7,0-1.11.47-1.22,1.06Z"/><path class="cls-13" d="m397.04,153.04v6.39h-.93v-.34c-.36.29-.82.45-1.36.45-1.19,0-2.14-.99-2.14-2.23s.95-2.21,2.14-2.21c.54,0,1,.16,1.36.44v-2.49h.93Zm-.93,5.03v-1.52c-.32-.45-.76-.61-1.22-.61-.77,0-1.34.62-1.34,1.37s.57,1.39,1.34,1.39c.47,0,.91-.16,1.22-.62Z"/><path class="cls-13" d="m262.85,162.79c0,1-.86,1.67-2.22,1.67h-2.75v-6.12h2.66c1.27,0,2.03.6,2.03,1.58,0,.64-.35,1.18-.94,1.38.84.16,1.23.77,1.23,1.49Zm-4.01-3.59v1.8h1.53c.82,0,1.27-.39,1.27-.95,0-.53-.44-.85-1.22-.85h-1.58Zm3.05,3.48c0-.55-.49-.87-1.27-.87h-1.78v1.81h1.75c.85,0,1.3-.41,1.3-.94Z"/><path class="cls-13" d="m268.29,160.22l-2.79,6.33h-.98l.89-2.03-2.16-4.3h1l1.59,3.31,1.46-3.31h.99Z"/><path class="cls-13" d="m273.22,160.23v4.35c0,1.29-.87,2.06-2.14,2.06-1.19,0-2.06-.7-2.18-1.71h.96c.08.51.53.86,1.22.86s1.22-.44,1.22-1.22v-.67c-.36.28-.84.44-1.38.44-1.19,0-2.12-.95-2.12-2.09,0-1.26.94-2.14,2.12-2.14.54,0,1.02.16,1.38.44v-.33h.93Zm-.93,2.67v-1.31c-.32-.47-.77-.66-1.24-.66-.78,0-1.32.56-1.32,1.34,0,.65.54,1.28,1.32,1.28.47,0,.93-.18,1.24-.65Z"/><path class="cls-13" d="m278.66,162.11v2.36h-.94v-2.3c0-.77-.41-1.19-1.1-1.19-.41,0-.85.23-1.18.64v2.85h-.94v-4.23h.94v.38c.37-.32.83-.49,1.37-.49,1.1,0,1.85.76,1.85,1.98Z"/><path class="cls-13" d="m279.84,158.68c0-.33.26-.58.59-.58s.59.24.59.58-.27.58-.59.58-.59-.24-.59-.58Zm1.06,1.56v4.23h-.93v-4.23h.93Z"/><path class="cls-13" d="m286.47,162.11v2.36h-.94v-2.3c0-.77-.41-1.19-1.1-1.19-.41,0-.85.23-1.18.64v2.85h-.94v-4.23h.94v.38c.37-.32.83-.49,1.37-.49,1.1,0,1.85.76,1.85,1.98Z"/><path class="cls-13" d="m291.77,160.23v4.35c0,1.29-.87,2.06-2.14,2.06-1.19,0-2.06-.7-2.18-1.71h.96c.08.51.53.86,1.22.86s1.22-.44,1.22-1.22v-.67c-.36.28-.84.44-1.38.44-1.19,0-2.12-.95-2.12-2.09,0-1.26.94-2.14,2.12-2.14.54,0,1.02.16,1.38.44v-.33h.93Zm-.93,2.67v-1.31c-.32-.47-.77-.66-1.24-.66-.78,0-1.32.56-1.32,1.34,0,.65.54,1.28,1.32,1.28.47,0,.93-.18,1.24-.65Z"/><path class="cls-13" d="m299.75,162.35c0,1.3-.94,2.22-2.25,2.22s-2.25-.93-2.25-2.22.94-2.22,2.25-2.22,2.25.93,2.25,2.22Zm-.94,0c0-.8-.55-1.38-1.31-1.38s-1.31.58-1.31,1.38.55,1.38,1.31,1.38,1.31-.58,1.31-1.38Z"/><path class="cls-13" d="m304.98,160.23v4.35c0,1.29-.87,2.06-2.14,2.06-1.19,0-2.06-.7-2.18-1.71h.96c.08.51.53.86,1.22.86s1.22-.44,1.22-1.22v-.67c-.36.28-.84.44-1.38.44-1.19,0-2.12-.95-2.12-2.09,0-1.26.94-2.14,2.12-2.14.54,0,1.02.16,1.38.44v-.33h.93Zm-.93,2.67v-1.31c-.32-.47-.77-.66-1.24-.66-.78,0-1.32.56-1.32,1.34,0,.65.54,1.28,1.32,1.28.47,0,.93-.18,1.24-.65Z"/><path class="cls-13" d="m259.53,173.45l-.8.81v1h-.94v-6.39h.94v4.16l1.99-2h1.19l-1.74,1.76,2.01,2.47h-1.21l-1.43-1.81Z"/><path class="cls-13" d="m266.89,173.15c0,1.3-.94,2.22-2.25,2.22s-2.25-.93-2.25-2.22.94-2.22,2.25-2.22,2.25.93,2.25,2.22Zm-.94,0c0-.8-.55-1.38-1.31-1.38s-1.31.58-1.31,1.38.55,1.38,1.31,1.38,1.31-.58,1.31-1.38Z"/><path class="cls-13" d="m272.04,172.91v2.36h-.94v-2.3c0-.77-.41-1.19-1.1-1.19-.41,0-.85.23-1.18.64v2.85h-.94v-4.23h.94v.38c.37-.32.83-.49,1.37-.49,1.1,0,1.85.76,1.85,1.98Z"/><path class="cls-13" d="m274.89,174.61c.55,0,.93-.18.93-.51,0-.25-.21-.43-.57-.5l-.94-.16c-.65-.11-1.25-.43-1.25-1.2,0-.82.71-1.32,1.76-1.32.82,0,1.76.28,1.85,1.39h-.86c-.04-.46-.45-.64-.99-.64s-.84.2-.84.5c0,.23.16.44.66.52l.79.13c.64.12,1.27.4,1.27,1.22,0,.89-.78,1.35-1.85,1.35-1,0-1.85-.4-1.96-1.51h.86c.1.53.49.75,1.12.75Z"/><path class="cls-13" d="m280.8,175.2c-.37.13-.67.17-.96.17-1.08,0-1.66-.65-1.66-1.74v-1.82h-1v-.78h1v-1.56h.94v1.56h1.57v.78h-1.57v1.82c0,.61.31.87.83.87.25,0,.5-.07.72-.16l.13.86Z"/><path class="cls-13" d="m284.24,170.94v.88c-.68.03-1.19.28-1.57.77v2.66h-.94v-4.23h.94v.58c.39-.42.92-.67,1.57-.67Z"/><path class="cls-13" d="m289.17,171.03v4.23h-.93v-.41c-.37.33-.83.52-1.38.52-1.1,0-1.84-.78-1.84-2v-2.34h.93v2.29c0,.77.42,1.21,1.1,1.21.41,0,.85-.23,1.19-.67v-2.83h.93Z"/><path class="cls-13" d="m292.21,173.45l-.8.81v1h-.94v-6.39h.94v4.16l1.99-2h1.19l-1.74,1.76,2.01,2.47h-1.21l-1.43-1.81Z"/><path class="cls-13" d="m298.54,175.2c-.37.13-.67.17-.96.17-1.08,0-1.66-.65-1.66-1.74v-1.82h-1v-.78h1v-1.56h.94v1.56h1.57v.78h-1.57v1.82c0,.61.31.87.83.87.25,0,.5-.07.72-.16l.13.86Z"/><path class="cls-13" d="m299.5,169.48c0-.33.26-.58.59-.58s.59.24.59.58-.27.58-.59.58-.59-.24-.59-.58Zm1.06,1.56v4.23h-.93v-4.23h.93Z"/><path class="cls-13" d="m306.23,173.15c0,1.3-.94,2.22-2.25,2.22s-2.25-.93-2.25-2.22.94-2.22,2.25-2.22,2.25.93,2.25,2.22Zm-.94,0c0-.8-.55-1.38-1.31-1.38s-1.31.58-1.31,1.38.55,1.38,1.31,1.38,1.31-.58,1.31-1.38Z"/><path class="cls-13" d="m311.38,172.91v2.36h-.94v-2.3c0-.77-.41-1.19-1.1-1.19-.41,0-.85.23-1.18.64v2.85h-.94v-4.23h.94v.38c.37-.32.83-.49,1.37-.49,1.1,0,1.85.76,1.85,1.98Z"/><path class="cls-13" d="m189.87,196.91c0,1-.86,1.67-2.22,1.67h-2.75v-6.12h2.66c1.27,0,2.03.6,2.03,1.58,0,.64-.35,1.18-.94,1.38.84.16,1.23.77,1.23,1.49Zm-4.01-3.59v1.8h1.53c.82,0,1.27-.39,1.27-.95,0-.53-.44-.85-1.22-.85h-1.58Zm3.05,3.48c0-.55-.49-.87-1.27-.87h-1.78v1.81h1.75c.85,0,1.31-.41,1.31-.94Z"/><path class="cls-13" d="m190.98,192.79c0-.33.26-.58.59-.58s.59.24.59.58-.27.58-.59.58-.59-.24-.59-.58Zm1.06,1.56v4.23h-.93v-4.23h.93Z"/><path class="cls-13" d="m194.39,192.19v6.39h-.94v-6.39h.94Z"/><path class="cls-13" d="m195.69,192.79c0-.33.26-.58.59-.58s.59.24.59.58-.27.58-.59.58-.59-.24-.59-.58Zm1.06,1.56v4.23h-.93v-4.23h.93Z"/><path class="cls-13" d="m202.32,196.22v2.36h-.94v-2.3c0-.77-.41-1.19-1.1-1.19-.41,0-.85.23-1.18.64v2.85h-.94v-4.23h.94v.38c.37-.32.83-.49,1.37-.49,1.1,0,1.85.76,1.85,1.98Z"/><path class="cls-13" d="m207.72,192.19v6.39h-.93v-.34c-.36.29-.82.45-1.36.45-1.19,0-2.14-.99-2.14-2.23s.95-2.21,2.14-2.21c.54,0,1,.16,1.36.44v-2.49h.93Zm-.93,5.03v-1.52c-.32-.45-.76-.61-1.22-.61-.77,0-1.34.62-1.34,1.37s.57,1.39,1.34,1.39c.47,0,.91-.16,1.22-.62Z"/><path class="cls-13" d="m213.05,194.35v4.23h-.93v-.41c-.37.33-.83.52-1.38.52-1.1,0-1.84-.78-1.84-2v-2.34h.93v2.29c0,.77.42,1.21,1.1,1.21.41,0,.85-.23,1.19-.67v-2.83h.93Z"/><path class="cls-13" d="m216.05,197.92c.55,0,.93-.18.93-.51,0-.25-.21-.43-.57-.5l-.94-.16c-.65-.11-1.25-.43-1.25-1.2,0-.82.71-1.32,1.76-1.32.82,0,1.76.28,1.85,1.39h-.86c-.04-.46-.45-.64-.99-.64s-.84.2-.84.5c0,.23.16.44.66.52l.79.13c.64.12,1.27.4,1.27,1.22,0,.89-.78,1.35-1.85,1.35-1,0-1.85-.4-1.96-1.51h.86c.1.53.49.75,1.12.75Z"/><path class="cls-13" d="m221.96,198.52c-.37.13-.67.17-.96.17-1.08,0-1.66-.65-1.66-1.74v-1.82h-1v-.78h1v-1.56h.94v1.56h1.57v.78h-1.57v1.82c0,.61.31.87.83.87.25,0,.5-.07.72-.16l.13.86Z"/><path class="cls-13" d="m225.4,194.26v.88c-.68.03-1.19.28-1.57.77v2.66h-.94v-4.23h.94v.58c.39-.42.92-.67,1.57-.67Z"/><path class="cls-13" d="m226.3,192.79c0-.33.26-.58.59-.58s.59.24.59.58-.27.58-.59.58-.59-.24-.59-.58Zm1.06,1.56v4.23h-.93v-4.23h.93Z"/><path class="cls-13" d="m110.99,204.7v1.76h3.06v.89h-3.06v1.68h3.42v.9h-4.39v-6.12h4.39v.89h-3.42Z"/><path class="cls-13" d="m116.47,203.54v6.39h-.94v-6.39h.94Z"/><path class="cls-13" d="m121.79,208.09h-3.32c.09.64.5,1.12,1.29,1.12.41,0,.73-.13.9-.4h1.03c-.27.77-1.02,1.22-1.94,1.22-1.33,0-2.23-.96-2.23-2.22s.89-2.22,2.18-2.22c1.4,0,2.28,1.07,2.1,2.5Zm-3.3-.65h2.38c-.05-.69-.5-1.06-1.16-1.06-.7,0-1.11.47-1.22,1.06Z"/><path class="cls-13" d="m124.59,208.12l-.8.81v1h-.94v-6.39h.94v4.16l1.99-2h1.19l-1.74,1.76,2.01,2.47h-1.21l-1.43-1.81Z"/><path class="cls-13" d="m130.93,209.86c-.37.13-.67.17-.96.17-1.08,0-1.66-.65-1.66-1.74v-1.82h-1v-.78h1v-1.56h.94v1.56h1.57v.78h-1.57v1.82c0,.61.31.87.83.87.25,0,.5-.07.72-.16l.13.86Z"/><path class="cls-13" d="m134.37,205.61v.88c-.68.03-1.19.28-1.57.77v2.66h-.94v-4.23h.94v.58c.39-.42.92-.67,1.57-.67Z"/><path class="cls-13" d="m139.39,207.81c0,1.3-.94,2.22-2.25,2.22s-2.25-.93-2.25-2.22.94-2.22,2.25-2.22,2.25.93,2.25,2.22Zm-.94,0c0-.8-.55-1.38-1.31-1.38s-1.31.58-1.31,1.38.55,1.38,1.31,1.38,1.31-.58,1.31-1.38Z"/><path class="cls-13" d="m144.54,207.57v2.36h-.94v-2.3c0-.77-.41-1.19-1.1-1.19-.41,0-.85.23-1.18.64v2.85h-.94v-4.23h.94v.38c.37-.32.83-.49,1.37-.49,1.1,0,1.85.76,1.85,1.98Z"/><path class="cls-13" d="m145.72,204.14c0-.33.26-.58.59-.58s.59.24.59.58-.27.58-.59.58-.59-.24-.59-.58Zm1.06,1.56v4.23h-.93v-4.23h.93Z"/><path class="cls-13" d="m149.94,208.12l-.8.81v1h-.94v-6.39h.94v4.16l1.99-2h1.19l-1.74,1.76,2.01,2.47h-1.21l-1.43-1.81Z"/><path class="cls-13" d="m36.79,218.8v.9h-4.24v-6.12h.97v5.22h3.27Z"/><path class="cls-13" d="m41.9,215.47v4.23h-.93v-.33c-.36.28-.82.44-1.36.44-1.19,0-2.14-.99-2.14-2.22s.95-2.22,2.14-2.22c.54,0,1,.16,1.36.44v-.33h.93Zm-.93,2.88v-1.53c-.32-.45-.76-.61-1.22-.61-.77,0-1.34.62-1.34,1.38s.57,1.38,1.34,1.38c.47,0,.91-.16,1.22-.61Z"/><path class="cls-13" d="m47.35,217.34v2.36h-.94v-2.3c0-.77-.41-1.19-1.1-1.19-.41,0-.85.23-1.18.64v2.85h-.94v-4.23h.94v.38c.37-.32.83-.49,1.37-.49,1.1,0,1.85.76,1.85,1.98Z"/><path class="cls-13" d="m52.74,213.31v6.39h-.93v-.34c-.36.29-.82.45-1.36.45-1.19,0-2.14-.99-2.14-2.23s.95-2.21,2.14-2.21c.54,0,1,.16,1.36.44v-2.49h.93Zm-.93,5.03v-1.52c-.32-.45-.76-.61-1.22-.61-.77,0-1.34.62-1.34,1.37s.57,1.39,1.34,1.39c.47,0,.91-.16,1.22-.62Z"/><path class="cls-13" d="m58.48,217.58c0,1.24-.96,2.23-2.15,2.23-.54,0-1-.16-1.35-.44v.33h-.94v-6.39h.94v2.48c.35-.27.81-.43,1.35-.43,1.19,0,2.15.99,2.15,2.21Zm-.94,0c0-.75-.57-1.37-1.35-1.37-.47,0-.9.15-1.22.59v1.56c.32.44.75.6,1.22.6.78,0,1.35-.63,1.35-1.39Z"/><path class="cls-13" d="m61.97,215.38v.88c-.68.03-1.19.28-1.57.77v2.66h-.94v-4.23h.94v.58c.39-.42.92-.67,1.57-.67Z"/><path class="cls-13" d="m66.9,215.47v4.23h-.93v-.41c-.37.33-.83.52-1.38.52-1.1,0-1.84-.78-1.84-2v-2.34h.93v2.29c0,.77.42,1.21,1.1,1.21.41,0,.85-.23,1.19-.67v-2.83h.93Z"/><path class="cls-13" d="m72.42,215.47v4.35c0,1.29-.87,2.06-2.14,2.06-1.19,0-2.06-.7-2.18-1.71h.96c.08.51.53.86,1.22.86s1.22-.44,1.22-1.22v-.67c-.36.28-.84.44-1.38.44-1.19,0-2.12-.95-2.12-2.09,0-1.26.94-2.14,2.12-2.14.54,0,1.02.16,1.38.44v-.33h.93Zm-.93,2.67v-1.31c-.32-.47-.77-.66-1.24-.66-.78,0-1.32.56-1.32,1.34,0,.65.54,1.28,1.32,1.28.47,0,.93-.18,1.24-.65Z"/></g><g id="Layer_3"><path class="cls-1" d="m437.57,55.14l3.77-2.37s1.47-.07,0,1.19-2.78,2.16-2.78,2.16c0,0-.13,2.72,0,2.51,0,0,4.12,1.55,4.62,4.59,0,0-10.72.04-10.68,0s.54-3.47,4.39-4.61v-3l.68-.47Z"/><path class="cls-1" d="m444.91,64.43c.04.07,0,1.88,0,1.88,0,0-14.57.18-14.5,0s0-1.88,0-1.88h14.5Z"/><polygon class="cls-1" points="432.13 67.25 443.66 67.54 442.59 84.47 432.99 84.47 432.34 71.42 432.13 67.25"/><path class="cls-1" d="m356.55,83.93c-.09-.36,0-3.35,0-3.35h3.53v1.67l1.72-1.67,12.12,7.15s-15.02.42-20.63.43c-1.32,0-2.12-.02-2.08-.07.18-.27,5.34-4.16,5.34-4.16Z"/><polygon class="cls-1" points="353.29 88.16 353.29 100.86 361.32 100.86 361.32 95.54 363.76 95.66 363.98 100.86 371.15 100.86 371.15 88.16 353.29 88.16"/><path class="cls-1" d="m281.21,112.39l13.73,6.69,3.88.31,1.12,2.4s-16.64.1-16.64,0-.05,1.84,0,1.68,5.72,0,5.72,0c0,0,.46,14.59.51,14.34s-6.33.31-6.33,0,.1,8.37.1,8.37h-4.59v-24.51l-4.14-.05v2.65l-4.08-.05v-7.61l3.88.05.1,1.84s1.17.1,1.23-.05,5.51-6.08,5.51-6.08Z"/><polygon class="cls-6" points="282.24 114.69 282.24 119.74 292.55 119.43 282.24 114.69"/><path class="cls-6" d="m279.33,116.12v3.22s-3.11.2-3.01,0,3.01-3.22,3.01-3.22Z"/><path class="cls-6" d="m283.31,124.95v11.54h1.38s.05-4.44,0-4.59,3.27-.15,3.27-.15l-.15-6.79h-4.49Z"/><path class="cls-1" d="m294.95,123.37c.16,0,4.49,0,4.49,0,0,0,.46,2.96-1.12,3.93s-2.65,2.14-1.94,2.25,1.38-.1,1.43-.26,1.02,0,1.02,0c0,0-.3,2.09-1.6,2.14s-3.35-.38-2.28-2.61c0,0,1.58-1.37.51-2.08s-1.94-3.35-.51-3.37Z"/><path class="cls-1" d="m194.23,156.49c.19-.28,14.75,0,14.75,0l5.42,3.27,9.71,2.24,1.68,5.14h-2.61s-3.45-7.19-7.28,0h-16.25s-3.92-7.19-7.66,0c0,0-3.45.75-2.43-2.8s4.67-7.84,4.67-7.84Z"/><polygon class="cls-8" points="194.69 157.35 192.37 160.88 196.95 160.88 196.95 157.35 194.69 157.35"/><path class="cls-8" d="m198.59,157.35s-.1,3.67,0,3.52,4.54,0,4.54,0v-3.52h-4.54Z"/><polygon class="cls-8" points="204.87 157.35 204.87 160.88 213.36 160.88 208.83 157.35 204.87 157.35"/><circle class="cls-1" cx="195.69" cy="167.48" r="2.75"/><circle class="cls-1" cx="219.51" cy="167.48" r="2.75"/><circle class="cls-8" cx="195.69" cy="167.33" r=".97"/><circle class="cls-8" cx="219.51" cy="167.33" r=".97"/><path class="cls-1" d="m120.09,162.63s17.9.06,17.97,0,0,9.88,0,9.88h-6.17l.06,14.82h-11.85v-24.69Z"/><path class="cls-9" d="m121.69,164.29v19.08h10l.19-10.87s4.57.37,4.63,0,0-8.21,0-8.21h-14.82Z"/><ellipse class="cls-9" cx="129.16" cy="185.41" rx=".74" ry=".56"/><rect class="cls-1" x="53.07" y="171.6" width="10.84" height="2.73"/><path class="cls-1" d="m54.27,174.9c.19-.19,8.75,0,8.75,0l1.58,9.82s1.84,2.73,0,2.41-6.97-4.37-10.96,2.22c0,0-.83,1.58-.57,4.37h-4.75s-.95-7.16-7.03-4.5c0,0-2.03-.76,0-3.11l11.03-4.18,1.96-7.03Z"/><path class="cls-1" d="m43.18,176.99s.19,1.71.38,1.65.89,0,.89,0v1.9h-1.52s-.19,4.25,0,4.18,3.36-1.27,3.42-1.52,0-2.79,0-2.79h-.89l-.13-2.28s-.82-2.03-2.15-1.14Z"/><path class="cls-10" d="m55.48,176.76h2.6v7.5s-3.05.01-5.01,2.55c0,0-.13-3.11,0-3.3s1.84-1.84,1.9-2.03.51-4.72.51-4.72Z"/><path class="cls-10" d="m59.03,176.48h2.22l1.14,5.31v2.11s-3.55.32-3.36,0,0-7.41,0-7.41Z"/><circle class="cls-1" cx="59.75" cy="192.77" r="5.28"/><circle class="cls-10" cx="59.75" cy="192.39" r="2.64"/><circle class="cls-1" cx="43.11" cy="194.22" r="3.59"/><circle class="cls-10" cx="42.84" cy="194.22" r="1.7"/></g><g id="Layer_4"><path class="cls-1" d="m132.07,172.5h7.61v14.82s-7.73.28-7.73,0,.12-14.82.12-14.82Z"/><path class="cls-9" d="m133.9,174.78c.09-.14,4.37,0,4.37,0v9.3h-4.37v-9.3Z"/><ellipse class="cls-9" cx="135.81" cy="185.96" rx=".7" ry=".53"/></g><g id="Layer_5"><path class="cls-11" d="m428.43,128.77c0,1.46-1.25,2.51-2.99,2.51s-2.97-.97-3.17-2.54h1.9c.1.55.58.91,1.27.91.65,0,1.13-.37,1.13-.91s-.49-.91-1.27-.91h-.67v-1.49h.67c.67,0,1.09-.38,1.09-.94s-.42-.92-1.02-.92c-.65,0-1.07.37-1.12.95h-1.88c.1-1.52,1.21-2.61,3.01-2.61,1.7,0,2.82,1.04,2.82,2.54,0,.8-.37,1.34-.94,1.68.7.31,1.16.86,1.16,1.74Z"/><path class="cls-11" d="m435.85,125.78c0,.67-.28,1.3-.7,1.98l-2.12,3.37h-2.29l1.56-2.43c-1.81-.1-3.03-1.32-3.03-2.88,0-1.7,1.34-3,3.3-3s3.29,1.32,3.29,2.96Zm-2.28.92c.29-.41.4-.67.4-.97,0-.67-.58-1.3-1.4-1.3s-1.39.62-1.39,1.31.55,1.32,1.39,1.32c.36,0,.71-.1.96-.28l.05-.08Z"/><path class="cls-11" d="m435.29,130.17c0-.59.49-1.03,1.08-1.03s1.1.44,1.1,1.03-.5,1.06-1.1,1.06-1.08-.44-1.08-1.06Z"/><path class="cls-11" d="m443.85,125.78c0,.67-.28,1.3-.7,1.98l-2.12,3.37h-2.29l1.56-2.43c-1.81-.1-3.03-1.32-3.03-2.88,0-1.7,1.34-3,3.3-3s3.29,1.32,3.29,2.96Zm-2.28.92c.29-.41.4-.67.4-.97,0-.67-.58-1.3-1.4-1.3s-1.39.62-1.39,1.31.55,1.32,1.39,1.32c.36,0,.71-.1.96-.28l.05-.08Z"/><path class="cls-11" d="m449.95,125.21c0,1.43-1.06,2.41-2.45,2.41s-2.47-.98-2.47-2.41,1.07-2.4,2.47-2.4,2.45.98,2.45,2.4Zm-1.32,0c0-.68-.53-1.14-1.13-1.14s-1.14.46-1.14,1.14.52,1.14,1.14,1.14,1.13-.46,1.13-1.14Zm.01,5.91h-1.29l5.44-8.16h1.3l-5.45,8.16Zm7.9-2.25c0,1.43-1.05,2.41-2.46,2.41s-2.46-.98-2.46-2.41,1.07-2.4,2.46-2.4,2.46.98,2.46,2.4Zm-1.32,0c0-.67-.53-1.13-1.14-1.13s-1.13.46-1.13,1.13.52,1.15,1.13,1.15,1.14-.46,1.14-1.15Z"/><path class="cls-11" d="m350.14,182.43v1.64h-5.82v-.97l2.75-3.17c.61-.72,1.01-1.16,1.01-1.66,0-.41-.28-.8-.95-.8-.62,0-.98.38-1.04,1.03h-1.93c.05-1.68,1.2-2.75,3.06-2.75s2.87,1.1,2.87,2.53c0,.78-.44,1.44-1.42,2.53l-1.44,1.61h2.91Z"/><path class="cls-11" d="m356.96,182.43v1.64h-5.82v-.97l2.75-3.17c.61-.72,1.01-1.16,1.01-1.66,0-.41-.28-.8-.95-.8-.62,0-.98.38-1.04,1.03h-1.93c.05-1.68,1.2-2.75,3.06-2.75s2.87,1.1,2.87,2.53c0,.78-.44,1.44-1.42,2.53l-1.44,1.61h2.91Z"/><path class="cls-11" d="m357.78,183.11c0-.59.49-1.03,1.08-1.03s1.1.44,1.1,1.03-.5,1.06-1.1,1.06-1.08-.44-1.08-1.06Z"/><path class="cls-11" d="m367.5,182.63h-1.02v1.44h-1.91v-1.44h-4.15v-1.26l2.22-5.46h1.94l-1.92,5.02h1.91v-2.24h1.91v2.24h1.02v1.69Z"/><path class="cls-11" d="m372.77,178.16c0,1.43-1.06,2.41-2.45,2.41s-2.47-.98-2.47-2.41,1.07-2.4,2.47-2.4,2.45.98,2.45,2.4Zm-1.32,0c0-.68-.53-1.14-1.13-1.14s-1.14.46-1.14,1.14.52,1.14,1.14,1.14,1.13-.46,1.13-1.14Zm.01,5.91h-1.29l5.44-8.16h1.3l-5.45,8.16Zm7.9-2.25c0,1.43-1.05,2.41-2.46,2.41s-2.46-.98-2.46-2.41,1.07-2.4,2.46-2.4,2.46.98,2.46,2.4Zm-1.32,0c0-.67-.53-1.13-1.14-1.13s-1.13.46-1.13,1.13.52,1.15,1.13,1.15,1.14-.46,1.14-1.15Z"/><path class="cls-11" d="m273.49,198.2v1.64h-5.89v-1.64h2.04v-4.34l-1.92.59v-1.83l2.66-.92h1.21v6.51h1.89Z"/><path class="cls-11" d="m279.98,194.49c0,.67-.28,1.3-.7,1.98l-2.12,3.37h-2.29l1.56-2.43c-1.81-.1-3.03-1.32-3.03-2.88,0-1.7,1.34-3,3.3-3s3.29,1.32,3.29,2.96Zm-2.28.92c.29-.41.4-.67.4-.97,0-.67-.58-1.3-1.4-1.3s-1.39.62-1.39,1.31.55,1.32,1.39,1.32c.36,0,.71-.1.96-.28l.05-.08Z"/><path class="cls-11" d="m279.42,198.88c0-.59.49-1.03,1.08-1.03s1.1.44,1.1,1.03-.5,1.06-1.1,1.06-1.08-.44-1.08-1.06Z"/><path class="cls-11" d="m287.98,191.69v1.14l-3.13,7.02h-2.21l2.88-6.34h-3.49v-1.81h5.95Z"/><path class="cls-11" d="m293.9,193.93c0,1.43-1.06,2.41-2.45,2.41s-2.47-.98-2.47-2.41,1.07-2.4,2.47-2.4,2.45.98,2.45,2.4Zm-1.32,0c0-.68-.53-1.14-1.13-1.14s-1.14.46-1.14,1.14.52,1.14,1.14,1.14,1.13-.46,1.13-1.14Zm.01,5.91h-1.29l5.44-8.16h1.3l-5.45,8.16Zm7.9-2.25c0,1.43-1.05,2.41-2.46,2.41s-2.46-.98-2.46-2.41,1.07-2.4,2.46-2.4,2.46.98,2.46,2.4Zm-1.32,0c0-.67-.53-1.13-1.14-1.13s-1.13.46-1.13,1.13.52,1.15,1.13,1.15,1.14-.46,1.14-1.15Z"/><path class="cls-11" d="m199.93,221.72c0,1.54-1.22,2.52-3.3,2.52s-3.3-.98-3.3-2.52c0-.86.48-1.56,1.31-1.97-.61-.36-.97-.94-.97-1.66,0-1.39,1.24-2.33,2.96-2.33s2.95.94,2.95,2.33c0,.72-.36,1.28-.96,1.66.83.41,1.31,1.1,1.31,1.97Zm-2.06-.13c0-.6-.53-1.06-1.24-1.06s-1.22.44-1.22,1.06.52,1.07,1.22,1.07,1.24-.47,1.24-1.07Zm-2.35-3.37c0,.56.46,1.01,1.12,1.01s1.13-.46,1.13-1.01-.47-.98-1.13-.98-1.12.41-1.12.98Z"/><path class="cls-11" d="m200.67,223.12c0-.59.49-1.03,1.08-1.03s1.1.44,1.1,1.03-.5,1.06-1.1,1.06-1.08-.44-1.08-1.06Z"/><path class="cls-11" d="m209.23,218.73c0,.67-.28,1.3-.7,1.98l-2.12,3.37h-2.29l1.56-2.43c-1.81-.1-3.03-1.32-3.03-2.88,0-1.7,1.34-3,3.3-3s3.29,1.32,3.29,2.96Zm-2.28.92c.29-.41.4-.67.4-.97,0-.67-.58-1.3-1.4-1.3s-1.39.62-1.39,1.31.55,1.32,1.39,1.32c.36,0,.71-.1.96-.28l.05-.08Z"/><path class="cls-11" d="m215.33,218.17c0,1.43-1.06,2.41-2.45,2.41s-2.47-.98-2.47-2.41,1.07-2.4,2.47-2.4,2.45.98,2.45,2.4Zm-1.32,0c0-.68-.53-1.14-1.13-1.14s-1.14.46-1.14,1.14.52,1.14,1.14,1.14,1.13-.46,1.13-1.14Zm.01,5.91h-1.29l5.44-8.16h1.3l-5.45,8.16Zm7.9-2.25c0,1.43-1.05,2.41-2.46,2.41s-2.46-.98-2.46-2.41,1.07-2.4,2.46-2.4,2.46.98,2.46,2.4Zm-1.32,0c0-.67-.53-1.13-1.14-1.13s-1.13.46-1.13,1.13.52,1.15,1.13,1.15,1.14-.46,1.14-1.15Z"/><path class="cls-11" d="m122.35,229.91c0,1.68-1.26,2.81-3.09,2.81s-3-1.03-3.18-2.58h1.91c.16.56.59.91,1.31.91s1.21-.44,1.21-1.13-.53-1.09-1.36-1.09h-2.65v-4.43h5.47v1.73h-3.65v1.13s1.12,0,1.12,0c1.83,0,2.91,1.15,2.91,2.65Z"/><path class="cls-11" d="m122.97,231.6c0-.59.49-1.03,1.08-1.03s1.1.44,1.1,1.03-.5,1.06-1.1,1.06-1.08-.44-1.08-1.06Z"/><path class="cls-11" d="m132.46,230.19c0,1.54-1.22,2.52-3.3,2.52s-3.3-.98-3.3-2.52c0-.86.48-1.56,1.31-1.97-.61-.36-.97-.94-.97-1.66,0-1.39,1.24-2.33,2.96-2.33s2.95.94,2.95,2.33c0,.72-.36,1.28-.96,1.66.83.41,1.31,1.1,1.31,1.97Zm-2.06-.13c0-.6-.53-1.06-1.24-1.06s-1.22.44-1.22,1.06.52,1.07,1.22,1.07,1.24-.47,1.24-1.07Zm-2.35-3.37c0,.56.46,1.01,1.12,1.01s1.13-.46,1.13-1.01-.47-.98-1.13-.98-1.12.41-1.12.98Z"/><path class="cls-11" d="m138.13,226.64c0,1.43-1.06,2.41-2.45,2.41s-2.47-.98-2.47-2.41,1.07-2.4,2.47-2.4,2.45.98,2.45,2.4Zm-1.32,0c0-.68-.53-1.14-1.13-1.14s-1.14.46-1.14,1.14.52,1.14,1.14,1.14,1.13-.46,1.13-1.14Zm.01,5.91h-1.29l5.44-8.16h1.3l-5.45,8.16Zm7.9-2.25c0,1.43-1.05,2.41-2.46,2.41s-2.46-.98-2.46-2.41,1.07-2.4,2.46-2.4,2.46.98,2.46,2.4Zm-1.32,0c0-.67-.53-1.13-1.14-1.13s-1.13.46-1.13,1.13.52,1.15,1.13,1.15,1.14-.46,1.14-1.15Z"/><path class="cls-11" d="m46.08,237.07c0,1.46-1.25,2.51-2.99,2.51s-2.97-.97-3.17-2.54h1.9c.1.55.58.91,1.27.91.65,0,1.13-.37,1.13-.91s-.49-.91-1.27-.91h-.67v-1.49h.67c.67,0,1.09-.38,1.09-.94s-.42-.92-1.02-.92c-.65,0-1.07.37-1.12.95h-1.88c.1-1.52,1.21-2.61,3.01-2.61,1.7,0,2.82,1.04,2.82,2.54,0,.8-.37,1.34-.94,1.68.7.31,1.16.86,1.16,1.74Z"/><path class="cls-11" d="m46.82,238.46c0-.59.49-1.03,1.08-1.03s1.1.44,1.1,1.03-.5,1.06-1.1,1.06-1.08-.44-1.08-1.06Z"/><path class="cls-11" d="m55.87,237.07c0,1.46-1.25,2.51-2.99,2.51s-2.97-.97-3.17-2.54h1.9c.1.55.58.91,1.27.91.65,0,1.13-.37,1.13-.91s-.49-.91-1.27-.91h-.67v-1.49h.67c.67,0,1.09-.38,1.09-.94s-.42-.92-1.02-.92c-.65,0-1.07.37-1.12.95h-1.88c.1-1.52,1.21-2.61,3.01-2.61,1.7,0,2.82,1.04,2.82,2.54,0,.8-.37,1.34-.94,1.68.7.31,1.16.86,1.16,1.74Z"/><path class="cls-11" d="m61.99,233.51c0,1.43-1.06,2.41-2.45,2.41s-2.47-.98-2.47-2.41,1.07-2.4,2.47-2.4,2.45.98,2.45,2.4Zm-1.32,0c0-.68-.53-1.14-1.13-1.14s-1.14.46-1.14,1.14.52,1.14,1.14,1.14,1.13-.46,1.13-1.14Zm.01,5.91h-1.29l5.44-8.16h1.3l-5.45,8.16Zm7.9-2.25c0,1.43-1.05,2.41-2.46,2.41s-2.46-.98-2.46-2.41,1.07-2.4,2.46-2.4,2.46.98,2.46,2.4Zm-1.32,0c0-.67-.53-1.13-1.14-1.13s-1.13.46-1.13,1.13.52,1.15,1.13,1.15,1.14-.46,1.14-1.15Z"/></g></svg>