<?xml version="1.0" encoding="UTF-8"?><svg id="Layer_2" xmlns="http://www.w3.org/2000/svg" width="114.65mm" height="86.78mm" viewBox="0 0 324.99 245.99"><defs><style>.cls-1{fill:none;stroke:#ff1054;stroke-miterlimit:10;}</style></defs><path class="cls-1" d="m97.1,95.87c.27-1.58,3.21-39.03,49.72-28.87,0,0,30.48,12.03,22.99,20.32s-5.88,20.58-32.35,28.34-27,14.17-31.01,6.15c0,0-16.04,13.63-9.36-25.93h0Z"/><path class="cls-1" d="m169.51,97.64s9.05,16.32,23.15,19.22c0,0,5.42,1.48,6.01,11.72,0,0-1.52,6.31.74,10.1,0,0,1.34,2.51-1.29,0s-5.05-10.1-4.97-12.36-1.92-4.59-4.13-4.43-13.66-5.7-16.55-11.94-7.59-4.3-5.05-11.92c.17-.51,1.07-2.09,2.1-.4h0Z"/><path class="cls-1" d="m165.68,104.67s13.43,23.59,24.52,29.77,12.26,23.35,12.03,32.34c0,0-2.69,7.12,8.29,10.51s22.54,26.62,21.13,29.42-2.85-3.41-2.85-3.41c0,0-14.32-22.05-22.3-23.19,0,0-10.26-3.56-9.3-25,0,0,1.34-5.58-11.73-20.21,0,0-15.86-11.95-18.2-22.22,0,0-4.23-9.51-1.6-8.02h.01Z"/><path class="cls-1" d="m159.76,109.7s13.06,19.64,20.37,23.55c0,0,8.63,4.92,12.67,14.87,0,0,2.99,8.29,2.92,13.99,0,0,3.2,16.57,1.46,17.82s-4.5-11.09-5.08-13.72c-.14-.63-3.42-15.99-7.03-21.36s-20.82-21.88-22.57-24.62-5.56-8.62-5.56-8.62c0,0-1.44-4.18,2.82-1.92h0Z"/><path class="cls-1" d="m183.21,149.23s4.99,3.03,4.65,20.35c0,0-2.77,8.83,9.5,15.72,0,0,19,11.82,15.27,23.43,0,0-1.63,5.63-3.28-.92s-9.7-17.81-13.31-18.55-11.74-9.2-11.29-16.37-1.02-19.02-4.69-20.72-.43-6.67,3.14-2.94h0Z"/><path class="cls-1" d="m149.47,115.87c.38,0,2.88-.83,3.1,3.37,0,.12,0,.25,0,.38.08,4.62,8.72,7.18,8.72,7.18,0,0,10.34,2.5,11.78,9.97,0,0,.65,4.96-.23,8.35s-1.25,7.03,4.08,12.87c0,0,4.93,5.94,1.51,15.12,0,0-5.83,7.47,1.55,10.43s13.03,10.99,13.03,17.3c0,0-2.41,16.74.88,17.9s1.87,8.63,1.87,8.63c0,0-1.32,1.9-1.6-2.83s-3.18-3.89-3.18-3.89c0,0-3.17.96-3.23-5.06s3.44-20.88-4.59-21.73c0,0-9.49-4.81-10.4-16.11,0,0,4.11-19.01-5.87-23.87,0,0-3.91-2.43-2.09-7.71,0,0,3.41-11.62-4.09-12.57,0,0-7.09-1.27-11.26-6.44,0,0-10.33-11.45,0-11.27v-.02Z"/><path class="cls-1" d="m151.97,132.21s6.99,3.38,7.87,11.55c0,0-.81,9.49,1.77,15.23,0,0,5.66,7.94,4.49,11.33s-4.27-.59-6.18-4.85c0,0-2.43-5.74-2.35-10.67,0,0-1.62-14.2-3.83-16.04,0,0-10.52-7.91-1.77-6.55h0Z"/><path class="cls-1" d="m139.18,123.94c.34-.04,2.4.31,3.41,4.27,0,0-1.16,4.11,3.49,7.29,0,0,7.06,6.13,5.66,10.16l-.7,15.98s-1.09,4.89,3.18,11.94c0,0,6.99,7.82,9.54,8.58s16.42,13.66,12.57,12.85-11.83-3.04-18.24-9.92c0,0-8.03-8.96-9.6-15.45-.12-.49-6.08-15.32-3.05-21.75s-7.8-10.39-7.75-10.55-15.67-11.44,1.49-13.39h0Z"/><path class="cls-1" d="m130.02,132.06s10.43,12.88,9.77,29.56c0,0-.84,3.7,3.71,8.55s9.54,16.95,10.58,21.38,13.07,9.76,13.07,9.76c0,0,7.54.84,12.93,17.07,0,0,7.84,14.43,3.35,11.86s-6.71-10.48-6.65-12.16-4.13-13.65-12.93-13.41-18.2-14.43-17.54-18.32-4.25-13.05-8.32-17.36c0,0-3.29-1.63-3.73-14.91,0,0-.35-7.21-4.25-13.53s-6.16-13.55,0-8.48h0Z"/><path class="cls-1" d="m121.5,130.35s5.58,9.59,3.24,17.53-3.29,14.09,4.32,16.76,13.26,38.5,5.58,21.62c-.9-1.98-6.83-16.16-13.15-22.1s-.47-15.95-.47-19.63c0,0-1.35-8.76-3.09-11.03s-1.08-7.79,3.56-3.14h.01Z"/><path class="cls-1" d="m182.11,36.42s16.21-10.97,16.19-11.57,9.07-5.37,13.5,1.9c0,0,6.19,2.79,7.46,8.37,0,0,9.52,7.28,11.95,18.56,0,0,2.79,9.1,9.52,18.2,0,0,5.52,6.98-3.88,4.79s-15.53-10.25-15.95-13.04c0,0-8.19,3.52-8.25,3.34s9.89,11.58,8.25,15.28-6.55,5.88-13.46-1.7-4.55-8.86-12.92-14.13c0,0-20.41-16.17-18.38-21.77.24-.67-.25-3.96,5.98-8.23h0Z"/><path class="cls-1" d="m224.88,116.65s10.46-7.08,10.44-7.46,5.85-3.47,8.7,1.23c0,0,3.99,1.8,4.81,5.4,0,0,6.14,4.69,7.71,11.97,0,0,1.8,5.87,6.14,11.73,0,0,3.56,4.5-2.5,3.09s-10.01-6.61-10.29-8.41c0,0-5.28,2.27-5.32,2.15s6.38,7.47,5.32,9.86-4.22,3.79-8.68-1.1-2.93-5.71-8.33-9.11c0,0-13.16-10.43-11.85-14.04.16-.43-.16-2.56,3.86-5.3h0Z"/><path class="cls-1" d="m253.47,132.47s2.61.1,3.55,2.32,2.76,4.29,2.76,4.29c0,0,1.33,2.91-3.16-.35s-3.16-6.26-3.16-6.26h0Z"/><path class="cls-1" d="m240.91,138.7s2.61.1,3.55,2.32,2.76,4.29,2.76,4.29c0,0,1.33,2.91-3.16-.35s-3.16-6.26-3.16-6.26h.01Z"/><path class="cls-1" d="m31.09,89.12s10.46-7.08,10.44-7.46,5.85-3.47,8.7,1.23c0,0,3.99,1.8,4.81,5.4,0,0,6.14,4.69,7.71,11.97,0,0,1.8,5.87,6.14,11.73,0,0,3.56,4.5-2.5,3.09-6.06-1.41-10.01-6.61-10.29-8.41,0,0-5.28,2.27-5.32,2.15s6.38,7.47,5.32,9.86-4.22,3.79-8.68-1.1-2.93-5.71-8.33-9.11c0,0-13.16-10.43-11.85-14.04.16-.43-.16-2.56,3.86-5.3h0Z"/><path class="cls-1" d="m59.68,104.95s2.61.1,3.55,2.32,2.76,4.29,2.76,4.29c0,0,1.33,2.91-3.16-.35s-3.16-6.26-3.16-6.26h.01Z"/><path class="cls-1" d="m47.12,111.18s2.61.1,3.55,2.32,2.76,4.29,2.76,4.29c0,0,1.33,2.91-3.16-.35s-3.16-6.26-3.16-6.26h.01Z"/><path class="cls-1" d="m205.88,69.28s4.15.16,5.64,3.69,4.39,6.82,4.39,6.82c0,0,2.11,4.63-5.02-.56-7.14-5.18-5.02-9.95-5.02-9.95h.02Z"/><path class="cls-1" d="m226.75,60.74s4.15.16,5.64,3.69,4.39,6.82,4.39,6.82c0,0,2.11,4.63-5.02-.56-7.14-5.18-5.02-9.95-5.02-9.95h.02Z"/></svg>