<svg xmlns="http://www.w3.org/2000/svg" width="256" height="256" viewBox="0 0 100 100"><rect width="100" height="100" rx="0" fill="#ff1054"></rect><path fill="#fff" d="M39.53 24.38L39.53 47.69L45.00 47.69Q52.69 47.69 56.50 44.66Q60.31 41.62 60.31 35.82L60.31 35.82Q60.31 29.97 57.12 27.17Q53.92 24.38 47.10 24.38L47.10 24.38L39.53 24.38ZM77.12 35.23L77.12 35.23Q77.12 47.91 69.20 54.62Q61.28 61.33 46.67 61.33L46.67 61.33L39.53 61.33L39.53 89.26L22.88 89.26L22.88 10.74L47.96 10.74Q62.25 10.74 69.69 16.89Q77.12 23.04 77.12 35.23Z"></path></svg>