<?xml version="1.0" encoding="UTF-8"?><svg id="Layer_3" xmlns="http://www.w3.org/2000/svg" viewBox="0 0 844.57 905.25"><defs><style>.cls-1,.cls-2,.cls-3,.cls-4,.cls-5{fill:none;}.cls-1,.cls-6{stroke-width:0px;}.cls-2,.cls-7,.cls-3,.cls-4,.cls-5{stroke-miterlimit:10;}.cls-2,.cls-7,.cls-3,.cls-5{stroke:#231f20;}.cls-2,.cls-3{stroke-linecap:round;}.cls-7{fill:#fff;stroke-width:.5px;}.cls-3{stroke-width:.25px;}.cls-4{stroke:#ff1054;stroke-width:2px;}.cls-6{fill:#231f20;}</style></defs><path class="cls-5" d="m427.93,888.71c9.98.28,19.97.31,29.95.09,2.11-.04,4.52-.25,5.77-1.95.72-.98.87-2.26.99-3.47.21-2.01.42-4.03.63-6.04"/><path class="cls-4" d="m278.24,403.5c-10.21-8.87-76.88-70.94-74.21-75.78,21.33-38.54,119.99-177.38,185.73-177.38,16.57,0,25.22.52,41.18,3.45,23.15,4.25,82.99,34.66,63.15,38.26-8.71,1.58-33.04,4.15-43.78,6.75-33.27,8.05-57.36,37.06-70.3,55.29-26.14,36.86-97.78,152.86-101.76,149.4h-.01Z"/><path class="cls-4" d="m417.12,608.17c-1.12,13.48-11.82,103.94-17.3,104.64-43.7,5.56-214,7.99-252.84-45.06-9.79-13.37-14.48-20.65-21.54-35.26-10.24-21.19-21.07-87.43-6.44-73.55,6.42,6.09,22.87,24.2,31.32,31.34,26.15,22.09,63.79,24.39,86.15,24.05,45.19-.68,181.1-11.41,180.66-6.15h-.01Z"/><path class="cls-4" d="m524.4,421.2c11.88-6.48,93.31-47.3,96.91-43.1,28.67,33.44,124.36,174.34,101.42,235.95-5.78,15.53-9.29,23.45-17.6,37.38-12.06,20.21-61.44,65.68-57.89,45.83,1.56-8.71,7.64-32.41,8.95-43.39,4.07-33.99-14.71-66.69-27.29-85.18-25.42-37.36-109.13-144.98-104.49-147.5h-.01Z"/><path class="cls-4" d="m253.5,405.65c-2.02-2.02-105.64-12.37-117.66-13.87-9.35-1.16,24.99,25.81,22.05,30.54-5.63,9.05-46.39,74.82-53.9,86.91s72,81.33,81.08,69.91c4.56-5.74,60.84-80.7,66.22-87.48,2.48-3.11,24.21,25.04,23.01,19.75-2.02-8.93-19.1-104.06-20.79-105.76h-.01Z"/><path class="cls-4" d="m571.24,384.31c2.51-1.37,41.72-97.84,46.56-108.94,3.76-8.64-31.82,16.67-35.52,12.52-7.09-7.96-58.66-65.65-68.13-76.27-9.66-10.83-98.37,46.08-89.98,58.01,4.22,6,60.22,81.16,65.2,88.25,2.29,3.25-30.86,16.14-25.45,16.49,9.14.58,105.22,11.09,107.33,9.94h-.01,0Z"/><path class="cls-4" d="m426.69,647.15c-.5,2.81,50.17,93.79,55.81,104.51,4.39,8.34,6.92-35.25,12.47-35.54,10.65-.55,87.91-4.65,102.13-5.38,14.49-.75,25.65-105.55,11.09-106.48-7.32-.47-100.99-3.86-109.63-4.41-3.97-.25,6.73-34.17,3.08-30.17-6.17,6.76-74.52,75.1-74.95,77.47h0Z"/><line class="cls-2" x1="426.06" y1="69.09" x2="407.95" y2="69.09"/><line class="cls-2" x1="408.82" y1="76.71" x2="502.54" y2="76.71"/><line class="cls-2" x1="443.03" y1="69.81" x2="464.88" y2="69.81"/><line class="cls-2" x1="480.98" y1="69.81" x2="503.69" y2="69.81"/><line class="cls-2" x1="432.1" y1="69.95" x2="451.08" y2="36.6"/><line class="cls-2" x1="438.14" y1="73.98" x2="454.53" y2="40.91"/><line class="cls-2" x1="455.97" y1="41.2" x2="473.5" y2="72.83"/><line class="cls-2" x1="461.72" y1="36.89" x2="479.54" y2="70.53"/><line class="cls-2" x1="408.53" y1="76.85" x2="418.3" y2="125.44"/><line class="cls-2" x1="422.33" y1="128.31" x2="490.18" y2="128.31"/><line class="cls-2" x1="502.54" y1="76.56" x2="493.63" y2="125.15"/><path class="cls-5" d="m431.98,69.94c-.24.61-.47,1.24-.48,1.9-.01.91.44,1.79,1.11,2.4s1.55.97,2.44,1.11c.69.11,1.42.1,2.04-.21s1.11-.95,1.07-1.65"/><path class="cls-5" d="m473.51,72.85c.74,1.31,2.21,2.17,3.71,2.2.31,0,.62-.02.9-.15.38-.17.66-.51.9-.85.39-.54.73-1.15.83-1.81s-.07-1.39-.57-1.84"/><path class="cls-5" d="m503.45,69.95c.84-.07,1.7.27,2.26.89s.82,1.51.67,2.33c-.12.7-.51,1.32-.93,1.9-.36.51-.76,1-1.27,1.37s-1.14.59-1.76.49"/><path class="cls-5" d="m418.3,125.13c.07.83.68,1.51,1.34,2.02.8.61,1.73,1.04,2.72,1.27"/><path class="cls-5" d="m489.81,128.28c.88.04,1.75-.35,2.41-.95s1.11-1.38,1.44-2.2"/><path class="cls-5" d="m451.14,36.8c.4-.97,1.67-1.39,2.65-1.01s1.59,1.42,1.66,2.47-.35,2.07-.97,2.91"/><path class="cls-5" d="m461.71,37.27c-.03-.35-.36-.58-.67-.73-.66-.33-1.38-.56-2.12-.57s-1.5.24-2.02.76c-.52.52-.75,1.25-.91,1.97-.21.93-.3,1.94.07,2.82"/><path class="cls-5" d="m407.99,69.11c-.55-.06-1.06.29-1.42.71-.92,1.06-1.17,2.63-.75,3.98s1.44,2.46,2.67,3.15"/><path class="cls-5" d="m657.84,354.11c18.44-.39,36.89-.44,55.33-.14"/><line class="cls-2" x1="659.82" y1="360.94" x2="667.38" y2="410.86"/><line class="cls-2" x1="659.7" y1="360.6" x2="712" y2="360.6"/><line class="cls-2" x1="712.37" y1="360.38" x2="703.71" y2="409.97"/><line class="cls-2" x1="667.75" y1="410.64" x2="703.72" y2="410.64"/><line class="cls-2" x1="672.5" y1="360.94" x2="677.38" y2="410.53"/><line class="cls-2" x1="685.67" y1="360.6" x2="685.67" y2="410.42"/><line class="cls-2" x1="699.44" y1="361.05" x2="693.96" y2="410.53"/><line class="cls-2" x1="677.13" y1="347.56" x2="677.13" y2="344"/><line class="cls-2" x1="677.01" y1="344.05" x2="694.45" y2="344.05"/><line class="cls-2" x1="694.32" y1="344" x2="694.57" y2="347.45"/><line class="cls-2" x1="684.22" y1="495.33" x2="684.22" y2="559.08"/><line class="cls-2" x1="684.03" y1="558.53" x2="696.8" y2="558.53"/><line class="cls-2" x1="725.91" y1="558.34" x2="774.2" y2="558.34"/><line class="cls-2" x1="767.47" y1="493.44" x2="767.47" y2="557.65"/><line class="cls-2" x1="684.1" y1="492.89" x2="684.23" y2="496.06"/><line class="cls-2" x1="684.23" y1="493.31" x2="767.13" y2="493.31"/><line class="cls-2" x1="767.54" y1="504.72" x2="795.18" y2="504.72"/><line class="cls-2" x1="795.18" y1="504.72" x2="816.07" y2="530.15"/><line class="cls-2" x1="816.07" y1="530.15" x2="817.17" y2="559.29"/><line class="cls-2" x1="817.17" y1="559.16" x2="804.8" y2="559.16"/><line class="cls-2" x1="779.85" y1="511.87" x2="779.85" y2="526.77"/><line class="cls-2" x1="779.65" y1="511.87" x2="790.71" y2="512.48"/><line class="cls-2" x1="790.56" y1="512.48" x2="801.39" y2="526.42"/><line class="cls-2" x1="779.95" y1="526.84" x2="801.62" y2="526.84"/><line class="cls-2" x1="617.61" y1="511.07" x2="673.82" y2="511.07"/><line class="cls-2" x1="598.91" y1="524.13" x2="660.83" y2="524.13"/><line class="cls-2" x1="629.27" y1="538.58" x2="674.88" y2="538.58"/><line class="cls-2" x1="659.6" y1="524.07" x2="675.21" y2="524.07"/><ellipse class="cls-7" cx="711.9" cy="559.08" rx="14.01" ry="14.15"/><ellipse class="cls-7" cx="790.14" cy="559.16" rx="14.66" ry="14.15"/><line class="cls-2" x1="652.21" y1="672.4" x2="630.51" y2="705.52"/><line class="cls-2" x1="656.78" y1="675.25" x2="636.22" y2="706.95"/><line class="cls-2" x1="635.36" y1="713.23" x2="635.64" y2="825.85"/><line class="cls-2" x1="629.65" y1="708.38" x2="630.22" y2="826.43"/><line class="cls-2" x1="632.42" y1="702.61" x2="652.21" y2="672.4"/><path class="cls-2" d="m629.54,708.41c-.54-1.03-.11-2.32.96-2.89"/><line class="cls-5" x1="635.36" y1="713.23" x2="636.22" y2="706.95"/><path class="cls-5" d="m652.21,672.4c0,1.58,2.04,2.86,4.57,2.86"/><path class="cls-5" d="m652.21,672.31c1.06-.77,3.32.55,5.06,2.94"/><path class="cls-2" d="m630.26,826.46c.07.3,2.48.03,5.39-.61"/><path class="cls-2" d="m630.69,709.7c0,.43,1.88.78,4.2.78"/><path class="cls-2" d="m630.89,707.12c0,.46,1.7.83,3.8.83"/><path class="cls-2" d="m631.96,705.03c0,.64,1.58,1.16,3.54,1.16"/><path class="cls-2" d="m633.37,703.36c0,.73,1.35,1.32,3.03,1.32"/><line class="cls-2" x1="724.77" y1="707.2" x2="681.04" y2="702.79"/><line class="cls-2" x1="726.58" y1="712.38" x2="685.28" y2="707.97"/><line class="cls-2" x1="680.79" y1="712.24" x2="613.5" y2="802.54"/><line class="cls-2" x1="679.13" y1="704.93" x2="608.81" y2="799.76"/><path class="cls-2" d="m679.03,704.89c.19-1.15,1.31-1.93,2.5-1.73"/><line class="cls-5" x1="680.79" y1="712.24" x2="685.24" y2="707.73"/><path class="cls-5" d="m724.64,707.36c-.95,1.26-.08,3.51,1.95,5.03"/><path class="cls-5" d="m724.4,707.27c1.31.02,2.33,2.43,2.29,5.38"/><path class="cls-2" d="m608.82,799.8c-.13.28,1.97,1.51,4.68,2.74"/><path class="cls-2" d="m679.17,706.62c-.26.34,1.04,1.75,2.89,3.14"/><path class="cls-2" d="m680.87,704.67c-.27.37.87,1.68,2.55,2.94"/><path class="cls-2" d="m682.99,703.64c-.38.51.57,1.88,2.14,3.05"/><path class="cls-2" d="m685.12,703.15c-.44.59.29,1.87,1.63,2.87"/><line class="cls-1" x1="724.82" y1="742.07" x2="731.47" y2="813.27"/><line class="cls-1" x1="782.33" y1="742.86" x2="775.09" y2="812.49"/><line class="cls-1" x1="724.82" y1="742.07" x2="782.33" y2="742.86"/><line class="cls-1" x1="720.52" y1="733.08" x2="720.91" y2="741.29"/><line class="cls-1" x1="723.45" y1="733.08" x2="785.65" y2="733.47"/><line class="cls-1" x1="786.04" y1="742.46" x2="785.65" y2="733.47"/><line class="cls-1" x1="777.63" y1="741.29" x2="784.28" y2="740.9"/><line class="cls-1" x1="725.21" y1="731.32" x2="725.02" y2="726.82"/><path class="cls-5" d="m722.31,731c3.86,20.91,6.15,42.11,6.84,63.37.07,2.05.12,4.14.73,6.1s1.85,3.82,3.72,4.69"/><path class="cls-5" d="m734.01,804.75c10.91.3,21.83.34,32.74.1,2.3-.05,4.94-.28,6.3-2.14.79-1.08.95-2.47,1.09-3.8.23-2.2.46-4.4.68-6.6"/><path class="cls-5" d="m774.82,792.15c.73-12.68,1.76-25.34,3.08-37.97"/><path class="cls-5" d="m778.06,754.2c-.28-3.29.32-6.58.8-9.85.68-4.58,1.15-9.2,1.41-13.83"/><path class="cls-5" d="m780.37,730.35c-19.29-.69-38.59-1.01-57.9-.96"/><path class="cls-5" d="m723.21,729.59l-4.12-.45c.44-2.79.42-5.63-.05-8.42,20.64-.57,41.3-.34,61.91.68"/><path class="cls-5" d="m722.81,720.95l.27-5.15c18.77-1.03,37.59-1.05,56.36-.05-.02,1.86-.05,3.73-.07,5.59"/><path class="cls-5" d="m750.06,714.1l.21-4.13c.04-.76.08-1.54-.15-2.26-.24-.74-.74-1.37-1.23-1.97-3.36-4.11-6.93-8.03-10.7-11.76.75-.53,1.4-1.19,1.92-1.95"/><path class="cls-5" d="m741.07,691.42c2.99,2.84,5.99,5.68,8.98,8.52,1.21,1.15,2.46,2.35,3.14,3.88.54,1.23.68,2.6.81,3.94.22,2.3.45,4.61.67,6.91"/><path class="cls-5" d="m780.61,721.6h2.8c.11,0,.24,0,.32.08.09.08.09.22.09.34-.06,2.77-.12,5.53-.19,8.3,0,.13-.01.29-.12.37-.08.06-.18.07-.28.08-1.11.08-2.23.03-3.34-.13"/><path class="cls-5" d="m721.8,729.49c.09.67.32,1.33.68,1.91"/><line class="cls-1" x1="419.52" y1="831.37" x2="425.6" y2="896.5"/><line class="cls-1" x1="472.13" y1="832.08" x2="465.51" y2="895.79"/><line class="cls-1" x1="419.52" y1="831.37" x2="472.13" y2="832.08"/><line class="cls-1" x1="415.58" y1="823.14" x2="415.94" y2="830.65"/><line class="cls-1" x1="418.27" y1="823.14" x2="475.17" y2="823.49"/><line class="cls-1" x1="475.53" y1="831.73" x2="475.17" y2="823.49"/><line class="cls-1" x1="467.83" y1="830.65" x2="473.92" y2="830.29"/><line class="cls-1" x1="419.88" y1="821.53" x2="419.7" y2="817.41"/><path class="cls-5" d="m417.22,821.24c3.53,19.13,5.62,38.53,6.26,57.97.06,1.88.11,3.79.67,5.58s1.7,3.5,3.4,4.29"/><path class="cls-5" d="m465.26,877.18c.67-11.6,1.61-23.18,2.82-34.73"/><path class="cls-5" d="m468.22,842.46c-.25-3.01.29-6.02.73-9.01.62-4.19,1.05-8.42,1.29-12.65"/><path class="cls-5" d="m470.34,820.65c-17.65-.63-35.31-.93-52.97-.88"/><path class="cls-5" d="m418.05,819.95l-3.77-.41c.4-2.55.38-5.15-.04-7.7,18.88-.52,37.78-.31,56.64.62"/><path class="cls-5" d="m417.68,812.04l.25-4.71c17.17-.94,34.39-.96,51.56-.04-.02,1.7-.04,3.41-.06,5.11"/><path class="cls-5" d="m442.61,805.78l.2-3.77c.04-.7.07-1.41-.14-2.07-.22-.68-.67-1.25-1.13-1.81-3.07-3.76-6.34-7.35-9.79-10.76.69-.48,1.29-1.09,1.75-1.79"/><path class="cls-5" d="m434.38,785.03l8.22,7.8c1.11,1.05,2.25,2.15,2.87,3.55.5,1.13.62,2.38.74,3.61.2,2.11.41,4.21.61,6.32"/><path class="cls-5" d="m470.55,812.64h2.56c.1,0,.22,0,.29.07.08.08.08.2.08.31-.06,2.53-.11,5.06-.17,7.59,0,.12-.01.26-.11.34-.07.06-.16.07-.25.07-1.02.07-2.04.03-3.05-.12"/><path class="cls-5" d="m416.75,819.85c.08.62.3,1.22.62,1.75"/><rect class="cls-5" x="88.8" y="399.88" width="41.95" height="66.15"/><rect class="cls-5" x="100.59" y="364.75" width="18.37" height="35.13"/><path class="cls-5" d="m109.51,356.97c-5.59-13.9-12.44-18.71-17.86-20.44-8.73-2.79-15.19,1.93-23.12-1.71-7.19-3.3-10.49-11.13-12.16-17.36"/><path class="cls-5" d="m103.93,363.13c-7.38-11.28-14.16-14.23-19.13-14.73-8.01-.8-12.68,4.65-20.16,2.95-6.78-1.54-11.07-7.87-13.67-13.09"/><path class="cls-5" d="m82.04,317.45c9.51,1.51,13.4,4.99,15.13,8.11,2.38,4.3.38,7.44,3.24,10.81,3.88,4.56,9.99,1.67,14.59,5.4,2.67,2.17,5.04,6.74,3.78,17.29"/><path class="cls-6" d="m42.13,688.26c-5.37,10-11.23,19.73-17.55,29.15-.04.06.6.04.71-.13,6.32-9.43,12.18-19.16,17.55-29.15.04-.08-.62-.05-.71.13h0Z"/><path class="cls-6" d="m24.38,717.55c-.55,17.19-.84,34.38-.86,51.57,0,.31.73.17.73-.09.02-17.19.31-34.39.86-51.57,0-.31-.72-.17-.73.09h0Z"/><path class="cls-6" d="m42.98,687.11c-.78-3.27-1.42-6.88-.18-10.12.69-1.81,1.99-3.54,4.01-3.9.97-.17,1.99-.14,2.97-.13s1.94.06,2.89.3c1.85.48,3.46,1.86,4.67,3.31s1.62,3.28,1.49,5.2c-.22,3.11-1.66,6.38-4.42,8.03s-6.96.99-8.68-1.92c-.12-.2-.82.03-.67.28,1.62,2.75,5.28,3.48,8.17,2.57,3.29-1.03,5.42-4.16,6.1-7.43.39-1.87.46-4.02-.45-5.76s-2.69-3.34-4.43-4.19c-1.89-.91-4.15-.85-6.2-.77-1.74.07-3.31.53-4.53,1.83-3.22,3.45-2.43,8.74-1.44,12.9.06.24.78.06.72-.19h-.02Z"/><path class="cls-6" d="m58.9,687.33c3.99,2.67,7.99,5.34,11.98,8.01.21.14.87-.16.57-.36-3.99-2.67-7.99-5.34-11.98-8.01-.21-.14-.87.16-.57.36h0Z"/><path class="cls-6" d="m71.56,695.44c3.83-2.31,8.16-4.82,12.81-4.26,4,.49,7.31,3.15,9.89,6.07.22.24.9-.05.66-.32-2.78-3.14-6.37-5.94-10.68-6.31-4.8-.42-9.19,2.1-13.15,4.49-.42.25.18.51.48.33h-.01Z"/><path class="cls-6" d="m71.53,694.43c-2.31,8.54,2.39,17.3,10.55,20.49.21.08.87-.23.58-.35-8.06-3.15-12.68-11.8-10.4-20.24.07-.25-.66-.15-.72.09h-.01Z"/><path class="cls-6" d="m49.49,691.49c-2.99,6.96-5.81,13.98-8.46,21.08-.05.13.64.06.71-.13,2.65-7.09,5.48-14.12,8.46-21.08.05-.12-.63-.06-.71.13h0Z"/><path class="cls-6" d="m25.71,730.98c2.6,2.31,5.75,4.31,9.33,4.37,3.3.06,6.46-1.56,8.69-3.93,5.16-5.47,5.05-14.02.04-19.52-.2-.22-.89.06-.67.31,4.48,4.92,5.06,12.33,1.09,17.76-1.99,2.73-5.12,4.81-8.57,4.9s-6.7-1.91-9.25-4.18c-.22-.2-.91.09-.67.31h0v-.02Z"/><path class="cls-6" d="m29.05,713.26c3.58-2.87,8.63-3.38,12.77-1.42.17.08.84-.19.59-.31-4.46-2.11-10.08-1.41-13.92,1.67-.3.24.42.18.56.06h0Z"/><path class="cls-6" d="m34.9,722.82c.16,0,.82-.31.47-.31-.16,0-.82.31-.47.31h0Z"/><path class="cls-6" d="m50.39,682.15c.22,0,.79-.33.3-.33-.22,0-.79.33-.3.33h0Z"/><path class="cls-6" d="m46.82,730.16c.74,3.32,2.58,6.38,4.27,9.3,1.79,3.11,3.73,6.14,5.67,9.15,4.12,6.41,8.24,12.81,12.37,19.22.17.26.86,0,.67-.31-4.04-6.27-8.07-12.55-12.11-18.82-1.86-2.89-3.72-5.78-5.46-8.74-1.84-3.13-3.88-6.42-4.68-9.99-.07-.32-.8-.13-.72.19h0Z"/><line class="cls-3" x1="12.27" y1="770.46" x2="67.96" y2="770.46"/><line class="cls-3" x1="67.83" y1="770.36" x2="82.49" y2="770.36"/><line class="cls-3" x1="82.58" y1="770.45" x2="90.67" y2="770.45"/><line class="cls-3" x1="90.83" y1="770.44" x2="90.83" y2="782.01"/><line class="cls-3" x1="12.48" y1="770.88" x2="13.11" y2="781.83"/><line class="cls-3" x1="13.11" y1="782.06" x2="39.35" y2="782.06"/><line class="cls-3" x1="38.81" y1="781.97" x2="67.49" y2="781.97"/><line class="cls-3" x1="66.67" y1="781.75" x2="90.38" y2="781.75"/><path class="cls-6" d="m135.78,698.16c-5.16,3.17-10.21,6.78-16.1,8.44-2.94.83-5.94,1.2-8.98,1.28s-5.78.38-8.68.9c-.31.06-.63.4-.12.31,1.77-.32,3.55-.64,5.35-.77,1.68-.12,3.37-.09,5.05-.19,2.82-.18,5.62-.68,8.32-1.52,5.72-1.78,10.67-5.3,15.73-8.41.31-.19-.41-.15-.56-.05h-.01Z"/><path class="cls-6" d="m102.26,708.64c-.88.22-1.8.26-2.69.45-.83.18-1.64.44-2.43.75-1.64.64-3.19,1.49-4.73,2.34-.43.24-.04.59.31.4,1.49-.82,2.98-1.65,4.57-2.27.78-.31,1.58-.57,2.4-.74.89-.19,1.81-.23,2.69-.45.45-.11.32-.58-.12-.47h0Z"/><path class="cls-6" d="m93.04,711.85c-3.02,1.63-5.96,3.4-8.81,5.31-.29.19.43.09.55,0,2.85-1.91,5.79-3.68,8.81-5.31.15-.08.06-.11-.04-.14-.14-.04-.39.07-.51.14h0Z"/><path class="cls-6" d="m85.1,716.52c-3.12,1.87-6.14,3.9-9.07,6.06-.14.1-.05.19.06.24.15.06.39-.05.51-.14,2.88-2.13,5.86-4.12,8.94-5.97.42-.25-.22-.33-.44-.19h0Z"/><path class="cls-6" d="m77.4,721.65c-2.28,1.17-4.45,2.53-6.48,4.09-.39.3.21.46.46.27,1.99-1.52,4.1-2.86,6.32-4,.44-.23.04-.53-.3-.36h0Z"/><path class="cls-6" d="m72.38,724.83c-3.64,2.34-7.3,4.64-10.98,6.92-.3.18.42.1.55.02,3.68-2.27,7.34-4.58,10.98-6.92.3-.19-.42-.1-.55-.02h0Z"/><path class="cls-6" d="m61.97,731.23c-1.54.91-2.99,1.97-4.33,3.16-.36.33.21.58.48.33,1.29-1.15,2.68-2.19,4.17-3.07.13-.08.28-.22.17-.38-.1-.14-.36-.13-.49-.06h0v.02Z"/><path class="cls-6" d="m57.33,734.68c-.35,2.12.26,4.16,1.02,6.12s1.62,3.79,2.64,5.58c1.99,3.5,4.47,6.69,7.36,9.49.18.17.86-.1.67-.28-2.86-2.78-5.34-5.94-7.31-9.41-.93-1.64-1.75-3.34-2.45-5.09-.83-2.08-1.59-4.25-1.21-6.52.05-.27-.68-.15-.72.09h0v.02Z"/><path class="cls-6" d="m68,755.63c.81,1.17,2.25.53,3.27.08,1.32-.59,2.58-1.27,3.79-2.04.13-.08.07-.17-.05-.19-.16-.04-.38.05-.51.14-.97.62-1.99,1.18-3.03,1.67-.49.23-1.01.51-1.54.65s-.98-.16-1.26-.56c-.11-.16-.81.07-.68.26h.01Z"/><path class="cls-6" d="m75.02,753.84c2.88-1.65,5.8-3.21,8.77-4.68.44-.22.05-.6-.32-.42-2.97,1.47-5.9,3.03-8.77,4.68-.43.24-.04.62.32.42h0Z"/><path class="cls-6" d="m83.87,749.18c1.33-.77,2.67-1.54,4-2.3.14-.08.27-.24.17-.4-.1-.15-.36-.15-.5-.07l-4,2.3c-.14.08-.27.24-.17.4.1.15.36.15.5.07h0Z"/><path class="cls-6" d="m87.26,746.84c4.85-2.59,9.77-5.03,14.76-7.33.44-.2-.23-.24-.43-.15-4.99,2.3-9.91,4.74-14.76,7.33-.43.23.23.26.43.15h0Z"/><path class="cls-6" d="m100.65,740.22c2.5-1.11,4.97-2.29,7.41-3.54.12-.06.19-.12.08-.21-.1-.08-.41.04-.51.09-2.44,1.24-4.91,2.42-7.41,3.54-.12.05-.19.13-.08.21s.41-.04.51-.09h0Z"/><path class="cls-6" d="m107.66,737.07c3.53-1.73,6.2-4.66,8.78-7.54.3-.34-.39-.46-.61-.22-2.5,2.79-5.08,5.66-8.5,7.33-.44.22-.05.61.32.43h0Z"/><path class="cls-6" d="m115.84,729.86c1.16-.57,1.71-1.91,2.31-2.98.75-1.33,1.5-2.67,2.24-4.01.19-.35-.54-.35-.69-.08-.67,1.23-1.36,2.45-2.04,3.66-.32.58-.64,1.16-.98,1.73-.29.5-.63,1-1.16,1.26-.44.22-.05.6.32.42h0Z"/><path class="cls-6" d="m119.98,723.58c.28-.67.55-1.35.91-1.98s.83-1.2,1.36-1.72c1.06-1.05,2.19-2.05,3.29-3.07.12-.11.07-.21-.07-.26-.15-.05-.4.03-.51.14-1.16,1.07-2.36,2.11-3.46,3.24s-1.67,2.36-2.24,3.75c-.09.23.63.15.72-.09h0Z"/><path class="cls-6" d="m125.26,717.01c1.23-1.5,2.7-2.79,4.36-3.82.12-.08.08-.15-.04-.17-.17-.02-.37.05-.51.14-1.69,1.04-3.2,2.36-4.46,3.89-.1.12.09.13.17.13.14,0,.39-.06.48-.17h0Z"/><path class="cls-6" d="m141.37,706.04c-4.23,2.27-8.41,4.64-12.53,7.11-.42.25-.04.66.32.44,4.12-2.46,8.3-4.83,12.53-7.11.43-.23.04-.64-.32-.44h0Z"/><path class="cls-6" d="m135.99,697.9c1.28,3,2.64,6.05,4.93,8.43.19.2.88-.08.67-.29-2.27-2.36-3.61-5.36-4.88-8.33-.11-.27-.83-.05-.72.19h0Z"/><path class="cls-6" d="m136.69,697.66c.16-.39.42-1.09.94-.86.41.18.71.85.94,1.2.59.91,1.17,1.82,1.72,2.74s1.05,1.81,1.51,2.75c.26.53.5,1.07.72,1.62.09.21.21.45.26.67.13.64-.53.42-.88.28-.31-.12-.85.33-.42.5.57.23,1.24.37,1.76-.06s.22-1.05,0-1.58c-.61-1.51-1.37-2.94-2.2-4.34-.41-.69-.83-1.37-1.26-2.05s-.79-1.43-1.35-1.97c-.37-.35-.87-.49-1.36-.3-.56.22-.86.78-1.08,1.31-.16.39.57.4.69.09h.01Z"/><path class="cls-6" d="m139.15,697.27c1.71-1.53,3.43-3.04,5.17-4.53.12-.11.25-.21.37-.32.32-.14.54-.08.66.18.16.14.29.38.41.54.31.43.61.86.9,1.31.61.94,1.16,1.91,1.68,2.9s.96,1.9,1.41,2.87c.1.21.19.41.29.62.09.19.38.6.36.81-.03.32-.24.28-.51.35-.31.08-.61.17-.92.26-2.09.61-4.14,1.37-6.13,2.26-.46.2-.05.52.3.36,1.97-.88,3.99-1.63,6.05-2.22.52-.15,1.74-.22,1.93-.86.1-.35-.18-.74-.32-1.05-.23-.48-.45-.96-.68-1.45-.84-1.76-1.74-3.51-2.8-5.16-.47-.73-.98-1.66-1.64-2.22-.56-.48-1.14-.07-1.6.32-1.87,1.59-3.72,3.21-5.54,4.85-.32.29.39.35.59.17h.02Z"/><path class="cls-6" d="m677.36,758.45c-1.21,8.69-2.78,17.36-4.85,25.89-.24.98-.5,1.98-1.03,2.85-.64,1.03-1.66,1.7-2.56,2.46-1.2,1.01-2.19,2.2-2.96,3.57-1.62,2.89-2.2,6.29-2.31,9.56-.16,4.9.62,9.8-.03,14.69-.05.36.69.27.73-.06,1.03-7.79-1.69-16.29,2.03-23.62.89-1.76,2.13-3.11,3.66-4.34,1.43-1.15,2.39-2.31,2.92-4.09,1.18-3.96,1.89-8.12,2.68-12.17.95-4.91,1.77-9.85,2.46-14.8.05-.36-.69-.27-.73.06h0Z"/><path class="cls-6" d="m663.46,817.56c.21,16.2.56,32.39,1.06,48.58,0,.16.73.04.72-.19-.5-16.19-.86-32.38-1.06-48.58,0-.15-.73-.04-.72.19h0Z"/><path class="cls-6" d="m664.93,866.53c-1.97,4.95,2.11,9.61,6.64,11.02,6.15,1.9,12.57-.41,18.79-.47,4.95-.04,10.13-.02,13.09-4.68s2.89-10.95,3.15-16.23c.4-7.92.18-15.87-.62-23.76-.03-.25-.75-.09-.72.19.65,6.38.92,12.79.78,19.21-.07,3.13-.23,6.26-.49,9.38-.2,2.39-.43,4.78-1.06,7.1s-1.61,4.49-3.38,6.07c-2.32,2.06-5.44,2.27-8.4,2.28-2.76.01-5.45.13-8.19.5-2.97.4-5.96.88-8.97.64s-6.22-1.23-8.28-3.6c-1.85-2.12-2.68-5.07-1.61-7.74.1-.25-.63-.16-.73.09h0Z"/><path class="cls-6" d="m705.51,836.96c1.01-17.99,1.91-37.19-6.61-53.69-.08-.16-.77.1-.72.19,8.52,16.5,7.61,35.69,6.61,53.69,0,.08.71,0,.72-.19h0Z"/><path class="cls-6" d="m700.27,785.25c-.77-1.99-2.48-3.4-3.29-5.4s-1.17-4.29-1.6-6.45c-1.01-5.03-1.98-10.07-2.91-15.11-.05-.25-.77-.07-.72.19.93,5.04,1.9,10.08,2.91,15.11.43,2.16.77,4.4,1.6,6.45s2.52,3.41,3.29,5.4c.1.26.82.04.72-.19h0Z"/><path class="cls-6" d="m677.37,758.32c-1.48-2.09-1.03-5.31,1.01-6.87.12-.09.08-.16-.05-.19-.15-.03-.39.04-.51.14-2.17,1.66-2.71,4.95-1.13,7.19.11.16.81-.07.68-.26h0Z"/><path class="cls-6" d="m678.52,751.3c1.87-.23,3.75-.45,5.62-.68,1.77-.21,3.67-.61,5.44-.21,1.58.35,2.94,1.36,3.32,2.99s-.14,3.21-.63,4.69c-.07.21.65.12.72-.1.52-1.57,1.05-3.34.58-4.99-.43-1.5-1.73-2.47-3.19-2.86-1.73-.47-3.54-.18-5.28.03l-6.47.78c-.33.04-.62.41-.11.35h0Z"/><path class="cls-6" d="m678.71,758.52c-.15,1.03,1.6.64,2.06.35.28-.18.49-.45.76-.63.41-.28.67-.12.98.17.37.36.61.87,1.04,1.17.69.5,1.64.05,2.08-.57.15-.21.27-.45.41-.67.06-.09.12-.19.19-.28.18-.21.1-.14.21-.1.35.12.64.55.89.8.38.38.77.75,1.15,1.13.11.11.63-.07.7-.19.51-.84,1.25-1.5,2.18-1.84.49-.17.02-.23-.24-.13-1.11.4-2.03,1.09-2.65,2.11l.7-.19c-.6-.59-1.2-1.37-1.9-1.84-.35-.24-.76-.21-1.14-.06s-.59.4-.8.73c-.22.35-.52,1.18-1.01.92-.83-.45-1.01-1.71-2.15-1.64-.48.03-.92.24-1.29.54-.29.23-.61.67-1.03.59-.3-.06-.46-.27-.42-.57,0-.06-.69-.01-.72.19h0Z"/><path class="cls-6" d="m666.62,862.73c.93,7.29,8.97,11.01,15.29,7.53,1.69-.93,3.18-2.19,4.91-3.04,1.83-.89,3.89-1.33,5.92-1.33,3.76,0,7.43,1.43,10.13,4.05.2.2.89-.08.67-.3-4.5-4.38-11.73-5.51-17.34-2.62-1.74.89-3.23,2.18-4.96,3.08-2.06,1.06-4.4,1.34-6.65.8-3.94-.95-6.74-4.41-7.25-8.36-.04-.28-.76-.11-.72.19h0Z"/><path class="cls-6" d="m379.53,774.86c-1.21,8.69-2.78,17.36-4.85,25.89-.24.98-.5,1.99-1.03,2.85-.64,1.03-1.65,1.71-2.56,2.47-1.2,1-2.2,2.2-2.96,3.56-1.62,2.89-2.2,6.28-2.31,9.56-.16,4.9.62,9.8-.03,14.69-.04.34.69.23.73-.07,1.03-7.79-1.69-16.29,2.03-23.63.89-1.76,2.13-3.12,3.65-4.35,1.31-1.06,2.29-2.12,2.82-3.75,1.32-4.01,1.98-8.36,2.78-12.5.95-4.91,1.77-9.85,2.46-14.8.05-.34-.69-.23-.73.07h0Z"/><path class="cls-6" d="m365.62,833.9c.21,16.2.56,32.39,1.06,48.58.01.38.74.27.73-.06-.5-16.19-.86-32.38-1.06-48.58,0-.38-.74-.27-.73.06h0Z"/><path class="cls-6" d="m367.1,882.94c-1.97,4.94,2.11,9.61,6.64,11.01,6.15,1.9,12.57-.41,18.79-.47,4.94-.04,10.13-.02,13.09-4.68s2.89-10.95,3.15-16.22c.4-7.92.18-15.87-.62-23.76-.03-.25-.75-.09-.72.19.65,6.38.92,12.8.78,19.21-.07,3.13-.23,6.26-.49,9.38-.2,2.39-.43,4.78-1.06,7.1s-1.61,4.49-3.38,6.07c-2.32,2.07-5.44,2.27-8.4,2.28-2.76.01-5.45.13-8.19.5-2.97.4-5.96.88-8.97.64s-6.22-1.23-8.28-3.61c-1.85-2.12-2.68-5.07-1.62-7.74.1-.24-.63-.16-.73.09h0Z"/><path class="cls-6" d="m407.68,853.44c.8-14.25,1.56-28.95-2.34-42.85-1.06-3.8-2.5-7.47-4.31-10.97-.15-.29-.84-.02-.66.32,8.5,16.45,7.58,35.61,6.57,53.55-.02.38.72.28.73-.05h0Z"/><path class="cls-6" d="m402.44,801.66c-.77-1.99-2.48-3.4-3.29-5.4s-1.17-4.29-1.6-6.45c-1.01-5.03-1.98-10.07-2.91-15.11-.03-.16-.76,0-.72.19.93,5.04,1.9,10.08,2.91,15.11.43,2.16.77,4.4,1.6,6.45s2.52,3.41,3.29,5.4c.07.18.78-.04.72-.19h0Z"/><path class="cls-6" d="m379.54,774.72c-1.48-2.09-1.03-5.31,1.01-6.87.12-.09.08-.17-.05-.2-.15-.04-.39.04-.51.14-2.17,1.66-2.71,4.95-1.13,7.19.11.16.81-.07.68-.26h0Z"/><path class="cls-6" d="m380.68,767.67c1.87-.23,3.75-.45,5.62-.68s3.77-.62,5.59-.17c1.52.38,2.81,1.4,3.18,2.98s-.14,3.21-.63,4.7c-.05.16.65.07.72-.12.52-1.56,1.05-3.34.58-4.98-.43-1.52-1.77-2.49-3.25-2.86-1.7-.43-3.49-.14-5.21.07-2.16.26-4.31.52-6.47.78-.3.04-.64.35-.13.29h0Z"/><path class="cls-6" d="m380.88,774.85c-.15,1.02,1.34,1,1.93.65.53-.31,1.08-1.25,1.75-.77.43.31.67.84,1.06,1.2.7.65,1.6.38,2.12-.34.2-.27.45-1.02.79-1.12.31-.1.87.63,1.06.82.36.35.71.7,1.07,1.05.2.2.54.11.68-.12.5-.82,1.24-1.44,2.14-1.76.43-.15.3-.67-.14-.51-1.15.41-2.06,1.14-2.7,2.18l.68-.12c-.6-.59-1.18-1.23-1.82-1.78-.33-.28-.74-.42-1.16-.27-.39.14-.63.47-.84.8-.19.31-.49,1.07-.95.99s-.77-.75-1.04-1.05-.6-.6-1.04-.67c-.54-.08-1.02.18-1.42.51-.24.2-.5.53-.81.62-.28.08-.7-.01-.65-.37s-.69-.28-.73.05h.02Z"/><path class="cls-6" d="m368.79,879.14c.92,7.17,8.7,10.79,14.98,7.58,1.66-.85,3.09-2.05,4.72-2.94,2.04-1.12,4.36-1.63,6.69-1.56,3.68.1,7.22,1.54,9.87,4.11.12.12.77-.15.68-.24-4.45-4.33-11.5-5.35-17.08-2.67-1.64.79-3.05,1.94-4.62,2.86-2.43,1.43-5.22,1.8-7.9.91-3.62-1.2-6.13-4.5-6.6-8.24-.01-.12-.75.03-.72.19h-.02Z"/><path class="cls-6" d="m322.3,758.91c.27,9.38,1.18,18.95-1.03,28.16-1.1,4.57-2.82,8.95-5.02,13.11-1.1,2.09-2.28,4.14-3.24,6.3s-1.78,4.47-2.59,6.74c-.14.39.58.39.69.08.86-2.42,1.72-4.84,2.79-7.17.98-2.14,2.17-4.19,3.26-6.28,2.05-3.93,3.66-8.08,4.74-12.39,2.33-9.36,1.41-19.07,1.14-28.6-.01-.38-.74-.27-.73.05h-.01Z"/><path class="cls-6" d="m310.57,812.74c-.39,1.37-1.06,2.64-1.48,4-.38,1.22-.66,2.47-.85,3.73-.41,2.7-.46,5.43-.51,8.15,0,.37.73.26.73-.06.05-2.72.1-5.46.51-8.15.21-1.41.52-2.8.99-4.15.42-1.21,1-2.35,1.35-3.58.09-.33-.65-.25-.73.06h0Z"/><path class="cls-6" d="m307.63,827.21c-.15,5.36-.04,10.73.31,16.08.02.29.75.13.72-.19-.35-5.31-.45-10.63-.31-15.95,0-.35-.72-.22-.73.07h.01Z"/><path class="cls-6" d="m307.83,841.7c.1,5.64.47,11.28,1.11,16.88.03.3.76.13.72-.19-.63-5.57-1-11.16-1.1-16.76,0-.36-.74-.23-.73.07h0Z"/><path class="cls-6" d="m308.81,856.29c-.19,3.93-.03,7.87.47,11.78.01.11.75-.03.72-.19-.5-3.91-.66-7.85-.47-11.78,0-.08-.72,0-.72.19h0Z"/><path class="cls-6" d="m309.07,865.23c.32,6.73.59,13.46.79,20.19,0,.11.73,0,.72-.19-.2-6.73-.46-13.46-.79-20.19,0-.11-.73,0-.72.19h0Z"/><path class="cls-6" d="m309.78,884.52c.03,2.76.33,5.51.9,8.21.06.27.78.09.72-.19-.56-2.66-.86-5.37-.89-8.09,0-.33-.73-.18-.73.08h0Z"/><path class="cls-6" d="m310.64,893.07c2.2,1.86,4.96,2.66,7.75,3.16,3.28.6,6.62.92,9.96.98,6.54.13,13.08-.76,19.36-2.57.42-.12.37-.34-.06-.22-6.27,1.81-12.78,2.66-19.3,2.49-3.14-.08-6.28-.39-9.37-.96-2.76-.5-5.49-1.29-7.66-3.13-.15-.12-.79.16-.68.25h0Z"/><path class="cls-6" d="m347.07,895.04c.76-.06,1.49-.41,1.96-1.02.59-.76.61-1.81.71-2.72.24-2.24.3-4.49.2-6.73-.01-.28-.74-.12-.72.19.08,1.88.05,3.76-.11,5.63-.12,1.43-.02,4.01-1.96,4.18-.38.03-.58.51-.08.47h0Z"/><path class="cls-6" d="m350,884.53c0-5.16.17-10.32.5-15.48.02-.37-.71-.27-.73.06-.33,5.15-.49,10.31-.5,15.48,0,.38.73.27.73-.06h0Z"/><path class="cls-6" d="m350.57,868.89v-7.19c0-.15-.72-.03-.72.19v7.19c0,.15.72.03.72-.19h0Z"/><path class="cls-6" d="m350.21,862.74c.28-8.55.81-17.09,1.58-25.61.03-.32-.7-.19-.73.08-.77,8.52-1.3,17.06-1.58,25.61-.01.32.72.18.73-.08h0Z"/><path class="cls-6" d="m351.7,839.54c.44-4.24.77-8.49.98-12.74.02-.32-.71-.18-.73.08-.22,4.26-.55,8.51-.98,12.74-.03.31.7.19.73-.08h0Z"/><path class="cls-6" d="m352.73,827.44c.39-6.03-1.44-11.83-3.29-17.48-.08-.24-.8-.04-.72.19,1.83,5.62,3.68,11.4,3.29,17.39-.02.28.71.14.72-.1h0Z"/><path class="cls-6" d="m349.4,810.79c.12-1.97-1.36-3.8-2.3-5.41-1.14-1.95-2.29-3.89-3.45-5.83-.13-.22-.82.03-.72.19,1.13,1.87,2.24,3.75,3.34,5.63.53.9,1.07,1.79,1.58,2.7s.9,1.8.84,2.81c-.02.27.71.12.72-.1h0Z"/><path class="cls-6" d="m344.34,800.7c-1.42-1.84-2.62-3.66-3.23-5.93s-1.08-4.64-1.6-6.96c-.06-.27-.79-.08-.72.19.54,2.39,1,4.82,1.67,7.19.62,2.22,1.84,4,3.22,5.8.16.21.86-.05.67-.29h-.01Z"/><path class="cls-6" d="m339.65,788.46c-1.07-2.87-1.66-5.89-1.76-8.95,0-.24-.73-.09-.72.19.1,3.06.69,6.08,1.76,8.95.1.26.81.05.72-.19h0Z"/><path class="cls-6" d="m337.32,757.88c-.22,7.48-.28,14.96-.16,22.43,0,.14.73.02.72-.19-.12-7.48-.07-14.96.16-22.43,0-.13-.72-.03-.72.19h0Z"/><path class="cls-6" d="m322.15,758.39c5.07.61,10.24,1.13,15.26-.11.44-.11.34-.47-.1-.36-4.83,1.2-9.84.67-14.72.08-.23-.03-.85.34-.44.39h0Z"/><path class="cls-6" d="m322.46,757.92c-.51-.67-1.39-1.96-.35-2.65.63-.41,1.77-.27,2.49-.31,1.75-.09,3.5-.16,5.25-.18s3.47.03,5.19.19c.88.08,1.78.16,2.64.34,1.54.32.68,1.62-.09,2.25-.32.26.4.25.58.11.58-.47,1.37-1.18,1.07-2.03-.28-.79-1.43-.77-2.1-.86-2.54-.35-5.11-.43-7.67-.38-1.3.02-2.6.07-3.9.13-1,.05-2.08,0-3.06.23-.55.13-1.14.37-1.42.89-.49.88.18,1.85.71,2.54.14.19.84-.06.67-.28h0Z"/><path class="cls-6" d="m323.83,754.25c-.72-3.41-1.39-6.83-2.03-10.26-.07-.4-.29-.97-.25-1.37-.09-.23-.02-.42.21-.57.09-.3.29-.44.59-.4.8-.28,1.89-.23,2.73-.29,1.74-.12,3.49-.13,5.23-.07s3.33.17,4.99.3c.46.04.92.08,1.37.12.31.03,1.12-.05,1.37.12.92.61.22,1.92.02,2.74-.81,3.31-1.38,6.66-1.72,10.05-.03.31.7.18.73-.08.32-3.16.84-6.29,1.56-9.39.18-.77.38-1.54.58-2.31.11-.42.3-.89-.09-1.22-.36-.3-1.06-.26-1.49-.29-.8-.07-1.6-.14-2.41-.2-3.12-.25-6.25-.41-9.38-.24-1.36.07-3.01.04-4.3.5-1.01.37-.77,1.24-.61,2.1.67,3.66,1.39,7.3,2.16,10.94.06.27.78.09.72-.19h.02Z"/><path class="cls-6" d="m181.15,125.48c-1.21,8.69-2.78,17.36-4.85,25.89-.24.98-.49,2-1.03,2.87-.58.94-1.46,1.59-2.3,2.27-1.31,1.06-2.4,2.29-3.22,3.76-1.62,2.89-2.2,6.26-2.31,9.54-.16,4.9.62,9.8-.03,14.69-.03.26.69.13.72-.1,1.02-7.71-1.63-16.06,1.89-23.36.85-1.76,2.02-3.21,3.53-4.44,1.39-1.13,2.51-2.18,3.09-3.93.65-1.97,1.01-4.07,1.46-6.1.47-2.13.91-4.26,1.32-6.4.95-4.91,1.77-9.85,2.46-14.8.04-.26-.69-.13-.72.1h-.01Z"/><path class="cls-6" d="m167.24,184.51c.21,16.2.56,32.39,1.06,48.58,0,.34.74.21.73-.07-.5-16.19-.86-32.38-1.06-48.58,0-.34-.73-.21-.73.07h0Z"/><path class="cls-6" d="m168.73,233.46c-1.95,4.89,1.93,9.6,6.44,11.07,6.11,1.99,12.47-.29,18.67-.39,2.73-.04,5.55.17,8.2-.66,2.19-.69,3.98-2.11,5.2-4.04,2.93-4.64,2.88-10.96,3.15-16.24.4-7.93.18-15.88-.62-23.78-.03-.33-.76-.15-.72.19.65,6.38.91,12.79.78,19.19-.07,3.13-.23,6.26-.49,9.38-.2,2.39-.43,4.78-1.06,7.1s-1.6,4.45-3.36,6.01c-2.19,1.94-5.09,2.26-7.9,2.3s-5.49.08-8.24.44c-2.99.39-6,.91-9.03.74s-6.28-1.05-8.44-3.33c-1.98-2.09-2.97-5.16-1.87-7.91.15-.38-.57-.38-.69-.08h-.02Z"/><path class="cls-6" d="m209.3,204.04c.8-14.25,1.56-28.95-2.34-42.85-1.06-3.8-2.5-7.47-4.31-10.97-.15-.29-.84-.02-.66.32,8.5,16.45,7.57,35.61,6.57,53.55-.02.38.72.29.73-.05h0Z"/><path class="cls-6" d="m204.06,152.26c-.77-1.99-2.47-3.4-3.29-5.4s-1.17-4.29-1.6-6.45c-1.01-5.03-1.98-10.07-2.91-15.11-.06-.31-.78-.13-.72.19.93,5.04,1.9,10.08,2.91,15.11.43,2.16.77,4.4,1.6,6.45s2.53,3.41,3.29,5.4c.12.31.84.1.72-.19h0Z"/><path class="cls-6" d="m181.15,125.31c-1.44-2.04-1.04-5.21.97-6.74.39-.3-.21-.47-.47-.27-2.2,1.68-2.79,5.03-1.17,7.32.17.23.86-.03.67-.3h0Z"/><path class="cls-6" d="m182.32,118.39l5.48-.66c1.74-.21,3.58-.59,5.33-.3,1.56.26,3.03,1.17,3.48,2.76s-.07,3.3-.56,4.81c-.13.39.59.38.69.08.51-1.54,1.02-3.24.65-4.87s-1.6-2.61-3.08-3.08c-1.77-.56-3.67-.26-5.47-.04l-6.47.78c-.4.05-.56.58-.07.52h.02Z"/><path class="cls-6" d="m182.5,125.47c-.15.99,1.35.92,1.91.6s1.11-1.28,1.8-.71c.41.34.64.84,1.04,1.19.68.59,1.57.33,2.08-.34.21-.27.48-1.05.82-1.16.27-.09.89.67,1.07.85.36.35.71.7,1.07,1.05.17.17.56.06.67-.13.53-.86,1.27-1.48,2.23-1.82.47-.17.05-.46-.3-.34-1.1.39-2,1.13-2.61,2.12l.67-.13c-.61-.6-1.21-1.34-1.9-1.84-.32-.23-.69-.3-1.07-.17s-.63.44-.85.78c-.2.31-.51,1.13-.97.99-.43-.12-.74-.75-1.02-1.07s-.61-.59-1.05-.64c-.5-.06-.95.16-1.33.46-.26.2-.55.59-.87.68s-.72-.07-.67-.44c.05-.31-.69-.19-.73.08h0Z"/><path class="cls-6" d="m170.41,229.74c.92,7.17,8.7,10.79,14.98,7.58,1.65-.85,3.09-2.05,4.72-2.94,2.04-1.12,4.37-1.63,6.69-1.56,3.68.1,7.22,1.54,9.87,4.11.13.12.78-.15.68-.24-4.45-4.33-11.5-5.35-17.08-2.67-1.64.79-3.05,1.95-4.62,2.86-2.33,1.37-4.96,1.76-7.57,1.01-3.79-1.09-6.45-4.49-6.94-8.34-.02-.12-.75.02-.72.19h0Z"/><path class="cls-6" d="m235.42,121.6c-1.21,8.69-2.78,17.36-4.85,25.89-.24.98-.5,1.98-1.03,2.85-.64,1.03-1.66,1.7-2.56,2.46-1.2,1.01-2.19,2.21-2.96,3.57-1.62,2.89-2.2,6.29-2.31,9.56-.16,4.9.62,9.8-.03,14.69-.05.36.69.27.73-.06,1.03-7.79-1.69-16.29,2.03-23.62.89-1.76,2.13-3.11,3.66-4.34,1.43-1.15,2.39-2.31,2.92-4.09,1.17-3.96,1.89-8.12,2.68-12.17.95-4.91,1.77-9.85,2.46-14.8.05-.36-.69-.27-.73.06h0Z"/><path class="cls-6" d="m221.51,180.64c.21,16.2.56,32.39,1.06,48.58,0,.4.75.3.74-.05-.5-16.19-.86-32.38-1.06-48.58,0-.4-.74-.3-.74.05h0Z"/><path class="cls-6" d="m223.01,229.6c-1.95,4.89,1.93,9.61,6.45,11.08,6.11,1.99,12.47-.29,18.67-.39,2.73-.04,5.55.17,8.2-.66,2.19-.69,3.98-2.11,5.2-4.05,2.93-4.64,2.88-10.96,3.15-16.24.4-7.93.18-15.88-.63-23.78-.03-.34-.76-.16-.72.19.65,6.38.91,12.78.78,19.19-.07,3.13-.23,6.26-.49,9.38-.2,2.39-.43,4.78-1.06,7.1s-1.64,4.53-3.45,6.09c-2.18,1.87-5.05,2.18-7.81,2.22s-5.49.08-8.24.44c-2.99.39-6,.91-9.03.74s-6.28-1.04-8.44-3.33c-1.98-2.09-2.96-5.15-1.87-7.9.16-.39-.57-.39-.69-.09h-.02Z"/><path class="cls-6" d="m263.57,200.12c1.01-17.99,1.91-37.19-6.61-53.69-.08-.16-.77.1-.72.19,8.52,16.5,7.61,35.69,6.61,53.69,0,.08.71,0,.72-.19h0Z"/><path class="cls-6" d="m258.33,148.41c-.77-1.99-2.47-3.4-3.29-5.4s-1.17-4.29-1.6-6.45c-1.01-5.03-1.98-10.07-2.91-15.11-.06-.34-.79-.15-.72.19.93,5.04,1.9,10.08,2.91,15.11.43,2.16.77,4.4,1.6,6.45s2.53,3.41,3.29,5.4c.13.33.85.13.72-.19h0Z"/><path class="cls-6" d="m235.45,121.51c-1.48-2.1-1.08-5.34.99-6.92.12-.09.09-.14-.04-.17-.15-.03-.4.05-.51.14-2.14,1.64-2.73,4.91-1.15,7.14.13.18.79-.11.72-.19h0Z"/><path class="cls-6" d="m236.57,114.42l5.62-.68c1.82-.22,3.77-.62,5.59-.17,1.52.38,2.81,1.4,3.18,2.98s-.14,3.21-.63,4.7c-.05.16.65.07.72-.12.52-1.56,1.05-3.34.58-4.98-.43-1.52-1.77-2.49-3.25-2.86-1.7-.43-3.49-.14-5.21.07l-6.47.78c-.3.04-.64.35-.13.29h0Z"/><path class="cls-6" d="m236.77,121.62c-.15,1,1.35.93,1.92.6s1.11-1.28,1.8-.71c.41.34.64.84,1.04,1.19.68.59,1.57.33,2.08-.34.21-.28.47-1.04.81-1.16.26-.1.9.67,1.08.85.36.35.71.7,1.07,1.05.17.17.56.07.68-.13.53-.86,1.28-1.47,2.23-1.82.47-.17.05-.48-.3-.35-1.1.39-2,1.13-2.61,2.13l.68-.13c-.61-.6-1.21-1.34-1.9-1.84-.32-.23-.69-.31-1.07-.18s-.63.44-.85.78c-.2.31-.51,1.12-.97.99-.43-.12-.74-.75-1.02-1.07s-.61-.59-1.05-.64c-.53-.06-1,.19-1.4.51-.24.19-.51.54-.81.62s-.72-.06-.66-.43c.05-.32-.69-.2-.73.08h-.02Z"/><path class="cls-6" d="m224.68,225.89c.92,7.17,8.7,10.8,14.98,7.59,1.65-.85,3.09-2.05,4.72-2.94,2.04-1.12,4.37-1.62,6.69-1.56,3.68.09,7.23,1.54,9.87,4.11.13.12.78-.15.68-.24-4.45-4.33-11.51-5.36-17.08-2.67-1.64.79-3.05,1.95-4.62,2.86-2.33,1.37-4.96,1.76-7.57,1.01-3.79-1.09-6.45-4.49-6.94-8.34-.02-.12-.75.02-.72.19h0Z"/><path class="cls-6" d="m289.53,117.76c-1.21,8.69-2.78,17.36-4.85,25.89-.24.98-.5,1.99-1.03,2.86-.58.94-1.46,1.58-2.3,2.26-1.31,1.06-2.4,2.3-3.22,3.77-1.62,2.89-2.2,6.28-2.31,9.55-.16,4.9.62,9.8-.03,14.69-.04.32.69.2.73-.08,1.03-7.8-1.7-16.3,2.03-23.63.89-1.75,2.13-3.13,3.65-4.35,1.31-1.05,2.29-2.12,2.82-3.74,1.32-4,1.98-8.36,2.78-12.5.95-4.91,1.77-9.85,2.46-14.8.04-.32-.69-.2-.73.08h0Z"/><path class="cls-6" d="m275.63,176.86c.21,16.2.56,32.39,1.06,48.58,0,.1.73,0,.72-.19-.5-16.19-.86-32.38-1.06-48.58,0-.1-.73,0-.72.19h0Z"/><path class="cls-6" d="m277.12,225.75c-1.95,4.89,1.93,9.62,6.45,11.09,6.11,1.99,12.47-.29,18.67-.38,2.73-.04,5.56.17,8.2-.66,2.19-.69,3.98-2.11,5.2-4.05,2.93-4.65,2.88-10.96,3.15-16.24.4-7.93.18-15.88-.63-23.78-.04-.35-.76-.17-.72.19.65,6.37.91,12.78.77,19.19-.07,3.13-.23,6.26-.49,9.38-.2,2.48-.45,4.97-1.14,7.37-.63,2.17-1.64,4.32-3.38,5.82-2.18,1.87-5.05,2.17-7.81,2.22s-5.49.08-8.24.44c-2.99.39-6,.91-9.03.74s-6.28-1.04-8.44-3.32c-1.98-2.09-2.96-5.15-1.87-7.9.16-.39-.57-.41-.7-.09h0v-.02Z"/><path class="cls-6" d="m317.68,196.26c1.01-17.99,1.91-37.19-6.61-53.69-.08-.16-.77.1-.72.19,8.52,16.5,7.61,35.69,6.61,53.69,0,.08.71,0,.72-.19h0Z"/><path class="cls-6" d="m312.45,144.56c-.77-1.99-2.48-3.4-3.29-5.4s-1.17-4.29-1.6-6.45c-1.01-5.03-1.98-10.07-2.91-15.11-.05-.28-.78-.1-.72.19.93,5.04,1.9,10.08,2.91,15.11.43,2.16.77,4.4,1.6,6.45s2.52,3.41,3.29,5.4c.11.28.83.07.72-.19h0Z"/><path class="cls-6" d="m289.54,117.59c-1.45-2.04-1.02-5.18.98-6.71.39-.3-.2-.54-.48-.33-2.21,1.69-2.78,5.07-1.16,7.35.19.26.88,0,.66-.32h0Z"/><path class="cls-6" d="m290.69,110.61l5.62-.68c1.77-.21,3.66-.61,5.44-.22,1.57.35,2.94,1.36,3.32,2.99s-.14,3.21-.63,4.69c-.07.22.65.13.72-.1.52-1.57,1.05-3.34.58-4.99-.43-1.5-1.73-2.47-3.19-2.86-1.72-.47-3.54-.18-5.29.03l-6.47.78c-.34.04-.61.43-.11.37h.01Z"/><path class="cls-6" d="m290.88,117.75c-.15,1.02,1.34.99,1.93.65.53-.31,1.08-1.25,1.75-.76.43.32.67.84,1.06,1.2.7.65,1.6.38,2.12-.35.2-.27.45-1.01.79-1.12.3-.1.88.64,1.07.83.36.35.71.7,1.07,1.05.2.19.54.11.68-.12.5-.82,1.24-1.44,2.14-1.76.43-.15.31-.66-.13-.5-1.15.41-2.06,1.14-2.7,2.18l.68-.12c-.6-.59-1.18-1.23-1.82-1.78-.33-.28-.74-.41-1.16-.26-.39.14-.63.46-.84.8-.2.31-.49,1.07-.95.99s-.77-.75-1.04-1.06-.6-.6-1.04-.66c-.54-.08-1.02.18-1.42.51-.24.2-.5.53-.81.62-.28.08-.7-.02-.65-.38s-.69-.27-.73.05h0Z"/><path class="cls-6" d="m278.8,222.03c.93,7.27,8.97,11.07,15.3,7.55,1.68-.94,3.17-2.2,4.91-3.04s3.71-1.28,5.66-1.32c3.84-.08,7.63,1.35,10.39,4.03.23.22.91-.07.66-.32-4.5-4.38-11.73-5.54-17.35-2.65-1.73.9-3.23,2.19-4.96,3.08-2.05,1.05-4.4,1.35-6.65.8-3.94-.96-6.73-4.38-7.24-8.34-.04-.32-.77-.15-.72.19h0v.02Z"/><path class="cls-6" d="m629.9,197.61c3.39-10.8,6.72-21.62,10.17-32.39,2.81-8.79,6.52-18.65,15.3-23.06,4.2-2.11,9.33-2.82,13.69-.78,2.2,1.03,3.85,2.79,5.79,4.19,1.78,1.28,3.8,2.15,5.92,2.7,4.3,1.11,8.81.95,13.21.85,2.25-.06,4.85-.38,6.94.67s2.48,3.26,1.37,5.15c-1.82,3.1-6.14,2.94-9.28,3.22s-6.39.57-9.58.85c-6.39.57-12.78,1.13-19.17,1.7-.2.02-.78.36-.31.31,6.31-.56,12.61-1.12,18.92-1.68,3.19-.28,6.39-.57,9.58-.85,2.38-.21,4.92-.24,7.19-1.07,1.78-.65,3.42-1.94,3.88-3.87s-.56-3.45-2.26-4.18c-1.86-.8-3.99-.65-5.97-.61-2.76.06-5.53.17-8.3,0s-5.37-.55-7.88-1.52c-2.64-1.03-4.58-2.81-6.79-4.51-3.4-2.62-7.62-3.38-11.81-2.61-9.76,1.8-15.55,10.05-18.95,18.75-2.33,5.96-4.05,12.18-5.96,18.29-2.15,6.85-4.3,13.7-6.45,20.55-.05.16.66.07.72-.12h.03Z"/><path class="cls-6" d="m704.09,147.93c.02-2.13,1.03-4.07,2.67-5.42.85-.7,1.86-1.23,2.93-1.48.94-.22,2.52-.57,2.79.61,1.04,4.49-4.34,7.86-7.69,9.54l.47.33c6.26-6.22,14.53-13.94,24.12-12.74,1.25.16,2.16.62,2.34,1.98.15,1.12-.31,2.26-.85,3.21-1.16,2.08-3.02,3.58-4.77,5.15-3.5,3.13-7.05,6.22-10.76,9.1-7.39,5.74-15.55,10.7-24.73,12.87-7.57,1.79-15.86,1.98-22.81,5.8-3.71,2.04-6.59,5.18-8.17,9.13-1.86,4.64-2.04,9.74-2.06,14.68,0,.38.73.28.73-.05.01-4.81.18-9.81,1.95-14.35,1.66-4.27,4.82-7.52,8.92-9.51,7.8-3.79,16.87-3.56,25.05-6.15,9.08-2.88,17.08-8.32,24.39-14.31,3.69-3.02,7.52-6.1,10.86-9.51,1.31-1.34,2.58-3.06,2.93-4.94.14-.74.1-1.52-.22-2.21-.42-.89-.86-1.15-1.78-1.31-10.21-1.8-19.1,6.33-25.75,12.94-.29.29.26.43.47.33,2.45-1.23,4.92-2.79,6.63-4.97.71-.9,1.29-1.93,1.5-3.07.13-.68.27-2.59-.39-3.05s-2.23-.21-2.98-.07c-1.15.23-2.25.73-3.2,1.41-1.98,1.43-3.3,3.66-3.32,6.12,0,.38.73.28.73-.05h0Z"/><path class="cls-6" d="m682.65,19.44c-1.21,8.69-2.78,17.36-4.85,25.89-.24.98-.49,2-1.03,2.86-.58.94-1.46,1.59-2.3,2.27-1.31,1.06-2.4,2.29-3.22,3.76-1.62,2.89-2.2,6.27-2.31,9.55-.16,4.9.62,9.8-.03,14.69-.04.29.69.16.73-.09,1.03-7.81-1.67-16.28,2.03-23.64.82-1.64,1.97-3,3.39-4.15s2.51-2.19,3.09-3.94c.65-1.97,1.01-4.07,1.46-6.1.47-2.13.91-4.26,1.32-6.4.95-4.91,1.77-9.85,2.46-14.8.04-.29-.69-.16-.73.09h-.01Z"/><path class="cls-6" d="m668.74,78.54c.21,16.2.56,32.39,1.06,48.58,0,.21.73.07.72-.19-.5-16.19-.86-32.38-1.06-48.58,0-.21-.73-.07-.72.19h0Z"/><path class="cls-6" d="m670.23,127.43c-1.95,4.89,1.93,9.61,6.45,11.08,6.11,1.99,12.47-.29,18.67-.39,2.73-.04,5.55.17,8.2-.66,2.19-.69,3.98-2.11,5.2-4.04,2.93-4.64,2.88-10.96,3.15-16.24.4-7.93.18-15.88-.62-23.78-.03-.33-.76-.16-.72.19.65,6.38.91,12.78.78,19.19-.07,3.13-.23,6.26-.49,9.38-.2,2.39-.43,4.78-1.06,7.1s-1.64,4.54-3.45,6.09c-2.18,1.87-5.05,2.18-7.81,2.22s-5.49.08-8.24.44c-2.99.39-6,.91-9.03.74s-6.28-1.04-8.44-3.33c-1.98-2.09-2.96-5.15-1.87-7.91.15-.39-.57-.39-.69-.09h-.03Z"/><path class="cls-6" d="m710.8,98.01c.8-14.25,1.56-28.95-2.34-42.85-1.06-3.8-2.5-7.47-4.31-10.98-.16-.3-.84-.02-.66.33,8.49,16.45,7.57,35.61,6.57,53.55-.02.39.72.3.74-.05h0Z"/><path class="cls-6" d="m705.56,46.23c-.77-1.99-2.48-3.4-3.29-5.4s-1.17-4.29-1.6-6.45c-1.01-5.03-1.98-10.07-2.91-15.11-.04-.21-.77-.04-.72.19.93,5.04,1.9,10.08,2.91,15.11.43,2.16.77,4.4,1.6,6.45s2.52,3.41,3.29,5.4c.09.22.8,0,.72-.19h0Z"/><path class="cls-6" d="m682.65,19.28c-1.44-2.04-1.05-5.23.96-6.77.39-.3-.22-.42-.46-.24-2.2,1.68-2.8,5.01-1.18,7.29.15.21.85-.04.67-.29h.01Z"/><path class="cls-6" d="m683.8,12.29l5.62-.68c1.77-.21,3.66-.61,5.44-.22,1.57.35,2.94,1.36,3.32,2.99s-.15,3.21-.63,4.69c-.07.23.65.13.72-.1.52-1.57,1.05-3.35.58-4.99-.43-1.5-1.73-2.47-3.19-2.87-1.72-.47-3.54-.18-5.29.03l-6.47.78c-.34.04-.61.43-.11.37h0Z"/><path class="cls-6" d="m683.99,19.42c-.16,1.05,1.39,1,1.98.63s1.09-1.26,1.79-.66c.39.33.62.81,1,1.15.73.65,1.62.32,2.13-.42.17-.24.47-1.05.79-1.09s.89.71,1.08.89c.36.35.71.7,1.07,1.05.18.18.52,0,.63-.17.5-.81,1.24-1.44,2.14-1.76.43-.15.3-.68-.14-.52-1.15.41-2.06,1.14-2.7,2.18l.63-.17c-.6-.59-1.18-1.26-1.84-1.79-.34-.27-.78-.36-1.19-.18-.36.16-.58.5-.78.82s-.5,1.07-.98.93c-.41-.13-.71-.73-.98-1.04-.29-.34-.64-.63-1.1-.68-.51-.06-.98.2-1.36.52-.25.21-.49.52-.81.62-.28.08-.7,0-.65-.36.06-.38-.68-.29-.74.05h.03Z"/><path class="cls-6" d="m671.91,123.71c.91,7.13,8.71,10.89,14.99,7.64,1.73-.9,3.23-2.18,4.96-3.08,1.89-.98,4.03-1.44,6.16-1.44,3.77,0,7.43,1.45,10.14,4.08.17.16.85-.11.68-.27-4.44-4.32-11.52-5.42-17.09-2.71-1.74.85-3.22,2.11-4.91,3.04-2.23,1.23-4.8,1.56-7.26.86-3.79-1.08-6.44-4.46-6.93-8.31-.03-.21-.76-.05-.72.19h-.02Z"/></svg>