<?xml version="1.0" encoding="UTF-8"?><svg id="Layer_3" xmlns="http://www.w3.org/2000/svg" viewBox="0 0 645.84 614.68"><defs><style>.cls-1{fill:none;stroke:#ff1054;stroke-miterlimit:10;stroke-width:2px;}</style></defs><path class="cls-1" d="m192.2,257.53c-10.21-8.87-76.88-70.94-74.21-75.78C139.32,143.21,237.98,4.37,303.72,4.37c16.57,0,25.22.52,41.18,3.45,23.15,4.25,82.99,34.66,63.15,38.26-8.71,1.58-33.04,4.15-43.78,6.75-33.27,8.05-57.36,37.06-70.3,55.29-26.14,36.86-97.78,152.86-101.76,149.4Z"/><path class="cls-1" d="m317.05,455.47c-1.12,13.48-11.82,103.94-17.3,104.64-43.7,5.56-214,7.99-252.84-45.06-9.79-13.37-14.48-20.65-21.54-35.26-10.24-21.19-21.07-87.43-6.44-73.55,6.42,6.09,22.87,24.2,31.32,31.34,26.15,22.09,63.79,24.39,86.15,24.05,45.19-.68,181.1-11.41,180.66-6.15Z"/><path class="cls-1" d="m439.77,267.93c11.88-6.48,93.31-47.3,96.91-43.1,28.67,33.44,124.36,174.34,101.42,235.95-5.78,15.53-9.29,23.45-17.6,37.38-12.06,20.21-61.44,65.68-57.89,45.83,1.56-8.71,7.64-32.41,8.95-43.39,4.07-33.99-14.71-66.69-27.29-85.18-25.42-37.36-109.13-144.98-104.49-147.5Z"/><path class="cls-1" d="m168.87,252.38c-2.02-2.02-105.64-12.37-117.66-13.87-9.35-1.16,24.99,25.81,22.05,30.54-5.63,9.05-46.39,74.82-53.9,86.91s72,81.33,81.08,69.91c4.56-5.74,60.84-80.7,66.22-87.48,2.48-3.11,24.21,25.04,23.01,19.75-2.02-8.93-19.1-104.06-20.79-105.76Z"/><path class="cls-1" d="m483.12,230.62c2.51-1.37,41.72-97.84,46.56-108.94,3.76-8.64-31.82,16.67-35.52,12.52-7.09-7.96-58.66-65.65-68.13-76.27-9.66-10.83-98.37,46.08-89.98,58.01,4.22,6,60.22,81.16,65.2,88.25,2.29,3.25-30.86,16.14-25.45,16.49,9.14.58,105.22,11.09,107.33,9.94Z"/><path class="cls-1" d="m338.57,504.94c-.5,2.81,50.17,93.79,55.81,104.51,4.39,8.34,6.92-35.25,12.47-35.54,10.65-.55,87.91-4.65,102.13-5.38,14.49-.75,25.65-105.55,11.09-106.48-7.32-.47-100.99-3.86-109.63-4.41-3.97-.25,6.73-34.17,3.08-30.17-6.17,6.76-74.52,75.1-74.95,77.47Z"/></svg>