<?xml version="1.0" encoding="UTF-8"?>
<svg id="Layer_2" data-name="Layer 2" xmlns="http://www.w3.org/2000/svg" viewBox="0 0 1513 843">
  <defs>
    <style>
      .cls-1 {
        fill: none;
      }

      .cls-1, .cls-2, .cls-3, .cls-4, .cls-5 {
        stroke-miterlimit: 10;
      }

      .cls-1, .cls-3, .cls-4, .cls-5 {
        stroke: #ff1054;
      }

      .cls-1, .cls-4, .cls-5 {
        stroke-width: 3px;
      }

      .cls-6, .cls-4 {
        fill: #ed2157;
      }

      .cls-7, .cls-3, .cls-5 {
        fill: #fff;
      }

      .cls-8, .cls-2 {
        fill: #ff1054;
      }

      .cls-2 {
        stroke: #ed2157;
      }
    </style>
  </defs>
  <rect class="cls-2" x=".5" y=".5" width="1512" height="842"/>
  <path class="cls-7" d="M122.89,477.72l18.15-8.69,3.11,1.04,3.39-2.2,3.48,1.04,1.43,1.3,2.2-1.43-.32-.32,5.29-2.74h.4l1.08,.68,.32,.68,.1,.6-.78,.88-3.42,1.86-.98,.34-.46-.26-1.02,.68-.74,.55,3.24,4.72,1.48-.88-.02-.3,4.91-2.62,.94,.22,.86,.84v1.14l-.96,.94-3.54,1.94-.62,.2-.38-.22-1.12,.8-.18,.14,.98,1.98-1.2,4.19-3.44,1.88-.2,.16-.34,3.87-.66,.9-4.7,2.6-13.34,6.98-1.66,.34-2.35-.56-3.51-2.69-2.54-3.1-.34-.25-2.41,1.41-1.44-.69-.28-.16c-6.08,1.57-10.37,6.53-10.66,12-.33,6.31,4.82,10.46,5.06,10.65,1.91,1.49,3.83,2.01,7.21,2.94,3.75,1.03,6.83,1.28,8.26,1.32,7.05,.22,13.28-1.68,16.8-2.99,2.23-.9,5.21-2.38,8.3-4.82,2.79-2.21,4.79-4.5,6.15-6.32,.17-.35,.79-1.69,.35-3.37-.48-1.83-1.86-2.73-2.16-2.91-1.17-.37-2.33-.73-3.5-1.1-4.17-.19-16.18-.32-26.37,5.77-1.37,.82-6.06,3.76-9.74,9.24-2.79,4.16-2.54,6.13-2.46,6.62,.79,4.93,8.27,6.86,8.58,6.94,2.12,.84,4.5,1.58,7.14,2.09,12.73,2.44,23.55-2.06,28.81-4.76l5.45-3.89c2.06-2,4.11-4.01,6.17-6.01-.12-.11-.4-.42-.51-.92-.1-.47,.01-.85,.07-1.01,.22-.41,.55-1,1.01-1.7,.94-1.44,3.55-5.45,5.48-4.96,.24,.06,.58,.22,.93,.69,.59-.63,1.19-1.26,1.78-1.89l2.56,2.34-1.78,1.67c.1,.22,.2,.54,.2,.93-.02,1.01-.78,1.72-1.79,2.64-1.52,1.38-2.56,2.31-3.19,2.88-.09,.1-.63,.71-1.54,.74-.9,.03-1.48-.53-1.57-.63l-4.34,5.23-5.12,4.12c-2.31,1.65-5.98,3.94-10.91,5.62-2.09,.71-12.53,4.07-25.12,.47-5.97-1.71-11.59-3.32-13.25-8.15-1.63-4.76,1.6-9.71,2.54-11.07,.89-1.23,2.28-2.98,4.24-4.8,10.7-9.95,25.16-9.92,28.95-9.91,2.16,0,4.79,.15,7.76,.64,2.4,1.14,3.27,2.65,3.58,3.33,1.64,3.56-.44,8.97-5.69,12.64-3.11,2.23-8.61,5.55-16.21,7.18-9.48,2.04-17.29,.38-21.18-.72-1.46-.17-5.42-.85-8.84-4.09-2.14-2.03-3.21-4.25-3.73-5.59-.49-1.32-1.07-3.51-.8-6.16,.6-5.74,4.75-9.13,5.69-9.86,1.48-1,2.97-2,4.45-3l1-.89-.67-1.56,2.23-1.45,1.11-.78-1.7-7.77,1.02-2.59,1.54-.78Z"/>
  <g>
    <circle class="cls-5" cx="219.34" cy="696.33" r="39.26"/>
    <path class="cls-4" d="M183.62,682.49c.07,.35,19.17-6.68,36.82-.34,24.02,8.63,29.22,36.23,30.03,35.97,.79-.26-1.65-27.94-25.92-37.32-19.45-7.52-41.01,1.32-40.93,1.69Z"/>
    <path class="cls-4" d="M182.43,709.25c-.04-.46,3.22-.25,7.03-2.14,4.43-2.19,4.09-4.48,7.55-6.42,4.3-2.42,10.82-2.26,15.26,.31,4.13,2.38,5.49,6.28,6.35,8.71,2.39,6.83-.87,9.42,1.37,17.43,1.21,4.31,3.21,7.36,2.92,7.49-.48,.21-3.73-2.92-4.97-7.18-.52-1.78-.41-4.18-.17-8.92,.31-6.14,.65-6.1,.25-7.57-1.23-4.52-5.16-7.32-6.56-8.32-1.91-1.36-3.26-1.8-3.79-1.95-2.49-.72-4.64-.4-5.72-.23-.62,.1-2.76,.48-5.05,1.8-1.66,.95-2.9,2.16-5.38,4.57-1.58,1.53-1.58,1.67-2.19,2.02-2.87,1.66-6.84,.9-6.89,.4Z"/>
    <path class="cls-4" d="M211.3,659.47c-.44,.01-1.25,2.62-.2,5.34,1.34,3.48,5.07,5.44,5.69,5.75,3.87,1.97,7.97,2.11,10.37,2.19,4.36,.15,4.73-.68,8.54-.68,8.34-.01,14.33,3.92,14.85,3.42,.29-.29-1.65-1.6-3.38-2.48-4.01-2.05-8.45-2.57-11.16-2.69-4.36-.19-4.32,.65-8.81,.41-2.65-.14-6.11-.31-9.22-1.93-2.9-1.51-4.12-3.56-4.92-4.9-1.52-2.56-1.39-4.45-1.76-4.44Z"/>
    <path class="cls-4" d="M211.63,733.29c.07-2.06-1.19-3.57-2.03-5.04-.52-.9-.98-2.69-1.91-6.25-1.84-7.07-3.01-11.53-3.16-17.51-.07-2.78-.15-7.63,1.46-13.39,1.12-4.01,2.58-6.73,4.8-10.86,1.98-3.69,3.28-6.11,5.64-8.84,3.6-4.18,7.29-6.34,8.14-6.82,4.14-2.35,7.81-2.99,7.73-4.04-.04-.52-.98-.81-1.27-.9-4.49-1.36-12.15,6.01-17.14,12.78-5.99,8.13-8.08,15.4-8.57,17.16-.21,.78-1.08,4.01-1.62,8.41-.69,5.6-.48,10.14-.29,12.67,.26,3.31,.7,5.51,1.49,9.49,0,0,1.69,8.47,5.08,13.42,.25,.37,.84,1.21,1.24,1.04,.36-.16,.39-1.08,.4-1.32Z"/>
  </g>
  <path class="cls-7" d="M694.65,495.96c-.38-.54-.36-1.22,0-1.65,.35-.41,.89-.41,.98-.41,2.73,.11,5.46,.22,8.19,.33,.05,0,1.27-.15,1.9,.72,.25,.35,.31,.72,.32,.93-.63,8.05-1.27,16.1-1.9,24.15-.53,.73-1.1,1.2-1.56,1.49-3.02,1.93-6.84,.14-7.27-.07-.34-.17-1.09-.61-1.66-1.5-.59-.92-.65-1.82-.65-2.2-.55,.04-1.09,.09-1.64,.13-.08-.07-.93-.75-1.02-.82-.05-.04-.72-.59-.77-.63,.09,.56,.17,1.12,.26,1.68l-.53,1.51-1.08-.33c-.94-1.29-2.85-4.29-3.19-8.57-.25-3.11,.44-5.6,.96-7.02-.43-3.08-.87-6.16-1.3-9.24-.19-3.37,0-8.83,2.76-14.58,.83-1.72,1.76-3.21,2.67-4.46-.08-.74-.15-1.49-.23-2.23l.48-1.59,2.34-3.12c1.82-2.37,4.8-5.58,9.3-8.05,10.82-5.93,21.9-2.94,24.59-2.14,2.79,.72,7.13,2.2,11.65,5.4,2.29,1.62,8.01,5.79,11.47,13.67,2.49,5.69,2.75,10.91,2.62,14.1-.01,.15-.1,.91-.76,1.46-.53,.44-1.11,.49-1.3,.5-.14,.31-.28,.61-.42,.92,.14,1.93,.11,4.34-.42,7.04-1.18,6.1-4.23,10.37-6.1,12.58-1.82,2-3.63,4.01-5.45,6.01-.91,2.06-2.64,5.17-5.83,7.9-1.28,1.09-2.54,1.91-3.67,2.52-.61,.33-1.22,.65-1.83,.98-.21,.16-.48,.19-.7,.07-.26-.14-.38-.48-.27-.78l.22-2.09-.75-.51-.9-.48c-.17,.31-.51,.82-1.11,1.19-.33,.21-.96,.5-2.12,.45-1.97-.09-6.27-1.23-7.25-4.51-.21-.71-.21-1.33-.19-1.69,4.07-7.12,8.14-14.25,12.21-21.37,.15-.12,.41-.29,.76-.38,.66-.17,1.22,.05,1.41,.13,2.16,1.21,4.32,2.43,6.49,3.64,.13,.1,.37,.32,.53,.67,.2,.44,.17,.83,.15,1-.21,.77-.42,1.54-.63,2.32,.14-.02,.97-.09,1.68,.5,.75,.63,.8,1.51,.8,1.64,.33-.55,.66-1.1,.99-1.65,.4-.41,.71-.58,.94-.5,.43,.15,.55,1.21,.34,3.18l-.13,1.56,1.67-1.94c1.12-1.24,2.35-2.85,3.43-4.87,2.63-4.95,2.94-9.68,2.88-12.35l-.07-.98c-.12,0-.9,.02-1.42-.58-.23-.27-.32-.56-.36-.74-.11-.68-.22-1.37-.33-2.05-.02-2.06-.34-12.19-8.3-19.28-3.39-3.02-6.99-4.44-9.4-5.13-2-.74-4.5-1.39-7.39-1.55-9.88-.56-17.19,4.94-19.58,6.92l-3.11,3.63-1.34,1.66-1.69,.77-1.02-.14c-1.23,1.49-2.64,3.52-3.75,6.13-2.61,6.16-2.01,11.83-1.53,14.54l.14,.99,.84-2.03c1.24-1.66,2.06-2.4,2.46-2.22,.26,.12,.35,.61,.27,1.49l-.14,1.19c.3-.26,.76-.59,1.38-.85,.82-.34,1.55-.39,2-.39Z"/>
  <polyline class="cls-7" points="485.46 645.79 503.66 632.92 499.43 626.27 495.77 619.98 491.81 615.79 485.64 607.33 481.91 603.38 477.67 596.96 462.08 576.11 449.52 571.19 448.48 570.2 449.31 569.41 445.7 565.45 436.74 572.98 439.32 576.27 440.7 575.89 441.13 576.93 442.14 588.89 459.13 611.31 463.45 616.06 466.37 621.13 472.51 629.27 476.44 635.24 484.77 645.06"/>
  <g>
    <path class="cls-3" d="M171.31,105.04c-.58,.24-1.42,.66-2.23,1.39-1.73,1.55-1.44,2.78-2.76,3.88-1.69,1.41-2.95,.06-5.05,1.37-2.03,1.27-1.33,2.83-3.41,4.28-2.09,1.46-3.38,.29-5.15,1.79-1.74,1.48-1.06,3.09-2.68,4.01-1.52,.85-2.43-.38-4.6,.37-1.81,.63-1.54,1.61-3.57,2.59-2.4,1.17-3.48,.13-5.05,1.37-1.44,1.14-.85,2.27-2.28,3.22-1.62,1.07-2.8-.09-4.41,.97-1.56,1.03-.97,2.46-2.41,3.3-1.67,.97-3.16-.53-5.12,.26-.88,.35-1.95,1.21-2.75,3.41-.53-1.79-1.48-4.56-3.22-7.66-1.81-3.22-3.61-5.27-4.49-6.32-6.43-7.63-5.4-10.95-12.79-21-3.44-4.68-4.14-4.6-7.76-9.82-2.95-4.25-5.03-7.96-6.34-10.47,1.66-.04,4.04-.36,6.11-1.91,2.07-1.55,1.86-2.86,3.92-4.37,2.85-2.08,4.42-.44,7.3-2.3,3.17-2.04,2.47-4.8,5.43-5.91,2.24-.84,3.26,.51,5.2-.57,2.13-1.19,1.33-3.06,3.5-4.7,2.38-1.8,4.45-.38,6.38-2.39,1.08-1.11,.55-1.67,1.82-3.11,1.47-1.67,3.41-2.32,4.58-2.69,2.72-.86,3.78-.25,5.26-1.32,1.14-.83,1.68-2.04,1.96-2.96,3.14,3.32,4.98,6.36,6.08,8.51,1.33,2.6,1.22,3.21,2.86,6.43,2.07,4.08,2.9,4.4,4.94,8.18,2.82,5.23,1.7,5.5,3.83,8.7,2.64,3.94,4.18,3.3,7.57,7.8,1.59,2.11,1.62,2.75,4.41,7.62,2,3.5,3.75,6.26,4.91,8.03Z"/>
    <circle class="cls-1" cx="127.09" cy="93.44" r="21.26"/>
    <path class="cls-6" d="M130.52,79.22c-2.07-.45-4.48-.88-6.49-.21-1.15,.38-1.75-.46-1.75-1.38-.11,.05,0,0,0,0,0-.92,.64-1.56,1.76-1.78,1.95-.38,4.44-.33,6.42,.09,1.13,.24,1.64,.88,1.78,1.88,.09-.01,0,0,0,0,.14,.99-.53,1.67-1.72,1.41Z"/>
  </g>
  <g>
    <path class="cls-7" d="M790.7,133.68c-4.38,5.44-7.63,10.37-9.93,14.19-6.64,11-6.83,15.09-6.15,18.08,.51,2.23,1.53,3.93,2.34,5.04,2.22,1.56,11.4,7.72,18.96,4.31,2.72-1.23,4.37-3.31,7.42-8.21,3.21-5.16,7.37-12.48,11.52-21.89l5.3-8.14,6.63-8.93c1.45-1.57,9.83-10.91,8.25-23.6-.35-2.78-1.45-11.63-9.02-16.67-4.48-2.98-9.16-3.26-11.45-3.23-1.43,.37-3.3,1.03-5.26,2.26-3.86,2.44-5.84,5.72-6.72,7.44-1.55,4.08-3.1,8.16-4.65,12.24l-2.64,12.02-2.85,11.44-1.75,3.67Z"/>
    <path class="cls-8" d="M825.72,122.54c.25,.01,1.49-5.88,.52-13.34-.62-4.76-1.92-8.58-3-11.19-1.81,.24-3.78,.63-5.85,1.23-7.62,2.23-13.07,6.37-16.43,9.51,3.46-2.14,7.97-4.42,13.48-6.12,2.49-.77,4.84-1.31,7.01-1.69,.66,1.27,1.51,3.08,2.27,5.32,2.99,8.87,1.73,16.27,2.01,16.28Z"/>
    <path class="cls-7" d="M778.72,128.08c-1.37,6.85-3.08,12.5-4.53,16.71-4.2,12.14-7.22,14.91-9.95,16.3-2.04,1.04-3.99,1.34-5.37,1.43-2.62-.7-13.23-3.81-15.45-11.8-.8-2.88-.25-5.48,1.56-10.95,1.9-5.77,4.86-13.65,9.44-22.87l2.86-9.29,2.62-10.81c.27-2.12,2.08-14.54,12.84-21.45,2.36-1.52,9.86-6.34,18.58-3.75,5.16,1.53,8.37,4.94,9.82,6.72,.63,1.34,1.32,3.19,1.63,5.49,.6,4.52-.65,8.15-1.41,9.92-2.14,3.8-4.28,7.61-6.43,11.41l-7.53,9.73-6.97,9.52-1.7,3.69Z"/>
    <path class="cls-8" d="M764.85,94.05c-.17-.19,3.56-4.91,9.91-8.95,4.05-2.58,7.82-4.02,10.52-4.86,.98,1.55,1.94,3.3,2.8,5.28,3.17,7.28,3.48,14.12,3.22,18.7-.58-4.03-1.71-8.95-3.93-14.27-1.01-2.4-2.1-4.55-3.19-6.46-1.4,.31-3.33,.81-5.54,1.66-8.73,3.38-13.6,9.09-13.79,8.88Z"/>
  </g>
  <g>
    <path class="cls-3" d="M1084.23,229.49c-.6,.25-1.44,.67-2.27,1.42-1.76,1.58-1.47,2.83-2.82,3.95-1.72,1.44-3.01,.06-5.15,1.4-2.07,1.29-1.35,2.88-3.47,4.36-2.13,1.49-3.44,.29-5.25,1.82-1.78,1.51-1.08,3.15-2.74,4.09-1.55,.87-2.47-.39-4.69,.38-1.84,.64-1.57,1.64-3.64,2.64-2.45,1.19-3.55,.13-5.15,1.4-1.47,1.16-.87,2.31-2.33,3.28-1.65,1.09-2.85-.09-4.49,.99-1.59,1.05-.99,2.5-2.46,3.36-1.7,.99-3.22-.54-5.22,.27-.9,.36-1.98,1.23-2.81,3.48-.54-1.83-1.51-4.65-3.28-7.81-1.84-3.28-3.68-5.37-4.58-6.44-6.55-7.78-5.5-11.17-13.04-21.41-3.51-4.77-4.22-4.69-7.91-10.01-3-4.33-5.13-8.12-6.47-10.68,1.69-.04,4.12-.36,6.23-1.95,2.11-1.58,1.9-2.92,4-4.45,2.91-2.13,4.5-.45,7.44-2.34,3.23-2.08,2.52-4.89,5.54-6.02,2.29-.86,3.32,.52,5.3-.58,2.17-1.21,1.36-3.12,3.57-4.79,2.43-1.83,4.53-.39,6.51-2.43,1.1-1.14,.56-1.7,1.85-3.17,1.5-1.71,3.47-2.36,4.67-2.74,2.77-.88,3.85-.25,5.36-1.35,1.16-.84,1.71-2.08,2-3.02,3.2,3.38,5.08,6.49,6.19,8.67,1.35,2.65,1.25,3.28,2.91,6.56,2.11,4.16,2.96,4.48,5.04,8.34,2.87,5.34,1.73,5.61,3.91,8.87,2.69,4.02,4.26,3.37,7.71,7.95,1.62,2.15,1.66,2.8,4.5,7.77,2.04,3.57,3.83,6.38,5,8.19Z"/>
    <circle class="cls-1" cx="1039.15" cy="217.67" r="21.67"/>
    <path class="cls-6" d="M1042.65,203.18c-2.11-.46-4.56-.9-6.62-.22-1.18,.39-1.79-.47-1.78-1.41-.11,.05,0,0,0,0,0-.94,.66-1.59,1.79-1.82,1.98-.39,4.53-.34,6.54,.09,1.15,.24,1.67,.9,1.81,1.91,.09-.01,0,0,0,0,.14,1.01-.54,1.71-1.75,1.44Z"/>
  </g>
  <path class="cls-7" d="M1425.08,192.52l-19.33,11.29-3.54-.87-3.56,2.75-3.95-.83-1.7-1.31-2.31,1.78,.38,.33-5.62,3.52-.44,.04-1.26-.65-.42-.72-.17-.66,.78-1.05,3.62-2.37,1.05-.47,.53,.25,1.07-.85,.77-.68-4.02-4.94-1.56,1.11,.05,.33-5.21,3.35-1.06-.16-1.03-.85-.1-1.26,.98-1.13,3.74-2.47,.67-.28,.44,.21,1.17-.99,.19-.17-1.27-2.1,.95-4.76,3.64-2.4,.21-.2,.02-4.33,.65-1.06,4.97-3.31,14.15-8.96,1.81-.53,2.65,.41,4.13,2.66,3.09,3.2,.4,.25,2.54-1.78,1.66,.63,.33,.15c6.6-2.3,10.9-8.18,10.72-14.27-.21-7.03-6.3-11.16-6.58-11.34-2.25-1.48-4.43-1.88-8.27-2.6-4.25-.8-7.69-.79-9.27-.71-7.84,.4-14.57,3.08-18.35,4.85-2.39,1.2-5.56,3.12-8.76,6.11-2.89,2.7-4.9,5.42-6.24,7.56-.16,.4-.72,1.95-.08,3.77,.7,1.99,2.32,2.86,2.66,3.03,1.33,.3,2.65,.6,3.98,.9,4.64-.17,17.97-1.12,28.71-8.81,1.45-1.04,6.38-4.72,9.95-11.14,2.71-4.86,2.26-7.03,2.13-7.57-1.32-5.39-9.79-6.85-10.14-6.91-2.43-.74-5.14-1.34-8.11-1.66-14.34-1.55-25.92,4.43-31.51,7.91l-5.69,4.82c-2.1,2.41-4.19,4.82-6.29,7.23,.14,.11,.49,.43,.65,.97,.16,.51,.06,.95,.02,1.12-.2,.47-.52,1.16-.96,1.98-.91,1.68-3.43,6.36-5.62,6-.27-.04-.66-.19-1.09-.67-.6,.75-1.2,1.51-1.8,2.26l-3.05-2.36,1.82-2.01c-.13-.23-.28-.58-.3-1.02-.07-1.12,.7-1.98,1.74-3.09,1.56-1.67,2.62-2.8,3.28-3.49,.09-.12,.63-.84,1.64-.96,1-.11,1.69,.45,1.8,.55l4.33-6.19,5.3-5.03c2.41-2.04,6.27-4.92,11.58-7.23,2.25-.98,13.52-5.66,27.81-2.82,6.77,1.35,13.16,2.62,15.44,7.83,2.25,5.13-.88,10.91-1.81,12.5-.88,1.45-2.26,3.51-4.26,5.71-10.95,12.01-26.99,13.29-31.19,13.63-2.4,.19-5.32,.27-8.66,0-2.77-1.04-3.87-2.64-4.27-3.36-2.14-3.79-.33-9.99,5.16-14.53,3.25-2.75,9.04-6.94,17.32-9.44,10.32-3.12,19.13-2,23.54-1.13,1.64,.06,6.09,.44,10.18,3.72,2.56,2.06,3.95,4.42,4.65,5.86,.66,1.42,1.51,3.79,1.45,6.76-.14,6.41-4.44,10.56-5.41,11.45-1.55,1.25-3.11,2.49-4.66,3.74l-1.03,1.08,.88,1.67-2.34,1.81-1.16,.97,2.6,8.45-.9,2.96-1.64,1Z"/>
</svg>