<?xml version="1.0" encoding="UTF-8"?><svg id="Layer_2" xmlns="http://www.w3.org/2000/svg" viewBox="0 0 221.68 182.18"><defs><style>.cls-1{fill:#fff;}.cls-1,.cls-2,.cls-3,.cls-4,.cls-5{stroke-miterlimit:10;}.cls-1,.cls-2,.cls-5{stroke:#ee2257;}.cls-2{fill:#ee2558;}.cls-3{stroke-width:2px;}.cls-3,.cls-4{stroke:#ee2558;}.cls-3,.cls-4,.cls-5{fill:none;}.cls-6{fill:#fdfefe;}.cls-6,.cls-7{stroke-width:0px;}.cls-7{fill:#ee2257;}</style></defs><circle class="cls-3" cx="114.06" cy="94.88" r="84.54"/><circle class="cls-3" cx="114.06" cy="94.88" r="49.06"/><path class="cls-4" d="m209.01,179.42h10.86l-2.36-96.75,2.36-77.2c-2.57-.62-4.61-.41-6.25.25-16.88,6.76-6.35,67.2-4.85,75.54l.24,98.17h0Z"/><path class="cls-4" d="m8.25,179.42h10.62l-2.12-114.7,8.97-17c-1.38-13.82-2.76-27.64-4.14-41.46-.21,3.14-.4,6.33-.55,9.56-.42,8.88-.57,17.47-.51,25.77-.14.63-.76,1.01-1.32.88-.47-.11-.82-.58-.81-1.11.1-3.56.1-7.23-.02-11.01-.07-2.24-.22-7.38-1.36-17.7-.29-2.64-.57-4.84-.78-6.4-.22,5.96-.51,11.79-.86,17.5,0,0,0,0,0,0-.02.31-.76,12.76-.76,17.36,0,.57-.48,1.03-1.02,1-.52-.03-.94-.5-.9-1.05-.04-6.79-.26-13.9-.73-21.29-.29-4.62-.66-9.1-1.1-13.46-.74,11.56-1.48,23.11-2.22,34.67-.1.54-.58.92-1.12.9-.56-.03-1.01-.49-1.03-1.06V6.88c-.56,2.93-1.08,5.93-1.56,8.99-1.65,10.51-2.61,20.53-3.07,29.95,2.7,5.88,5.4,11.77,8.1,17.65-.57,38.65-1.14,77.3-1.71,115.95Z"/><polygon class="cls-7" points="105.5 51.74 126.18 139.8 120.97 138.67 119.15 140.87 111.41 142.06 108.65 141.28 106.89 143.95 99.39 145.1 96.56 143.85 94.64 147.03 86.67 148.25 84.03 146.73 80.84 146.26 43.24 128.01 42.77 124.96 38.98 125.3 39.41 128.11 28.93 130.2 22.4 103.21 32.56 100.6 33.23 103.38 36.17 102.21 35.16 98.76 61.67 64.93 65.47 63.87 67.48 60.21 74.04 59.7 77.6 60.81 79.64 56.9 86.21 55.89 88.61 57.45 91.17 55.37 99.11 53.92 101.44 53.13 105.5 51.74"/><path class="cls-1" d="m105.13,51.8l21.08,87.81,41.15-18.35c11.08-7.12,15.81-13.96,18.06-19.02.87-1.95,2.29-5.71,5.38-10.48,2.83-4.37,5.75-7.55,7.79-9.57-.1-.66-.35-1.7-1.17-2.45-1.62-1.47-4.3-.74-4.42-1.24-.06-.24.49-.75,3.66-1.98-.09-.64-.32-1.61-1-2.5-2-2.62-6.25-2.4-7.7-2.41-6.61-.05-8.44-5.35-25.42-16.04-9.14-5.75-12.5-6.67-13.99-7.03-5.59-1.34-9.91-.78-15.95-.03-5.99.74-14.85,1.82-27.47,3.27v.02Z"/><circle class="cls-5" cx="166.25" cy="73.81" r="6.97"/><path class="cls-2" d="m170.93,72.79c.38,2.46-1.31,4.75-3.77,5.13s-4.75-1.31-5.13-3.77,1.31-4.75,3.77-5.13c.39-.06.78-.07,1.15-.03,1.99.21,3.66,1.73,3.98,3.8h0Z"/><polygon class="cls-6" points="168.16 68.26 166.25 73.81 171.13 70.08 168.16 68.26"/></svg>