<?xml version="1.0" encoding="UTF-8"?>
<svg id="Layer_2" data-name="Layer 2" xmlns="http://www.w3.org/2000/svg" viewBox="0 0 1513 843">
  <defs>
    <style>
      .cls-1 {
        fill: #fff;
      }

      .cls-2, .cls-3 {
        fill: #ff1054;
      }

      .cls-2, .cls-3, .cls-4, .cls-5 {
        stroke-miterlimit: 10;
      }

      .cls-2, .cls-4, .cls-5 {
        stroke-width: 2px;
      }

      .cls-2, .cls-5 {
        stroke: #fff;
      }

      .cls-3 {
        stroke: #ed2157;
      }

      .cls-4 {
        stroke: #fcfcfc;
      }

      .cls-4, .cls-5 {
        fill: none;
      }
    </style>
  </defs>
  <rect class="cls-3" x=".5" y=".5" width="1512" height="842"/>
  <g>
    <path class="cls-4" d="M1201.64,620.87c-9.11-.12-22.97,1.03-37.69,7.98-36.24,17.08-47,54.72-48.75,61.25-5.47,7.38-13.54,20.87-13.46,38.19,.01,2.83,.24,5.51,.62,8.02,27.26,30.52,51.38,41.32,68.93,45.34,18.47,4.23,31.33,1.32,53.79,11.99,10.56,5.02,17.7,10.4,25.53,7.51,9.25-3.41,13.06-16.01,16.27-26.62,3.45-11.41,3.92-21.37,3.76-28.05,8.94-18.21,31.42-68.72,10.29-94.44-.86-1.05-1.79-2.05-2.81-3.02-11.11-1.54-22.23-3.08-33.34-4.62-4.34-.05-9.7-.52-15.65-2.01-3.34-.83-6.32-1.85-8.93-2.9-.61-.32-2.36-1.33-3.4-3.49-.83-1.71-.79-3.28-.73-4-4.09-3.44-8.17-6.89-12.26-10.33l-2.17-.8Z"/>
    <path class="cls-4" d="M1303.14,596.01l-6.27,2.85-7.5,1.68-41.59,27.97-3.91,2.78-2.7,7.33,3.6,5.78c11.9,2.63,21.69,2.2,27.98,1.45,5.6-.67,24.51-3.52,37.44-15.74,0,0,8.04-7.59,9.87-17.47,.11-.6,.19-1.37,0-2.25-.72-3.21-4.45-4.69-7.25-6.24-2.57-1.42-6.06-3.83-9.67-8.14Z"/>
    <path class="cls-4" d="M1237.67,624.02l-15.91,1.02-5.69,6.96,1.12,6.1,8.41,4.17,11.28,2.2,7.04-1.43-2.75-4.41,3-8.15,3.61-1.96c-.96-.98-2.72-2.51-5.36-3.52-1.88-.72-3.57-.93-4.75-.98Z"/>
    <path class="cls-4" d="M1217.5,563.6c-2.59,.15-26.69,1.72-28.14,10.05-.18,1.06,.08,2.04,.63,3.95,2.17,7.59,6.09,9.32,9.1,14.96,2.56,4.8,.77,5.53,3.75,18.89,1.06,4.75,2.15,8.55,2.88,10.93,3.12,2.93,6.24,5.86,9.36,8.79l1,.84,5.69-6.96,15.91-1.02c-1.5-23.14-6.09-39.83-8.85-44.74-3.77-6.69-5.88-8.42-5.88-8.42-.65-.54-2.14-1.66-3.55-3.66-.98-1.4-1.56-2.71-1.9-3.6Z"/>
    <path class="cls-4" d="M1261.81,663.03c8.63,14.66,9.85,26.82,9.88,33.52,.08,14.75-5.4,33.96-16.66,49.42-4.52,6.2-8.83,10.24-10.12,18.12-1.47,8.97,1.94,17.07,5.1,22.57"/>
    <path class="cls-4" d="M1161.52,653.09c-2.91,.8-13.86,4.17-18.5,14.24-.89,1.93-1.42,3.84-1.72,5.63"/>
    <text/>
  </g>
  <polyline class="cls-5" points="1244 267.26 1289.05 236.97 1279.87 221.18 1272.01 206.26 1263.16 196.29 1249.62 176.19 1241.29 166.8 1232.06 151.56 1197.77 102.03 1168.55 90.27 1166.21 87.91 1168.31 86.05 1160.25 76.62 1137.92 94.36 1143.61 102.19 1146.94 101.3 1147.83 103.78 1148.61 132.1 1186.03 185.34 1195.66 196.66 1201.91 208.69 1215.43 228.01 1223.99 242.19 1242.46 265.52"/>
  <g>
    <path class="cls-5" d="M357.31,145.12l-105.19-43.87-35.07,137.11c-.27,1.18-.51,3.15,.52,4.8,.97,1.55,2.63,2.11,3.19,2.32,3.62,1.29,29.36,11.38,65,25.32,2.66,1.49,5.46,1.49,6.95,.09,.32-.3,.77-.84,1.02-1.78,21.03-40.73,42.05-81.46,63.08-122.19l.5-1.79Z"/>
    <polygon class="cls-5" points="255 84.39 249.16 99.57 253.1 101.22 363.46 147.59 370.66 132.25 255 84.39"/>
    <polygon class="cls-5" points="262.02 86.96 265.9 78.44 314.38 97.31 367.39 117.94 363.05 129.06 262.02 86.96"/>
    <path class="cls-5" d="M321.92,78.78l-.77-1.66c-4.1-8.82-8.21-17.64-12.31-26.47,2.15-.9,4.3-1.8,6.45-2.71l12.8,28.36c.27,.36,1.15,1.62,1.07,3.41-.06,1.42-.69,2.42-.97,2.82-1.74,5.92-3.47,11.84-5.21,17.76l-9.21-3.75c2.48-5.4,4.96-10.8,7.43-16.2,.24-.53,.48-1.05,.72-1.58Z"/>
  </g>
  <g>
    <g>
      <path class="cls-5" d="M300.74,781.65l8.73-3.25c-17.75-60.81-35.51-121.62-53.26-182.42,1.46-.58,2.38-1.87,2.31-3.19-.07-1.23-.97-2.01-1.18-2.19,16.12-15.86,32.23-31.72,48.35-47.59-1.9-2.4-5.27-3.41-6.96-3.61-.56-.07-.94-.05-1.01,.04-17,16.54-33.99,33.08-50.99,49.62-1.45,.75-2.34,2.11-2.27,3.51,.05,1.06,.64,1.81,.91,2.11,18.46,62.32,36.91,124.65,55.37,186.97Z"/>
      <path class="cls-2" d="M174.27,597.43c.97,.05,2.47,.02,4.17-.49,2.23-.67,3.74-1.83,4.52-2.53,7.06,19.48,14.11,38.96,21.17,58.44,2.09,2.14,4.17,4.29,6.25,6.43,51.34,38.01,102.67,76.02,154.01,114.04l-4.86,7.57-158.34-117.13c-1.53,.48-3.21,.1-4.3-.97-1.51-1.49-1.06-3.49-1.03-3.63-7.2-20.57-14.39-41.15-21.59-61.72Z"/>
      <path class="cls-5" d="M182.96,594.41c.2,1.21-8.02,4.07-8.69,3.02-.37-.58,1.38-2.55,3.58-3.34,2.27-.81,5-.35,5.11,.32Z"/>
      <path class="cls-1" d="M202.27,656.53c-1.43,1.44-2.03,1.54-3.91,1.87-.24,.04-.28-.03-.33-.12-.04-.09,0,0,0,0-.04-.09-.05-.28,.18-.33,1.77-.37,2.36-.39,3.74-1.81,.18-.19,.29-.05,.36,.02s0,0,0,0c.07,.07,.14,.19-.04,.38Z"/>
      <path class="cls-1" d="M204.33,657.5c-2.07,1.77-2.87,1.96-5.35,2.58-.32,.08-.36,0-.4-.09-.04-.1,0,0,0,0-.04-.1-.02-.3,.29-.39,2.35-.64,3.12-.75,5.12-2.5,.26-.23,.39-.1,.46-.03s0,0,0,0c.07,.07,.16,.19-.11,.42Z"/>
      <path class="cls-1" d="M254.39,591.54c-2.78-.03-3.51-.4-5.78-1.55-.3-.15-.27-.23-.23-.33,.04-.1,0,0,0,0,.04-.1,.2-.24,.49-.1,2.19,1.04,2.83,1.46,5.55,1.46,.35,0,.35,.18,.36,.28s0,0,0,0c0,.1-.02,.24-.38,.24Z"/>
      <path class="cls-1" d="M254.01,592.98c-2.78-.03-3.51-.4-5.78-1.55-.3-.15-.27-.23-.23-.33,.04-.1,0,0,0,0,.04-.1,.2-.24,.49-.1,2.19,1.04,2.83,1.46,5.55,1.46,.35,0,.35,.18,.36,.28s0,0,0,0c0,.1-.02,.24-.38,.24Z"/>
      <path class="cls-1" d="M253.38,594.77c-2.78-.03-3.51-.4-5.78-1.55-.3-.15-.27-.23-.23-.33,.04-.1,0,0,0,0,.04-.1,.2-.24,.49-.1,2.19,1.04,2.83,1.46,5.55,1.46,.35,0,.35,.18,.36,.28s0,0,0,0c0,.1-.02,.24-.38,.24Z"/>
      <path class="cls-1" d="M203.34,660.02c-1.43,1.44-2.03,1.54-3.91,1.87-.24,.04-.28-.03-.33-.12-.04-.09,0,0,0,0-.04-.09-.05-.28,.18-.33,1.77-.37,2.36-.39,3.74-1.81,.18-.19,.29-.05,.36,.02s0,0,0,0c.07,.07,.14,.19-.04,.38Z"/>
    </g>
    <path class="cls-5" d="M297.72,539.44c.8,0,1.95,.08,3.26,.49,1.53,.47,2.63,1.19,3.3,1.7,1.25,.73,1.49,1.14,1.42,1.38-.25,.89-5.18,1.52-7.16-1.02-.71-.91-.81-1.95-.82-2.54Z"/>
  </g>
</svg>