<?xml version="1.0" encoding="UTF-8"?><svg id="Layer_3" xmlns="http://www.w3.org/2000/svg" viewBox="0 0 292.42 184.67"><defs><style>.cls-1{stroke:#c6dbd8;stroke-width:2px;}.cls-1,.cls-2{stroke-miterlimit:10;}.cls-1,.cls-3{fill:#007c79;}.cls-2{fill:#f596a0;stroke:#ee2257;}.cls-4{fill:#ee2257;}.cls-4,.cls-3{stroke-width:0px;}</style></defs><path class="cls-1" d="m274.63,156.08c3.89-3.82,9.24-10.21,12.49-19.4,8-22.62-3.48-43.05-5.52-46.55-.84-5.44-3.17-14.55-10.58-21.82-1.21-1.19-2.45-2.22-3.67-3.12-24.47-1.26-39.23,4.45-48.33,10.22-9.58,6.08-13.76,12.77-27.77,17.83-6.58,2.38-11.88,3.15-13.95,7.7-2.45,5.37,1.31,12.3,4.47,18.14,3.4,6.28,7.44,10.68,10.35,13.42,3.98,11.47,15.99,42.32,35.84,44.17.81.08,1.63.1,2.47.08,5.34-4.08,10.68-8.16,16.02-12.24,1.85-1.83,4.31-3.91,7.45-5.81,1.76-1.07,3.45-1.91,5-2.57.4-.13,1.56-.44,2.91.02,1.08.37,1.73,1.05,2.01,1.37,3.19-.29,6.37-.57,9.56-.86l1.25-.59h0Z"/><path class="cls-1" d="m231.34,163.92c-9.87-2.51-15.56-7.11-18.43-9.92-6.31-6.18-12.17-16.61-14.01-27.91-.74-4.54-.64-8.07-3.44-11.94-3.2-4.41-8.08-6.37-11.75-7.34"/><path class="cls-1" d="m277.83,125.44c.88-1.57,4.07-7.66,1.74-13.87-.45-1.19-1.03-2.22-1.67-3.1"/><path class="cls-1" d="m266.14,85.75c-.33-1.19-1.65-5.37-5.77-7.96-4.3-2.7-9.97-2.63-14.7.11"/><path class="cls-1" d="m82.88,69.63c-5.45-.07-13.75.62-22.57,4.78-21.7,10.23-28.14,32.77-29.19,36.67-3.27,4.42-8.1,12.49-8.06,22.87,0,1.7.15,3.3.37,4.8,16.32,18.28,30.77,24.74,41.28,27.15,11.06,2.53,18.76.79,32.21,7.18,6.32,3,10.6,6.23,15.29,4.5,5.54-2.04,7.82-9.59,9.74-15.94,2.07-6.83,2.35-12.8,2.25-16.79,5.35-10.9,18.81-41.15,6.16-56.55-.52-.63-1.07-1.23-1.68-1.81-6.66-.92-13.31-1.84-19.97-2.77-2.6-.03-5.81-.31-9.37-1.21-2-.5-3.79-1.11-5.35-1.74-.37-.19-1.41-.8-2.03-2.09-.49-1.02-.47-1.96-.44-2.39-2.45-2.06-4.89-4.12-7.34-6.19l-1.3-.48h0Z"/><path class="cls-1" d="m143.66,54.74l-3.75,1.71-4.49,1.01-24.91,16.75-2.34,1.66-1.62,4.39,2.16,3.46c7.13,1.57,12.99,1.32,16.76.87,3.35-.4,14.67-2.11,22.42-9.43,0,0,4.81-4.55,5.91-10.46.07-.36.12-.82,0-1.35-.43-1.93-2.66-2.81-4.34-3.74-1.54-.85-3.63-2.3-5.79-4.88h-.01Z"/><path class="cls-1" d="m104.46,71.51l-9.53.61-3.41,4.17.67,3.65,5.04,2.5,6.76,1.32,4.22-.86-1.65-2.64,1.8-4.88,2.16-1.17c-.57-.58-1.63-1.5-3.21-2.11-1.13-.43-2.14-.56-2.85-.58h0Z"/><path class="cls-1" d="m92.38,35.33c-1.55.09-15.98,1.03-16.85,6.02-.11.63.05,1.22.38,2.37,1.3,4.54,3.65,5.58,5.45,8.96,1.53,2.87.46,3.31,2.25,11.31.63,2.84,1.29,5.12,1.72,6.55,1.87,1.75,3.74,3.51,5.61,5.26l.6.5,3.41-4.17,9.53-.61c-.9-13.86-3.65-23.85-5.3-26.79-2.26-4.01-3.52-5.04-3.52-5.04-.39-.32-1.28-.99-2.13-2.19-.59-.84-.94-1.62-1.14-2.15v-.02Z"/><path class="cls-1" d="m118.91,94.87c5.17,8.78,5.9,16.06,5.92,20.07.05,8.83-3.23,20.33-9.98,29.59-2.71,3.72-5.29,6.13-6.06,10.85-.88,5.37,1.16,10.22,3.06,13.51"/><path class="cls-1" d="m58.86,88.92c-1.74.48-8.3,2.5-11.08,8.53-.53,1.16-.85,2.3-1.03,3.37"/><path class="cls-1" d="m38.88,125.16c-.61,1.08-2.65,4.95-1.59,9.7,1.11,4.96,5.15,8.94,10.43,10.37"/><path class="cls-2" d="m126.45,113.4c-.26-.32-.68-.77-1.28-1.18-.39-.26-1.6-1-3.78-1.01-1.67,0-2.83.41-6.44,1.91-1.97.81-3.67,1.54-5.03,2.12-2.92,1.07-5.84,2.14-8.76,3.2l-6.78,1.6c-.54.09-1.34.15-2.29,0-1.04-.17-1.84-.53-2.34-.81.63.59,1.57,1.38,2.84,2.1,4.36,2.46,10.02,2.62,14.48.74,4.84-2.03,4.57-4.9,9.54-7.19,3.77-1.74,7.47-1.72,9.85-1.49h-.01Z"/><path class="cls-2" d="m94.37,120.04c16.39-2.88,23.91-11.21,30.8-7.82.76.37.69.48,3.2,3.57.47.58,1.04,1.27,1.72,2.08,10.27,12.33,13.23,13.62,14.63,18.73.69,2.51,1.16,6.51-.72,12.08-1.49,1.48-3.91,3.67-7.23,5.82-9.02,5.82-14.42,4.61-19.77,10.18-3.22,3.35-6.08,8.8-4.45,11.02,2.24,3.06,12.42-.83,18.31-3.07,14.43-5.51,16.58-10.07,26.44-12.96,8.21-2.41,11.78-.73,23.81-.58,9.26.11,22.45-.7,38.71-5.05,17.87-2.46,23.12-7.22,24.29-11.42,2.38-8.49-12.34-13.12-19.19-32.38-6-16.87.25-27.52-8.29-35.07-5.54-4.9-13.02-4.71-17.89-4.59-23.04.58-25.27,18.22-52.55,26.92-7.24,2.31-29.64,8.26-43.38,10.67-2.55.45-10.35,1.75-14.7,7.89-1.33,1.88,2.57,4.64,6.28,3.99h-.02Z"/><polyline class="cls-4" points="262.09 154.85 286.43 136.56 280.38 127.65 275.14 119.22 269.57 113.65 260.81 102.35 255.57 97.11 249.52 88.52 227.41 60.68 210.07 54.47 208.61 53.16 209.72 52.05 204.64 46.78 192.71 57.42 196.36 61.81 198.23 61.24 198.86 62.64 200.71 78.92 224.79 108.83 230.88 115.16 235.05 121.96 243.76 132.81 249.37 140.81 261.12 153.88"/><path class="cls-2" d="m29.52,73.57c-.37-.19-.89-.52-1.41-1.03-.34-.34-1.29-1.37-1.72-3.52-.33-1.64-.14-2.86.63-6.69.42-2.09.8-3.9,1.11-5.35.48-3.07.97-6.14,1.45-9.21l.26-6.96c-.02-.55-.11-1.35-.44-2.25-.37-.99-.88-1.7-1.24-2.14.7.5,1.66,1.27,2.61,2.38,3.26,3.81,4.5,9.32,3.52,14.06-1.06,5.14-3.92,5.43-5.21,10.75-.98,4.04-.25,7.66.44,9.96Z"/><path class="cls-2" d="m29.84,40.81c.34,16.64-6.39,25.63-1.73,31.73.51.67.61.58,4.12,2.45.66.35,1.45.77,2.38,1.28,14.07,7.7,15.91,10.35,21.2,10.74,2.6.19,6.61-.12,11.71-3.04,1.16-1.74,2.85-4.54,4.32-8.22,3.97-9.98,1.74-15.04,6.18-21.36,2.67-3.8,7.46-7.66,9.95-6.49,3.43,1.61,1.58,12.35.52,18.56-2.62,15.22-6.68,18.21-7.62,28.44-.78,8.52,1.56,11.7,4.02,23.48,1.89,9.06,3.64,22.17,2.51,38.96,1.03,18.01-2.63,24.07-6.52,26.04-7.88,3.97-15.25-9.58-35.47-12.58-17.71-2.63-26.96,5.55-36.01-1.37-5.87-4.49-7.13-11.87-7.95-16.67-3.88-22.72,13.01-28.31,16.27-56.76.87-7.55,2.38-30.68,2.1-44.62-.05-2.59-.28-10.49,4.9-15.95,1.58-1.67,5.05,1.63,5.13,5.4v-.02Z"/><path class="cls-2" d="m89.8,51.54c-.07,3.09-.28,7.34-.89,12.37-.38,3.11-.64,5.25-1.28,8.08-1.49,6.64-3.05,9.09-4.58,14.1-1.03,3.39-2.14,8.37-2.2,14.86.33-1.55.89-3.98,1.74-6.89,3.17-10.87,6.45-15.15,8.18-20.95,1.36-4.56,2.21-11.59-.98-21.56h.01Z"/><polyline class="cls-4" points="101.78 0 78.99 20.2 85.74 28.59 91.65 36.57 97.65 41.67 107.29 52.23 112.94 57.03 119.66 65.1 143.95 91.06 161.73 95.85 163.3 97.04 162.28 98.23 167.77 103.08 178.81 91.51 174.81 87.43 173 88.15 172.25 86.8 169.1 70.72 142.67 42.85 136.09 37.04 131.38 30.6 121.82 20.48 115.59 12.97 102.82 .89"/><polyline class="cls-3" points="121.57 149.13 135.97 179.37 146.43 175.2 156.25 171.76 163.14 167.27 176.63 160.83 183.12 156.6 193.25 152.36 226.59 135.94 236.42 119.18 238.07 117.96 239.02 119.41 245.5 115.35 236.71 100.11 231.41 102.87 231.65 104.99 230.06 105.3 212.71 103.21 176.82 121.2 169.05 126.05 161.14 128.77 148.12 135.26 138.69 139.2 122.78 148.35"/></svg>