<svg width="235" height="269" viewBox="0 0 235 269" fill="none" xmlns="http://www.w3.org/2000/svg">
<g id="Layer_1" clip-path="url(#clip0_272_1638)">
<path id="Vector" d="M104.108 76.5121C94.833 77.2306 80.8633 79.6867 66.5267 88.1156C31.2767 108.834 23.8302 148.102 22.65 154.899C17.7785 162.916 10.8321 177.362 12.5065 194.967C12.7771 197.842 13.2682 200.553 13.8752 203.07C44.4128 231.565 69.9416 240.311 88.1523 242.772C107.322 245.361 120.126 241.215 143.94 249.967C155.138 254.089 162.901 258.892 170.593 255.235C179.681 250.91 182.391 237.748 184.657 226.661C187.113 214.745 186.669 204.566 185.885 197.804C193.278 178.464 211.453 125.042 187.595 100.853C186.625 99.8718 185.578 98.9347 184.471 98.0453C173.032 97.5113 161.594 96.9774 150.141 96.4394C145.721 96.7929 140.237 96.8133 134.042 95.842C130.568 95.2957 127.439 94.5374 124.694 93.7218C124.046 93.452 122.18 92.5836 120.913 90.498C119.916 88.8373 119.8 87.2364 119.805 86.5009C115.339 83.3819 110.857 80.2588 106.391 77.1398L104.104 76.5271L104.108 76.5121Z" stroke="white" stroke-width="2" stroke-miterlimit="10"/>
<path id="Vector_2" d="M204.979 41.8362L198.874 45.3104L191.405 47.7144L151.708 80.0077L147.988 83.1917L145.925 90.8887L150.126 96.4354C162.474 97.998 172.379 96.6634 178.699 95.3134C184.323 94.1132 203.288 89.4554 215.298 75.8379C215.298 75.8379 222.756 67.3759 223.712 57.1719C223.764 56.561 223.784 55.7656 223.491 54.8862C222.461 51.6786 218.539 50.5317 215.544 49.2165C212.805 48.0181 209.035 45.8867 204.964 41.8322L204.979 41.8362Z" stroke="white" stroke-width="2" stroke-miterlimit="10"/>
<path id="Vector_3" d="M141.02 76.3749L124.936 78.8893L119.809 86.4859L121.508 92.5798L130.45 96.0331L142.129 97.2242L149.15 95.1166L145.94 90.8927L148.235 82.3289L151.727 79.9968C150.673 79.0895 148.726 77.6868 145.954 76.9121C143.974 76.3496 142.241 76.3016 141.039 76.364L141.02 76.3749Z" stroke="white" stroke-width="2" stroke-miterlimit="10"/>
<path id="Vector_4" d="M114.912 16.822C112.293 17.2095 87.9413 21.0486 87.2413 29.6393C87.1553 30.7375 87.5219 31.7008 88.2482 33.5934C91.1546 41.1 95.3121 42.5023 98.8797 47.9595C101.928 52.6048 100.179 53.5137 104.448 66.8157C105.967 71.5478 107.428 75.3032 108.383 77.6575C111.828 80.3427 115.269 83.0429 118.715 85.7282L119.809 86.486L124.936 78.8893L141.02 76.3749C137.352 52.998 131.134 36.4504 127.869 31.7152C123.414 25.2672 121.109 23.7046 121.109 23.7046C120.389 23.2233 118.785 22.2167 117.165 20.3091C116.032 18.9802 115.333 17.7036 114.912 16.822Z" stroke="white" stroke-width="2" stroke-miterlimit="10"/>
<path id="Vector_5" d="M169.167 113.792C179.292 127.894 181.665 140.143 182.323 146.952C183.772 161.933 179.989 181.968 169.971 198.73C165.958 205.456 161.949 209.956 161.373 218.084C160.718 227.343 164.924 235.262 168.648 240.553" stroke="white" stroke-width="2" stroke-miterlimit="10"/>
<path id="Vector_6" d="M66.3036 112.981C63.4179 114.066 52.6014 118.504 48.8152 129.167C48.0901 131.216 47.7339 133.203 47.5941 135.039" stroke="white" stroke-width="2" stroke-miterlimit="10"/>
<path id="Vector_7" d="M38.0019 177.594C37.1175 179.519 34.2617 186.411 36.8047 194.317C39.4511 202.555 46.9219 208.689 56.1165 210.304" stroke="white" stroke-width="2" stroke-miterlimit="10"/>
</g>
<defs>
<clipPath id="clip0_272_1638">
<rect width="181.652" height="229.37" fill="white" transform="translate(59.3654) rotate(15)"/>
</clipPath>
</defs>
</svg>
