<svg width="159" height="221" viewBox="0 0 159 221" fill="none" xmlns="http://www.w3.org/2000/svg">
<g id="Suger&#195;&#184;r 1" clip-path="url(#clip0_273_2199)">
<path id="Vector" d="M69.8322 9.57974L45.1166 53.9095" stroke="white" stroke-miterlimit="10" stroke-linecap="round"/>
<path id="Vector_2" d="M75.0523 13.3991L51.6151 55.8505" stroke="white" stroke-miterlimit="10" stroke-linecap="round"/>
<path id="Vector_3" d="M50.6562 64.2406L50.9758 214.949" stroke="white" stroke-miterlimit="10" stroke-linecap="round"/>
<path id="Vector_4" d="M44.1578 57.7289L44.797 215.763" stroke="white" stroke-miterlimit="10" stroke-linecap="round"/>
<path id="Vector_5" d="M47.3005 50.0275L69.8322 9.57974" stroke="white" stroke-miterlimit="10" stroke-linecap="round"/>
<path id="Vector_6" d="M44.0513 57.7915C43.4121 56.414 43.9448 54.6609 45.1699 53.9095" stroke="white" stroke-miterlimit="10" stroke-linecap="round"/>
<path id="Vector_7" d="M50.6562 64.2406L51.615 55.8505" stroke="white" stroke-miterlimit="10"/>
<path id="Vector_8" d="M69.8322 9.57974C69.8322 11.7086 72.1759 13.3991 75.0522 13.3991" stroke="white" stroke-miterlimit="10"/>
<path id="Vector_9" d="M69.8322 9.45451C71.0573 8.4527 73.6141 10.2059 75.5849 13.3991" stroke="white" stroke-miterlimit="10"/>
<path id="Vector_10" d="M44.8502 215.763C44.9035 216.139 47.6733 215.826 50.9758 214.949" stroke="white" stroke-miterlimit="10" stroke-linecap="round"/>
<path id="Vector_11" d="M45.3296 59.5447C45.3296 60.1082 47.4602 60.6091 50.1236 60.6091" stroke="white" stroke-miterlimit="10" stroke-linecap="round"/>
<path id="Vector_12" d="M45.5427 56.0384C45.5427 56.6645 47.4603 57.1654 49.8573 57.1654" stroke="white" stroke-miterlimit="10" stroke-linecap="round"/>
<path id="Vector_13" d="M46.7678 53.2834C46.7678 54.16 48.5789 54.8487 50.8161 54.8487" stroke="white" stroke-miterlimit="10" stroke-linecap="round"/>
<path id="Vector_14" d="M48.3658 51.0294C48.3658 52.0312 49.9106 52.7825 51.8282 52.7825" stroke="white" stroke-miterlimit="10" stroke-linecap="round"/>
<path id="Vector_15" d="M152.448 56.1636L102.644 50.278" stroke="white" stroke-miterlimit="10" stroke-linecap="round"/>
<path id="Vector_16" d="M154.526 63.1136L107.491 57.228" stroke="#FFFEFE" stroke-miterlimit="10" stroke-linecap="round"/>
<path id="Vector_17" d="M102.378 62.9258L25.7809 183.768" stroke="white" stroke-miterlimit="10" stroke-linecap="round"/>
<path id="Vector_18" d="M100.514 53.1582L20.401 180.011" stroke="white" stroke-miterlimit="10" stroke-linecap="round"/>
<path id="Vector_19" d="M100.354 53.0956C100.567 51.5302 101.845 50.5284 103.177 50.7789" stroke="white" stroke-miterlimit="10" stroke-linecap="round"/>
<path id="Vector_20" d="M102.378 62.9258L107.438 56.8523" stroke="#FFFBFB" stroke-miterlimit="10"/>
<path id="Vector_21" d="M152.288 56.3514C151.223 58.042 152.182 61.0474 154.526 63.051" stroke="white" stroke-miterlimit="10"/>
<path id="Vector_22" d="M152.022 56.2262C153.514 56.2262 154.685 59.4821 154.632 63.4267" stroke="white" stroke-miterlimit="10"/>
<path id="Vector_23" d="M20.4543 180.074C20.2945 180.45 22.6915 182.078 25.781 183.768" stroke="white" stroke-miterlimit="10" stroke-linecap="round"/>
<path id="Vector_24" d="M100.514 55.4122C100.194 55.8505 101.685 57.7289 103.816 59.6073" stroke="#FFFCFC" stroke-miterlimit="10" stroke-linecap="round"/>
<path id="Vector_25" d="M102.484 52.7825C102.165 53.2834 103.497 55.0366 105.361 56.7271" stroke="white" stroke-miterlimit="10" stroke-linecap="round"/>
<path id="Vector_26" d="M104.881 51.405C104.455 52.0938 105.521 53.9095 107.332 55.4749" stroke="white" stroke-miterlimit="10" stroke-linecap="round"/>
<path id="Vector_27" d="M107.278 50.7163C106.799 51.5302 107.598 53.2208 109.143 54.5357" stroke="white" stroke-miterlimit="10" stroke-linecap="round"/>
</g>
<defs>
<clipPath id="clip0_273_2199">
<rect width="159" height="220.585" fill="white"/>
</clipPath>
</defs>
</svg>
