<?xml version="1.0" encoding="UTF-8"?><svg id="Layer_4" xmlns="http://www.w3.org/2000/svg" viewBox="0 0 599.25 629.59"><defs><style>.cls-1{stroke-width:6px;}.cls-1,.cls-2{fill:none;stroke:#ff1054;stroke-linecap:round;stroke-miterlimit:10;}.cls-2{stroke-width:2px;}.cls-3{fill:#ff1054;stroke-width:0px;}</style></defs><path class="cls-2" d="m255.56,473.51s-15.63-24.65-21.59-22.12c-17.07,7.24-44.45,23.2-61.81,40.55-4.14,4.14,38.17,40.7,45.46,60.07"/><path class="cls-2" d="m184.06,509s-1.34,50.07.73,65.82c1.84,13.98,4.05,37.96,15.18,46.63,2.59,2.02,16.16,4.37,19.93,2.35,12.93-6.96,29.34-36.19,34.46-50.18,6.56-17.92,16.85-40.75,21.4-55.46,1.58-5.11,5.75-20.19,5.75-20.19,0,0,10.28-12.53,12.65-17.35s4.28-14.76,4.58-20.07c.25-4.37-.56-12.42-2.15-16.5-1.28-3.29-7.58-11.05-11.35-11.47-5.59-.63-21.03,13.94-21.03,13.94l4.77-4.48s-1.12-13.03-1.79-18.23c-.56-4.34-2.07-12.28-4.89-16.01-1.49-1.97-4.34-4.37-6.73-3.73-2.69.72-4.31,5.1-4.56,7.87-.6,6.57,1.81,14.22,2.9,20.72,1.01,6.03.79,18.35,1.34,24.44.44,4.81.31,13.34.32,19.3,0,2.68-.81,12.73-1.78,15.23-8.64,22.25-50.26,80.75-50.26,80.75"/><path class="cls-2" d="m219.89,623.79l141.84,1.58s.72-41.3,7.05-75.75c5.28-28.77,12.91-53.2,10.66-56.34-10.21-14.26-56.56-46.43-60.6-43.99-5.14,3.1-20.59,15.77-20.59,15.77"/><path class="cls-2" d="m375.37,518.16s32.99,74.73,34.05,95.12c.48,9.26-47.69,12.1-47.69,12.1"/><path class="cls-2" d="m298.24,465.06s-6.68-2.03-8.75-2.11c-2.7-.1-10.75,1.2-10.75,1.2"/><path class="cls-2" d="m297.49,450.92s-8.98-2.04-12.17-1.76-11.58,3.72-11.58,3.72"/><path class="cls-2" d="m239.98,453.11s7.08-3.53,8.34-5.37c2.5-3.65,3.6-24.88,3.6-24.88"/><path class="cls-2" d="m311.06,454.13s-4.26-8.84-5.36-15.67c-1.39-8.63-.79-22.16-.79-22.16"/><path class="cls-2" d="m162.03,278.67s7.27,36.94,9.85,48.48c2.74,12.25,8.72,40.81,14.91,50.96s24.71,23.39,34.85,28.46c6.74,3.37,29.27,7.15,29.27,7.15"/><path class="cls-2" d="m265.51,415.31s36.5,1.92,48.12.74c8.75-.88,29.54-3.82,37.45-7.66,9.16-4.45,25.64-14.5,31.29-22.97,5.97-8.96,12.98-34.35,16.4-45.41,3.6-11.65,13.38-43.16,13.38-43.16"/><path class="cls-2" d="m163.48,286.02s-12.54.38-15.72,2.03c-4.38,2.28-8.32,13-9.18,17.3-1.07,5.34-.78,16.18.64,20.61,1.59,4.95,6.31,13.11,9.95,16.14,3.43,2.85,11.58,7.24,15.99,7.89,2.96.44,11.94-1.07,11.94-1.07"/><path class="cls-2" d="m410.73,301.41s12.53-.47,16.28,1.75c5.99,3.55,9.45,13,10.31,17.3,1.07,5.34-.92,16.46-2.34,20.9-1.59,4.95-6.31,13.11-9.95,16.14-3.43,2.85-11.86,6.67-16.27,7.32-2.96.44-16.19-.22-16.19-.22"/><path class="cls-2" d="m195.75,388.35s8.85,10,13.26,17.53c1.53,2.6-17.64-5.22-22.73-8.63-6.53-4.37-17.96-19.95-20.86-22.85-4.2-4.2,2.3,16.38,4.04,23.41,1.14,4.6-22.81-24.17-28.6-33.56-4.55-7.39-12.91-22.91-14.88-31.37-1.58-6.8-1.38-20.92-1.38-27.91,0-17.65,3.35-42.77,7.57-56.35,5.36-17.26,19.15-51.03,28.75-66.35,9.38-14.97,30.28-44.23,44.16-55.16,8.09-6.37,27.52-14.04,36.59-18.9,7.28-3.9,19.26-8.08,27.31-9.9,5.06-1.15,14.69-.97,19.29,1.42s17.08,6.48,17.08,6.48c0,0,19.07-3.49,25.41-2.67,7.8,1.01,22.82,6.87,29.42,11.14,10.05,6.5,29.03,21.71,36.33,31.2,8.22,10.69,20.52,34.99,25.63,47.47,5.72,13.98,16.28,42.38,19.84,57.06,2.89,11.94,7.17,36.25,7.75,48.52.5,10.49,1.1,31.83-1.57,41.99-2.17,8.26-9.83,23.84-14.82,30.76-5.32,7.38-17.26,21.39-24.48,26.95-5.32,4.09-16.86,11.53-23.35,13.25-6.9,1.82-21.42,2.14-28.52,1.35-3.64-.41-11.65-2.75-11.65-2.75"/><path class="cls-2" d="m246.58,105.84s11.97-.29,16.26.25c5.07.64,19.82,5.08,19.82,5.08"/><path class="cls-2" d="m152.91,286.72s16.9-17.85,22.34-23.97c8.18-9.22,23.84-28.26,31.81-37.66,6.15-7.26,18.82-21.46,24.91-28.77,5.23-6.29,19.8-26.45,22.05-25.05,2.06,1.3-9.66,35.26-14.39,44.34-8.44,16.21-40.71,58.09-38.67,59.22,2.26,1.25,39.8-43.39,50.7-59.64,9.32-13.9,30.33-59.31,34.04-58.43,2.59.61-3.8,40.19-3.05,53.6.93,16.55,10,64.59,14.45,64.59s-1.1-40.11-.83-54.8c.18-9.85,1.8-27.43,4.26-37.99,1.14-4.91,5.3-24.29,6.89-24.24.66.02,4.01,18.44,10.27,37.03,6.8,20.2,11.02,31.2,16.53,40.71,6.47,11.18,27.22,44.15,29.46,42.45,2.37-1.79-19.93-37.51-24-51.42-3.3-11.25-7.72-47.75-4.46-47.63s20.58,36.56,28.12,49.11c7.72,12.85,22.47,36.86,32.8,48.43,5.71,6.39,20.51,24.81,20.51,24.81"/><path class="cls-2" d="m220.96,224.66s6.47-5.44,9.37-6.68c1.86-.79,9.04-2.05,9.04-2.05"/><path class="cls-2" d="m339.14,224.04s8.84-2.19,11.3-2.28c3.06-.11,10.39,2,10.39,2"/><ellipse class="cls-3" cx="229.59" cy="291.81" rx="7.93" ry="10.76"/><ellipse class="cls-3" cx="343.42" cy="300.53" rx="10.76" ry="7.93" transform="translate(27.03 629.41) rotate(-87.3)"/><ellipse class="cls-3" cx="283.85" cy="330.42" rx="2.34" ry="5.66"/><path class="cls-2" d="m274.24,369.55s2.25-3.9,8.13-3.9c5.35,0,8.25,3.19,8.25,3.19"/><path class="cls-1" d="m14.41,384.32s-4.04-21.25,5.11-31.07c6.78-7.27,15.32-10.91,24.54-10.91,7.06,0,17.82,7.9,20.09,13.41s2.51,11.46,1.1,14.62-6.73,7.93-7.94,11.12c-1.61,4.25-.71,18.18-.71,18.18"/><circle class="cls-3" cx="57.65" cy="421.96" r="5.66"/><path class="cls-1" d="m112.5,39.93s1.91-21.54,13.4-28.49c8.51-5.15,17.72-6.31,26.59-3.79,6.8,1.93,14.99,12.46,15.66,18.38s-.71,11.71-2.93,14.37-8.64,5.79-10.68,8.53c-2.71,3.65-5.64,17.3-5.64,17.3"/><path class="cls-1" d="m400.74,54.65s1.91-21.54,13.4-28.49c8.51-5.15,17.72-6.31,26.59-3.79,6.8,1.93,14.99,12.46,15.66,18.38s-.71,11.71-2.93,14.37-8.64,5.79-10.68,8.53c-2.71,3.65-5.64,17.3-5.64,17.3"/><path class="cls-1" d="m531.69,364.57s12.17-17.88,25.58-18.35c9.94-.35,18.54,3.12,25.07,9.64,5,5,7.01,18.19,4.72,23.68s-6.33,9.88-9.56,11.12-10.37.84-13.48,2.25c-4.15,1.87-13.36,12.36-13.36,12.36"/><circle class="cls-3" cx="147.25" cy="84.72" r="5.66"/><circle class="cls-3" cx="434.32" cy="97.63" r="5.66"/><circle class="cls-3" cx="537.35" cy="419.38" r="5.66"/></svg>