<?xml version="1.0" encoding="UTF-8"?><svg id="Layer_2" xmlns="http://www.w3.org/2000/svg" viewBox="0 0 1512 514.46"><defs><style>.cls-1{stroke:#c6dbd8;}.cls-1,.cls-2{stroke-width:2px;}.cls-1,.cls-2,.cls-3{stroke-miterlimit:10;}.cls-1,.cls-4{fill:#007c79;}.cls-2{stroke:#ee2558;}.cls-2,.cls-3,.cls-5{fill:#f596a0;}.cls-3{stroke:#ee2257;}.cls-6,.cls-5,.cls-7,.cls-8,.cls-4{stroke-width:0px;}.cls-7{fill:#c6dbd8;}.cls-8{fill:#ee2257;}</style></defs><path class="cls-7" d="m0,178.58c54.76-72.22,97.86-85.94,127.26-84.93,53.28,1.84,90.7,53.07,170.44,44.82,12.7-1.31,22.04-3.68,30.29-5.77,64.63-16.35,89.75-57.16,129.08-72.09,28.22-10.71,98.58-37.4,181.51-28.31,102.79,11.27,113.54,65.3,214.72,70.77,41.77,2.26,33.07-7.32,143.88-21.23,96.86-12.16,145.29-18.24,201.43-7.08,78.98,15.71,87.01,60.04,150.52,68.41,66.41,8.76,124.91-25.38,162.86-54.26v425.55H0V178.58Z"/><polyline class="cls-4" points="390.11 115.66 408.78 143.46 418.52 137.8 427.73 132.95 433.88 127.5 446.28 119.16 452.08 114.02 461.48 108.33 492.05 87.2 499.31 69.18 500.77 67.73 501.91 69.02 507.74 64.06 496.8 50.27 491.97 53.79 492.51 55.84 490.99 56.39 473.52 56.86 440.66 79.92 433.68 85.86 426.25 89.71 414.33 98.05 405.58 103.32 391.18 114.71"/><polyline class="cls-5" points="1051.11 166.16 1080.85 146.72 1076.09 137.33 1072.1 128.44 1067.2 122.58 1060 110.68 1055.39 105.16 1050.57 96.1 1032.25 66.77 1014.83 60.29 1013.52 58.91 1014.93 57.73 1010.49 52.18 995.59 63.47 998.65 68.1 1000.77 67.49 1001.17 68.97 999.98 86.17 1020.02 117.68 1025.32 124.34 1028.48 131.51 1035.72 142.95 1040.18 151.37 1050.25 165.14"/><path class="cls-3" d="m573.07,73.8c-.26-.32-.68-.77-1.28-1.18-.39-.26-1.6-1-3.78-1.01-1.67,0-2.83.41-6.44,1.91-1.97.81-3.67,1.54-5.03,2.12-2.92,1.07-5.84,2.14-8.76,3.2l-6.78,1.6c-.54.09-1.34.15-2.29,0-1.04-.17-1.84-.53-2.34-.81.63.59,1.57,1.38,2.84,2.1,4.36,2.46,10.02,2.62,14.48.74,4.84-2.03,4.57-4.9,9.54-7.19,3.77-1.74,7.47-1.72,9.85-1.49h0Z"/><path class="cls-3" d="m540.99,80.44c16.39-2.88,23.91-11.21,30.8-7.82.76.37.69.48,3.2,3.57.47.58,1.04,1.27,1.72,2.08,10.27,12.33,13.23,13.62,14.63,18.73.69,2.51,1.16,6.51-.72,12.08-1.49,1.48-3.91,3.67-7.23,5.82-9.02,5.82-14.42,4.61-19.77,10.18-3.22,3.35-6.08,8.8-4.45,11.02,2.24,3.06,12.42-.83,18.31-3.07,14.43-5.51,16.58-10.07,26.44-12.96,8.21-2.41,11.78-.73,23.81-.58,9.26.11,22.45-.7,38.71-5.05,17.87-2.46,23.12-7.22,24.29-11.42,2.38-8.49-12.34-13.12-19.19-32.38-6-16.87.25-27.52-8.29-35.07-5.54-4.9-13.02-4.71-17.89-4.59-23.04.58-25.27,18.22-52.55,26.92-7.24,2.31-29.64,8.26-43.38,10.67-2.55.45-10.35,1.75-14.7,7.89-1.33,1.88,2.57,4.64,6.28,3.99h-.02Z"/><path class="cls-3" d="m563.08,137.2c3.02-.66,7.15-1.69,11.97-3.26,2.98-.97,5.02-1.64,7.68-2.81,6.23-2.74,8.33-4.75,12.95-7.21,3.13-1.67,7.8-3.72,14.16-5.02-1.46.63-3.73,1.64-6.43,3.04-10.05,5.2-13.62,9.25-18.98,12.07-4.21,2.21-10.94,4.4-21.35,3.2h0Z"/><path class="cls-1" d="m886.59,100.47c-5.45-.07-13.75.62-22.57,4.78-21.7,10.23-28.14,32.77-29.19,36.67-3.27,4.42-8.1,12.49-8.06,22.87,0,1.7.15,3.3.37,4.8,16.32,18.28,30.77,24.74,41.28,27.15,11.06,2.53,18.76.79,32.21,7.18,6.32,3,10.6,6.23,15.29,4.5,5.54-2.04,7.82-9.59,9.74-15.94,2.07-6.83,2.35-12.8,2.25-16.79,5.35-10.9,18.81-41.15,6.16-56.55-.52-.63-1.07-1.23-1.68-1.81-6.66-.92-13.31-1.84-19.97-2.77-2.6-.03-5.81-.31-9.37-1.21-2-.5-3.79-1.11-5.35-1.74-.37-.19-1.41-.8-2.03-2.09-.49-1.02-.47-1.96-.44-2.39-2.45-2.06-4.89-4.12-7.34-6.19l-1.3-.48h0Z"/><path class="cls-1" d="m947.37,85.59l-3.75,1.71-4.49,1.01-24.91,16.75-2.34,1.66-1.62,4.39,2.16,3.46c7.13,1.57,12.99,1.32,16.76.87,3.35-.4,14.67-2.11,22.42-9.43,0,0,4.81-4.55,5.91-10.46.07-.36.12-.82,0-1.35-.43-1.93-2.66-2.81-4.34-3.74-1.54-.85-3.63-2.3-5.79-4.88h0Z"/><path class="cls-1" d="m908.16,102.36l-9.53.61-3.41,4.17.67,3.65,5.04,2.5,6.76,1.32,4.22-.86-1.65-2.64,1.8-4.88,2.16-1.17c-.57-.58-1.63-1.5-3.21-2.11-1.13-.43-2.14-.56-2.85-.58h0Z"/><path class="cls-1" d="m896.08,66.18c-1.55.09-15.98,1.03-16.85,6.02-.11.63.05,1.22.38,2.37,1.3,4.54,3.65,5.58,5.45,8.96,1.53,2.87.46,3.31,2.25,11.31.63,2.84,1.29,5.12,1.72,6.55,1.87,1.75,3.74,3.51,5.61,5.26l.6.5,3.41-4.17,9.53-.61c-.9-13.86-3.65-23.85-5.3-26.79-2.26-4.01-3.52-5.04-3.52-5.04-.39-.32-1.28-.99-2.13-2.19-.59-.84-.94-1.62-1.14-2.15v-.02Z"/><path class="cls-1" d="m922.62,125.72c5.17,8.78,5.9,16.06,5.92,20.07.05,8.83-3.23,20.33-9.98,29.59-2.71,3.72-5.29,6.13-6.06,10.85-.88,5.37,1.16,10.22,3.06,13.51"/><path class="cls-1" d="m862.57,119.77c-1.74.48-8.3,2.5-11.08,8.53-.53,1.16-.85,2.3-1.03,3.37"/><path class="cls-1" d="m842.59,156c-.61,1.08-2.65,4.95-1.59,9.7,1.11,4.96,5.15,8.94,10.43,10.37"/><polyline class="cls-8" points="778.52 169.95 802.86 151.65 796.82 142.75 791.57 134.31 786 128.75 777.25 117.45 772 112.2 765.96 103.61 743.85 75.78 726.51 69.57 725.05 68.26 726.16 67.15 721.07 61.88 709.14 72.51 712.79 76.91 714.66 76.33 715.29 77.74 717.14 94.02 741.23 123.93 747.31 130.25 751.49 137.06 760.2 147.91 765.8 155.91 777.55 168.97"/><path class="cls-1" d="m453.15,429.89c-5.45-.07-13.75.62-22.57,4.78-21.7,10.23-28.14,32.77-29.19,36.67-3.27,4.42-8.1,12.49-8.06,22.87,0,1.7.15,3.3.37,4.8,16.32,18.28,30.77,24.74,41.28,27.15,11.06,2.53,18.76.79,32.21,7.18,6.32,3,10.6,6.23,15.29,4.5,5.54-2.04,7.82-9.59,9.74-15.94,2.07-6.83,2.35-12.8,2.25-16.79,5.35-10.9,18.81-41.15,6.16-56.55-.52-.63-1.07-1.23-1.68-1.81-6.66-.92-13.31-1.84-19.97-2.77-2.6-.03-5.81-.31-9.37-1.21-2-.5-3.79-1.11-5.35-1.74-.37-.19-1.41-.8-2.03-2.09-.49-1.02-.47-1.96-.44-2.39-2.45-2.06-4.89-4.12-7.34-6.19l-1.3-.48h0Z"/><path class="cls-1" d="m513.93,415l-3.75,1.71-4.49,1.01-24.91,16.75-2.34,1.66-1.62,4.39,2.16,3.46c7.13,1.57,12.99,1.32,16.76.87,3.35-.4,14.67-2.11,22.42-9.43,0,0,4.81-4.55,5.91-10.46.07-.36.12-.82,0-1.35-.43-1.93-2.66-2.81-4.34-3.74-1.54-.85-3.63-2.3-5.79-4.88h-.01Z"/><path class="cls-1" d="m474.73,431.77l-9.53.61-3.41,4.17.67,3.65,5.04,2.5,6.76,1.32,4.22-.86-1.65-2.64,1.8-4.88,2.16-1.17c-.57-.58-1.63-1.5-3.21-2.11-1.13-.43-2.14-.56-2.85-.58h0Z"/><path class="cls-1" d="m462.65,395.59c-1.55.09-15.98,1.03-16.85,6.02-.11.63.05,1.22.38,2.37,1.3,4.54,3.65,5.58,5.45,8.96,1.53,2.87.46,3.31,2.25,11.31.63,2.84,1.29,5.12,1.72,6.55,1.87,1.75,3.74,3.51,5.61,5.26l.6.5,3.41-4.17,9.53-.61c-.9-13.86-3.65-23.85-5.3-26.79-2.26-4.01-3.52-5.04-3.52-5.04-.39-.32-1.28-.99-2.13-2.19-.59-.84-.94-1.62-1.14-2.15v-.02Z"/><path class="cls-1" d="m489.18,455.13c5.17,8.78,5.9,16.06,5.92,20.07.05,8.83-3.23,20.33-9.98,29.59-2.71,3.72-5.29,6.13-6.06,10.85-.88,5.37,1.16,10.22,3.06,13.51"/><path class="cls-1" d="m429.13,449.18c-1.74.48-8.3,2.5-11.08,8.53-.53,1.16-.85,2.3-1.03,3.37"/><path class="cls-1" d="m409.15,485.42c-.61,1.08-2.65,4.95-1.59,9.7,1.11,4.96,5.15,8.94,10.43,10.37"/><path class="cls-3" d="m496.72,473.66c-.26-.32-.68-.77-1.28-1.18-.39-.26-1.6-1-3.78-1.01-1.67,0-2.83.41-6.44,1.91-1.97.81-3.67,1.54-5.03,2.12-2.92,1.07-5.84,2.14-8.76,3.2l-6.78,1.6c-.54.09-1.34.15-2.29,0-1.04-.17-1.84-.53-2.34-.81.63.59,1.57,1.38,2.84,2.1,4.36,2.46,10.02,2.62,14.48.74,4.84-2.03,4.57-4.9,9.54-7.19,3.77-1.74,7.47-1.72,9.85-1.49h-.01Z"/><path class="cls-3" d="m464.64,480.3c16.39-2.88,23.91-11.21,30.8-7.82.76.37.69.48,3.2,3.57.47.58,1.04,1.27,1.72,2.08,10.27,12.33,13.23,13.62,14.63,18.73.69,2.51,1.16,6.51-.72,12.08-1.49,1.48-3.91,3.67-7.23,5.82-9.02,5.82-14.42,4.61-19.77,10.18-3.22,3.35-6.08,8.8-4.45,11.02,2.24,3.06,12.42-.83,18.31-3.07,14.43-5.51,16.58-10.07,26.44-12.96,8.21-2.41,11.78-.73,23.81-.58,9.26.11,22.45-.7,38.71-5.05,17.87-2.46,23.12-7.22,24.29-11.42,2.38-8.49-12.34-13.12-19.19-32.38-6-16.87.25-27.52-8.29-35.07-5.54-4.9-13.02-4.71-17.89-4.59-23.04.58-25.27,18.22-52.55,26.92-7.24,2.31-29.64,8.26-43.38,10.67-2.55.45-10.35,1.75-14.7,7.89-1.33,1.88,2.57,4.64,6.28,3.99h-.02Z"/><polyline class="cls-8" points="632.36 515.11 656.7 496.82 650.65 487.91 645.41 479.48 639.84 473.91 631.08 462.61 625.84 457.37 619.79 448.78 597.68 420.94 580.34 414.73 578.88 413.42 579.99 412.31 574.91 407.04 562.98 417.68 566.63 422.07 568.5 421.5 569.13 422.9 570.98 439.18 595.06 469.09 601.15 475.42 605.32 482.22 614.03 493.07 619.64 501.07 631.39 514.14"/><path class="cls-3" d="m732.2,460.1c.41.04,1.03.05,1.74-.11.46-.1,1.83-.46,3.35-2.03,1.16-1.2,1.66-2.33,3.09-5.97.78-1.98,1.44-3.71,1.96-5.1,1.25-2.84,2.5-5.69,3.76-8.53l3.55-6c.31-.45.82-1.08,1.59-1.66.84-.63,1.66-.96,2.2-1.12-.86.04-2.09.17-3.48.59-4.8,1.44-8.83,5.41-10.57,9.92-1.89,4.9.36,6.69-1.43,11.86-1.36,3.93-3.93,6.58-5.76,8.14h0Z"/><path class="cls-3" d="m749.64,432.37c-9.28,13.81-8.49,25.01-15.7,27.62-.79.29-.83.16-4.79-.17-.75-.06-1.63-.13-2.69-.21-16-1.14-18.98.1-23.64-2.43-2.29-1.24-5.5-3.67-8.21-8.89-.03-2.09.06-5.36.81-9.25,2.05-10.54,6.67-13.59,6.36-21.31-.19-4.64-2.13-10.48-4.86-10.84-3.76-.5-8.01,9.53-10.47,15.33-6.03,14.22-4.23,18.93-8.97,28.04-3.95,7.59-7.64,9-16.08,17.57-6.49,6.6-15.05,16.68-23.18,31.41-10.61,14.59-10.81,21.67-8.6,25.43,4.47,7.6,18.01.19,36.64,8.6,16.32,7.36,19.67,19.25,31.03,18.32,7.37-.6,12.42-6.13,15.7-9.72,15.55-17.01,4.37-30.85,17-56.54,3.35-6.82,14.59-27.09,22.37-38.67,1.44-2.15,5.91-8.67,4.5-16.06-.43-2.26-5.13-1.36-7.23,1.77h0Z"/><path class="cls-3" d="m693.41,408.97c-1.62,2.64-3.74,6.32-5.94,10.89-1.36,2.83-2.3,4.76-3.3,7.49-2.34,6.4-2.35,9.3-3.77,14.33-.97,3.41-2.72,8.2-6.19,13.69.56-1.49,1.4-3.83,2.26-6.74,3.21-10.85,2.77-16.23,4.45-22.05,1.33-4.57,4.41-10.94,12.48-17.61h.01Z"/><polyline class="cls-4" points="597.88 496.33 616.56 524.13 626.3 518.48 635.51 513.63 641.66 508.17 654.06 499.83 659.86 494.69 669.26 489 699.83 467.87 707.09 449.85 708.55 448.4 709.69 449.7 715.51 444.73 704.58 430.95 699.75 434.46 700.29 436.51 698.77 437.06 681.3 437.54 648.44 460.6 641.45 466.54 634.03 470.39 622.11 478.72 613.36 483.99 598.96 495.38"/><polyline class="cls-4" points="835.38 449.27 852.32 420.38 842.99 414.06 834.63 407.87 827.04 404.7 814.15 397.15 807 394.16 797.8 388.15 765.49 369.79 746.1 371.07 744.16 370.39 744.83 368.8 737.83 365.71 730.16 381.54 735.42 384.37 737.04 382.99 738.19 384.12 746.2 399.66 781.24 419.25 789.63 422.96 796.32 427.97 809 435.1 817.55 440.69 834.06 448.72"/><path class="cls-1" d="m816.03,523.38c3.89-3.82,9.24-10.21,12.49-19.4,8-22.62-3.48-43.05-5.52-46.55-.84-5.44-3.17-14.55-10.58-21.82-1.21-1.19-2.45-2.22-3.67-3.12-24.47-1.26-39.23,4.45-48.33,10.22-9.58,6.08-13.76,12.77-27.77,17.83-6.58,2.38-11.88,3.15-13.95,7.7-2.45,5.37,1.31,12.3,4.47,18.14,3.4,6.28,7.44,10.68,10.35,13.42,3.98,11.47,15.99,42.32,35.84,44.17.81.08,1.63.1,2.47.08,5.34-4.08,10.68-8.16,16.02-12.24,1.85-1.83,4.31-3.91,7.45-5.81,1.76-1.07,3.45-1.91,5-2.57.4-.13,1.56-.44,2.91.02,1.08.37,1.73,1.05,2.01,1.37,3.19-.29,6.37-.57,9.56-.86l1.25-.59h0Z"/><path class="cls-1" d="m772.74,531.22c-9.87-2.51-15.56-7.11-18.43-9.92-6.31-6.18-12.17-16.61-14.01-27.91-.74-4.54-.64-8.07-3.44-11.94-3.2-4.41-8.08-6.37-11.75-7.34"/><path class="cls-1" d="m819.22,492.74c.88-1.57,4.07-7.66,1.74-13.87-.45-1.19-1.03-2.22-1.67-3.1"/><path class="cls-1" d="m807.54,453.05c-.33-1.19-1.65-5.37-5.77-7.96-4.3-2.7-9.97-2.63-14.7.11"/><polyline class="cls-8" points="822.04 506.98 849.56 520.01 854.63 510.52 859.65 501.95 861.99 494.43 867.92 481.42 870.13 474.34 874.92 465 889.27 432.47 886.7 414.24 887.18 412.33 888.68 412.8 890.98 405.85 876.02 400.23 873.83 405.51 875.2 406.9 874.25 408.11 860.7 417.32 845.43 452.56 842.66 460.88 838.58 467.75 833.02 480.51 828.56 489.19 822.45 505.67"/><path class="cls-2" d="m922.95,442.2c-5.45-.07-13.75.62-22.57,4.78-21.7,10.23-28.14,32.77-29.19,36.67-3.27,4.42-8.1,12.49-8.06,22.87,0,1.7.15,3.3.37,4.8,16.32,18.28,30.77,24.74,41.28,27.15,11.06,2.53,18.76.79,32.21,7.18,6.32,3,10.6,6.23,15.29,4.5,5.54-2.04,7.82-9.59,9.74-15.94,2.07-6.83,2.35-12.8,2.25-16.79,5.35-10.9,18.81-41.15,6.16-56.55-.52-.63-1.07-1.23-1.68-1.81-6.66-.92-13.31-1.84-19.97-2.77-2.6-.03-5.81-.31-9.37-1.21-2-.5-3.79-1.11-5.35-1.74-.37-.19-1.41-.8-2.03-2.09-.49-1.02-.47-1.96-.44-2.39-2.45-2.06-4.89-4.12-7.34-6.19l-1.3-.48h0Z"/><path class="cls-2" d="m983.73,427.31l-3.75,1.71-4.49,1.01-24.91,16.75-2.34,1.66-1.62,4.39,2.16,3.46c7.13,1.57,12.99,1.32,16.76.87,3.35-.4,14.67-2.11,22.42-9.43,0,0,4.81-4.55,5.91-10.46.07-.36.12-.82,0-1.35-.43-1.93-2.66-2.81-4.34-3.74-1.54-.85-3.63-2.3-5.79-4.88h0Z"/><path class="cls-2" d="m944.53,444.08l-9.53.61-3.41,4.17.67,3.65,5.04,2.5,6.76,1.32,4.22-.86-1.65-2.64,1.8-4.88,2.16-1.17c-.57-.58-1.63-1.5-3.21-2.11-1.13-.43-2.14-.56-2.85-.58h0Z"/><path class="cls-2" d="m932.45,407.9c-1.55.09-15.98,1.03-16.85,6.02-.11.63.05,1.22.38,2.37,1.3,4.54,3.65,5.58,5.45,8.96,1.53,2.87.46,3.31,2.25,11.31.63,2.84,1.29,5.12,1.72,6.55,1.87,1.75,3.74,3.51,5.61,5.26l.6.5,3.41-4.17,9.53-.61c-.9-13.86-3.65-23.85-5.3-26.79-2.26-4.01-3.52-5.04-3.52-5.04-.39-.32-1.28-.99-2.13-2.19-.59-.84-.94-1.62-1.14-2.15v-.02Z"/><path class="cls-2" d="m958.98,467.44c5.17,8.78,5.9,16.06,5.92,20.07.05,8.83-3.23,20.33-9.98,29.59-2.71,3.72-5.29,6.13-6.06,10.85-.88,5.37,1.16,10.22,3.06,13.51"/><path class="cls-2" d="m898.93,461.49c-1.74.48-8.3,2.5-11.08,8.53-.53,1.16-.85,2.3-1.03,3.37"/><path class="cls-2" d="m878.95,497.73c-.61,1.08-2.65,4.95-1.59,9.7,1.11,4.96,5.15,8.94,10.43,10.37"/><path class="cls-3" d="m1002.09,431.48c-.37-.19-.89-.52-1.41-1.03-.34-.34-1.29-1.37-1.72-3.52-.33-1.64-.14-2.86.63-6.69.42-2.09.8-3.9,1.11-5.35.48-3.07.97-6.14,1.45-9.21l.26-6.96c-.02-.55-.11-1.35-.44-2.25-.37-.99-.88-1.7-1.24-2.14.7.5,1.66,1.27,2.61,2.38,3.26,3.81,4.5,9.32,3.52,14.06-1.06,5.14-3.92,5.43-5.21,10.75-.98,4.04-.25,7.66.44,9.96h0Z"/><path class="cls-3" d="m1002.42,398.72c.34,16.64-6.39,25.63-1.73,31.73.51.67.61.58,4.12,2.45.66.35,1.45.77,2.38,1.28,14.07,7.7,15.91,10.35,21.2,10.74,2.6.19,6.61-.12,11.71-3.04,1.16-1.74,2.85-4.54,4.32-8.22,3.97-9.98,1.74-15.04,6.18-21.36,2.67-3.8,7.46-7.66,9.95-6.49,3.43,1.61,1.58,12.35.52,18.56-2.62,15.22-6.68,18.21-7.62,28.44-.78,8.52,1.56,11.7,4.02,23.48,1.89,9.06,3.64,22.17,2.51,38.96,1.03,18.01-2.63,24.07-6.52,26.04-7.88,3.97-15.25-9.58-35.47-12.58-17.71-2.63-26.96,5.55-36.01-1.37-5.87-4.49-7.13-11.87-7.95-16.67-3.88-22.72,13.01-28.31,16.27-56.76.87-7.55,2.38-30.68,2.1-44.62-.05-2.59-.28-10.49,4.9-15.95,1.58-1.67,5.05,1.63,5.13,5.4v-.02Z"/><path class="cls-3" d="m1062.37,409.44c-.07,3.09-.28,7.34-.89,12.37-.38,3.11-.64,5.25-1.28,8.08-1.49,6.64-3.05,9.09-4.58,14.1-1.03,3.39-2.14,8.37-2.2,14.86.33-1.55.89-3.98,1.74-6.89,3.17-10.87,6.45-15.15,8.18-20.95,1.36-4.56,2.21-11.59-.98-21.56h0Z"/><polyline class="cls-8" points="1074.35 357.91 1051.57 378.11 1058.31 386.5 1064.23 394.48 1070.23 399.58 1079.87 410.13 1085.51 414.93 1092.23 423.01 1116.52 448.97 1134.31 453.75 1135.87 454.94 1134.85 456.14 1140.35 460.98 1151.38 449.42 1147.38 445.33 1145.57 446.05 1144.83 444.7 1141.67 428.63 1115.24 400.76 1108.67 394.95 1103.95 388.51 1094.4 378.39 1088.16 370.87 1075.4 358.8"/><polyline class="cls-4" points="1094.15 507.04 1108.54 537.28 1119.01 533.11 1128.82 529.66 1135.71 525.17 1149.2 518.74 1155.69 514.51 1165.83 510.26 1199.16 493.84 1208.99 477.08 1210.65 475.87 1211.59 477.31 1218.08 473.25 1209.28 458.02 1203.99 460.78 1204.22 462.89 1202.64 463.21 1185.28 461.12 1149.4 479.11 1141.62 483.96 1133.71 486.68 1120.69 493.17 1111.26 497.1 1095.35 506.25"/><path class="cls-1" d="m1098.03,429.05c-5.45-.07-13.75.62-22.57,4.78-21.7,10.23-28.14,32.77-29.19,36.67-3.27,4.42-8.1,12.49-8.06,22.87,0,1.7.15,3.3.37,4.8,16.32,18.28,30.77,24.74,41.28,27.15,11.06,2.53,18.76.79,32.21,7.18,6.32,3,10.6,6.23,15.29,4.5,5.54-2.04,7.82-9.59,9.74-15.94,2.07-6.83,2.35-12.8,2.25-16.79,5.35-10.9,18.81-41.15,6.16-56.55-.52-.63-1.07-1.23-1.68-1.81-6.66-.92-13.31-1.84-19.97-2.77-2.6-.03-5.81-.31-9.37-1.21-2-.5-3.79-1.11-5.35-1.74-.37-.19-1.41-.8-2.03-2.09-.49-1.02-.47-1.96-.44-2.39-2.45-2.06-4.89-4.12-7.34-6.19l-1.3-.48h0Z"/><path class="cls-1" d="m1158.81,414.16l-3.75,1.71-4.49,1.01-24.91,16.75-2.34,1.66-1.62,4.39,2.16,3.46c7.13,1.57,12.99,1.32,16.76.87,3.35-.4,14.67-2.11,22.42-9.43,0,0,4.81-4.55,5.91-10.46.07-.36.12-.82,0-1.35-.43-1.93-2.66-2.81-4.34-3.74-1.54-.85-3.63-2.3-5.79-4.88h-.01Z"/><path class="cls-1" d="m1119.61,430.93l-9.53.61-3.41,4.17.67,3.65,5.04,2.5,6.76,1.32,4.22-.86-1.65-2.64,1.8-4.88,2.16-1.17c-.57-.58-1.63-1.5-3.21-2.11-1.13-.43-2.14-.56-2.85-.58h0Z"/><path class="cls-1" d="m1107.53,394.75c-1.55.09-15.98,1.03-16.85,6.02-.11.63.05,1.22.38,2.37,1.3,4.54,3.65,5.58,5.45,8.96,1.53,2.87.46,3.31,2.25,11.31.63,2.84,1.29,5.12,1.72,6.55,1.87,1.75,3.74,3.51,5.61,5.26l.6.5,3.41-4.17,9.53-.61c-.9-13.86-3.65-23.85-5.3-26.79-2.26-4.01-3.52-5.04-3.52-5.04-.39-.32-1.28-.99-2.13-2.19-.59-.84-.94-1.62-1.14-2.15v-.02Z"/><path class="cls-1" d="m1134.06,454.29c5.17,8.78,5.9,16.06,5.92,20.07.05,8.83-3.23,20.33-9.98,29.59-2.71,3.72-5.29,6.13-6.06,10.85-.88,5.37,1.16,10.22,3.06,13.51"/><path class="cls-1" d="m1074.01,448.34c-1.74.48-8.3,2.5-11.08,8.53-.53,1.16-.85,2.3-1.03,3.37"/><path class="cls-1" d="m1054.03,484.58c-.61,1.08-2.65,4.95-1.59,9.7,1.11,4.96,5.15,8.94,10.43,10.37"/><path class="cls-3" d="m1141.6,472.82c-.26-.32-.68-.77-1.28-1.18-.39-.26-1.6-1-3.78-1.01-1.67,0-2.83.41-6.44,1.91-1.97.81-3.67,1.54-5.03,2.12-2.92,1.07-5.84,2.14-8.76,3.2l-6.78,1.6c-.54.09-1.34.15-2.29,0-1.04-.17-1.84-.53-2.34-.81.63.59,1.57,1.38,2.84,2.1,4.36,2.46,10.02,2.62,14.48.74,4.84-2.03,4.57-4.9,9.54-7.19,3.77-1.74,7.47-1.72,9.85-1.49h0Z"/><path class="cls-3" d="m1109.52,479.46c16.39-2.88,23.91-11.21,30.8-7.82.76.37.69.48,3.2,3.57.47.58,1.04,1.27,1.72,2.08,10.27,12.33,13.23,13.62,14.63,18.73.69,2.51,1.16,6.51-.72,12.08-1.49,1.48-3.91,3.67-7.23,5.82-9.02,5.82-14.42,4.61-19.77,10.18-3.22,3.35-6.08,8.8-4.45,11.02,2.24,3.06,12.42-.83,18.31-3.07,14.43-5.51,16.58-10.07,26.44-12.96,8.21-2.41,11.78-.73,23.81-.58,9.26.11,22.45-.7,38.71-5.05,17.87-2.46,23.12-7.22,24.29-11.42,2.38-8.49-12.34-13.12-19.19-32.38-6-16.87.25-27.52-8.29-35.07-5.54-4.9-13.02-4.71-17.89-4.59-23.04.58-25.27,18.22-52.55,26.92-7.24,2.31-29.64,8.26-43.38,10.67-2.55.45-10.35,1.75-14.7,7.89-1.33,1.88,2.57,4.64,6.28,3.99h-.02Z"/><polyline class="cls-8" points="1277.24 514.27 1301.58 495.98 1295.54 487.07 1290.29 478.64 1284.72 473.07 1275.96 461.77 1270.72 456.53 1264.68 447.94 1242.57 420.1 1225.23 413.9 1223.77 412.58 1224.88 411.47 1219.79 406.2 1207.86 416.84 1211.51 421.23 1213.38 420.66 1214.01 422.06 1215.86 438.34 1239.95 468.26 1246.03 474.58 1250.21 481.38 1258.92 492.24 1264.52 500.23 1276.27 513.3"/><path class="cls-3" d="m1377.08,459.26c.41.04,1.03.05,1.74-.11.46-.1,1.83-.46,3.35-2.03,1.16-1.2,1.66-2.33,3.09-5.97.78-1.98,1.44-3.71,1.96-5.1,1.25-2.84,2.5-5.69,3.76-8.53l3.55-6c.31-.45.82-1.08,1.59-1.66.84-.63,1.66-.96,2.2-1.12-.86.04-2.09.17-3.48.59-4.8,1.44-8.83,5.41-10.57,9.92-1.89,4.9.36,6.69-1.43,11.86-1.36,3.93-3.93,6.58-5.76,8.14h0Z"/><path class="cls-3" d="m1394.53,431.53c-9.28,13.81-8.49,25.01-15.7,27.62-.79.29-.83.16-4.79-.17-.75-.06-1.63-.13-2.69-.21-16-1.14-18.98.1-23.64-2.43-2.29-1.24-5.5-3.67-8.21-8.89-.03-2.09.06-5.36.81-9.25,2.05-10.54,6.67-13.59,6.36-21.31-.19-4.64-2.13-10.48-4.86-10.84-3.76-.5-8.01,9.53-10.47,15.33-6.03,14.22-4.23,18.93-8.97,28.04-3.95,7.59-7.64,9-16.08,17.57-6.49,6.6-15.05,16.68-23.18,31.41-10.61,14.59-10.81,21.67-8.6,25.43,4.47,7.6,18.01.19,36.64,8.6,16.32,7.36,19.67,19.25,31.03,18.32,7.37-.6,12.42-6.13,15.7-9.72,15.55-17.01,4.37-30.85,17-56.54,3.35-6.82,14.59-27.09,22.37-38.67,1.44-2.15,5.91-8.67,4.5-16.06-.43-2.26-5.13-1.36-7.23,1.77h0Z"/><path class="cls-3" d="m1338.29,408.13c-1.62,2.64-3.74,6.32-5.94,10.89-1.36,2.83-2.3,4.76-3.3,7.49-2.34,6.4-2.35,9.3-3.77,14.33-.97,3.41-2.72,8.2-6.19,13.69.56-1.49,1.4-3.83,2.26-6.74,3.21-10.85,2.77-16.23,4.45-22.05,1.33-4.57,4.41-10.94,12.48-17.61h.01Z"/><polyline class="cls-4" points="1242.77 495.5 1261.44 523.29 1271.18 517.64 1280.39 512.79 1286.54 507.33 1298.94 498.99 1304.74 493.85 1314.14 488.17 1344.71 467.03 1351.97 449.01 1353.43 447.57 1354.58 448.86 1360.4 443.89 1349.46 430.11 1344.63 433.62 1345.17 435.68 1343.65 436.22 1326.18 436.7 1293.32 459.76 1286.34 465.7 1278.91 469.55 1266.99 477.88 1258.24 483.15 1243.84 494.54"/><polyline class="cls-4" points="1480.27 448.43 1497.2 419.54 1487.88 413.22 1479.51 407.03 1471.93 403.86 1459.03 396.31 1451.88 393.32 1442.68 387.32 1410.37 368.96 1390.98 370.24 1389.05 369.55 1389.71 367.96 1382.71 364.87 1375.04 380.71 1380.3 383.53 1381.92 382.15 1383.07 383.29 1391.09 398.82 1426.13 418.41 1434.51 422.12 1441.2 427.13 1453.88 434.26 1462.43 439.85 1478.94 447.88"/><path class="cls-1" d="m1460.91,522.54c3.89-3.82,9.24-10.21,12.49-19.4,8-22.62-3.48-43.05-5.52-46.55-.84-5.44-3.17-14.55-10.58-21.82-1.21-1.19-2.45-2.22-3.67-3.12-24.47-1.26-39.23,4.45-48.33,10.22-9.58,6.08-13.76,12.77-27.77,17.83-6.58,2.38-11.88,3.15-13.95,7.7-2.45,5.37,1.31,12.3,4.47,18.14,3.4,6.28,7.44,10.68,10.35,13.42,3.98,11.47,15.99,42.32,35.84,44.17.81.08,1.63.1,2.47.08,5.34-4.08,10.68-8.16,16.02-12.24,1.85-1.83,4.31-3.91,7.45-5.81,1.76-1.07,3.45-1.91,5-2.57.4-.13,1.56-.44,2.91.02,1.08.37,1.73,1.05,2.01,1.37,3.19-.29,6.37-.57,9.56-.86l1.25-.59h0Z"/><path class="cls-1" d="m1417.62,530.38c-9.87-2.51-15.56-7.11-18.43-9.92-6.31-6.18-12.17-16.61-14.01-27.91-.74-4.54-.64-8.07-3.44-11.94-3.2-4.41-8.08-6.37-11.75-7.34"/><path class="cls-1" d="m1464.11,491.9c.88-1.57,4.07-7.66,1.74-13.87-.45-1.19-1.03-2.22-1.67-3.1"/><path class="cls-1" d="m1452.42,452.21c-.33-1.19-1.65-5.37-5.77-7.96-4.3-2.7-9.97-2.63-14.7.11"/><polyline class="cls-8" points="1466.93 506.14 1494.44 519.17 1499.52 509.68 1504.54 501.11 1506.88 493.59 1512.81 480.59 1515.01 473.5 1519.8 464.16 1534.16 431.64 1531.58 413.4 1532.06 411.5 1533.56 411.96 1535.86 405.01 1520.9 399.39 1518.71 404.67 1520.08 406.06 1519.13 407.27 1505.58 416.48 1490.31 451.72 1487.54 460.05 1483.47 466.91 1477.91 479.67 1473.44 488.35 1467.34 504.83"/><path class="cls-2" d="m1567.83,441.36c-5.45-.07-13.75.62-22.57,4.78-21.7,10.23-28.14,32.77-29.19,36.67-3.27,4.42-8.1,12.49-8.06,22.87,0,1.7.15,3.3.37,4.8,16.32,18.28,30.77,24.74,41.28,27.15,11.06,2.53,18.76.79,32.21,7.18,6.32,3,10.6,6.23,15.29,4.5,5.54-2.04,7.82-9.59,9.74-15.94,2.07-6.83,2.35-12.8,2.25-16.79,5.35-10.9,18.81-41.15,6.16-56.55-.52-.63-1.07-1.23-1.68-1.81-6.66-.92-13.31-1.84-19.97-2.77-2.6-.03-5.81-.31-9.37-1.21-2-.5-3.79-1.11-5.35-1.74-.37-.19-1.41-.8-2.03-2.09-.49-1.02-.47-1.96-.44-2.39-2.45-2.06-4.89-4.12-7.34-6.19l-1.3-.48h0Z"/><path class="cls-3" d="m-137.66,482.66c16.39-2.88,23.91-11.21,30.8-7.82.76.37.69.48,3.2,3.57.47.58,1.04,1.27,1.72,2.08,10.27,12.33,13.23,13.62,14.63,18.73.69,2.51,1.16,6.51-.72,12.08-1.49,1.48-3.91,3.67-7.23,5.82-9.02,5.82-14.42,4.61-19.77,10.18-3.22,3.35-6.08,8.8-4.45,11.02,2.24,3.06,12.42-.83,18.31-3.07,14.43-5.51,16.58-10.07,26.44-12.96,8.21-2.41,11.78-.73,23.81-.58,9.26.11,22.45-.7,38.71-5.05,17.87-2.46,23.12-7.22,24.29-11.42,2.38-8.49-12.34-13.12-19.19-32.38-6-16.87.25-27.52-8.29-35.07-5.54-4.9-13.02-4.71-17.89-4.59-23.04.58-25.27,18.22-52.55,26.92-7.24,2.31-29.64,8.26-43.38,10.67-2.55.45-10.35,1.75-14.7,7.89-1.33,1.88,2.57,4.64,6.28,3.99h-.02Z"/><polyline class="cls-8" points="30.06 517.46 54.4 499.17 48.35 490.26 43.1 481.83 37.53 476.26 28.78 464.96 23.54 459.72 17.49 451.13 -4.62 423.29 -21.96 417.09 -23.42 415.78 -22.31 414.67 -27.4 409.39 -39.33 420.03 -35.67 424.42 -33.81 423.85 -33.18 425.26 -31.33 441.53 -7.24 471.45 -1.15 477.77 3.02 484.57 11.73 495.43 17.34 503.42 29.09 516.49"/><path class="cls-3" d="m129.9,462.45c.41.04,1.03.05,1.74-.11.46-.1,1.83-.46,3.35-2.03,1.16-1.2,1.66-2.33,3.09-5.97.78-1.98,1.44-3.71,1.96-5.1,1.25-2.84,2.5-5.69,3.76-8.53l3.55-6c.31-.45.82-1.08,1.59-1.66.84-.63,1.66-.96,2.2-1.12-.86.04-2.09.17-3.48.59-4.8,1.44-8.83,5.41-10.57,9.92-1.89,4.9.36,6.69-1.43,11.86-1.36,3.93-3.93,6.58-5.76,8.14h0Z"/><path class="cls-3" d="m147.34,434.72c-9.28,13.81-8.49,25.01-15.7,27.62-.79.29-.83.16-4.79-.17-.75-.06-1.63-.13-2.69-.21-16-1.14-18.98.1-23.64-2.43-2.29-1.24-5.5-3.67-8.21-8.89-.03-2.09.06-5.36.81-9.25,2.05-10.54,6.67-13.59,6.36-21.31-.19-4.64-2.13-10.48-4.86-10.84-3.76-.5-8.01,9.53-10.47,15.33-6.03,14.22-4.23,18.93-8.97,28.04-3.95,7.59-7.64,9-16.08,17.57-6.49,6.6-15.05,16.68-23.18,31.41-10.61,14.59-10.81,21.67-8.6,25.43,4.47,7.6,18.01.19,36.64,8.6,16.32,7.36,19.67,19.25,31.03,18.32,7.37-.6,12.42-6.13,15.7-9.72,15.55-17.01,4.37-30.85,17-56.54,3.35-6.82,14.59-27.09,22.37-38.67,1.44-2.15,5.91-8.67,4.5-16.06-.43-2.26-5.13-1.36-7.23,1.77h.01Z"/><path class="cls-3" d="m91.11,411.32c-1.62,2.64-3.74,6.32-5.94,10.89-1.36,2.83-2.3,4.76-3.3,7.49-2.34,6.4-2.35,9.3-3.77,14.33-.97,3.41-2.72,8.2-6.19,13.69.56-1.49,1.4-3.83,2.26-6.74,3.21-10.85,2.77-16.23,4.45-22.05,1.33-4.57,4.41-10.94,12.48-17.61h.01Z"/><polyline class="cls-4" points="-4.42 498.69 14.25 526.49 24 520.83 33.2 515.98 39.36 510.53 51.76 502.18 57.55 497.05 66.96 491.36 97.52 470.23 104.79 452.2 106.24 450.76 107.39 452.05 113.21 447.09 102.27 433.3 97.44 436.81 97.99 438.87 96.46 439.41 78.99 439.89 46.13 462.95 39.15 468.89 31.73 472.74 19.81 481.08 11.06 486.35 -3.34 497.74"/><polyline class="cls-4" points="233.08 451.63 250.02 422.74 240.69 416.41 232.33 410.23 224.74 407.05 211.84 399.5 204.7 396.51 195.49 390.51 163.18 372.15 143.8 373.43 141.86 372.74 142.53 371.15 135.53 368.06 127.86 383.9 133.12 386.73 134.74 385.34 135.89 386.48 143.9 402.01 178.94 421.6 187.32 425.31 194.01 430.33 206.7 437.45 215.25 443.04 231.76 451.07"/><path class="cls-1" d="m213.72,525.74c3.89-3.82,9.24-10.21,12.49-19.4,8-22.62-3.48-43.05-5.52-46.55-.84-5.44-3.17-14.55-10.58-21.82-1.21-1.19-2.45-2.22-3.67-3.12-24.47-1.26-39.23,4.45-48.33,10.22-9.58,6.08-13.76,12.77-27.77,17.83-6.58,2.38-11.88,3.15-13.95,7.7-2.45,5.37,1.31,12.3,4.47,18.14,3.4,6.28,7.44,10.68,10.35,13.42,3.98,11.47,15.99,42.32,35.84,44.17.81.08,1.63.1,2.47.08,5.34-4.08,10.68-8.16,16.02-12.24,1.85-1.83,4.31-3.91,7.45-5.81,1.76-1.07,3.45-1.91,5-2.57.4-.13,1.56-.44,2.91.02,1.08.37,1.73,1.05,2.01,1.37,3.19-.29,6.37-.57,9.56-.86l1.25-.59h0Z"/><path class="cls-1" d="m170.43,533.57c-9.87-2.51-15.56-7.11-18.43-9.92-6.31-6.18-12.17-16.61-14.01-27.91-.74-4.54-.64-8.07-3.44-11.94-3.2-4.41-8.08-6.37-11.75-7.34"/><path class="cls-1" d="m216.92,495.09c.88-1.57,4.07-7.66,1.74-13.87-.45-1.19-1.03-2.22-1.67-3.1"/><path class="cls-1" d="m205.23,455.4c-.33-1.19-1.65-5.37-5.77-7.96-4.3-2.7-9.97-2.63-14.7.11"/><polyline class="cls-8" points="219.74 509.33 247.26 522.37 252.33 512.87 257.35 504.3 259.69 496.79 265.62 483.78 267.82 476.7 272.61 467.35 286.97 434.83 284.4 416.59 284.88 414.69 286.38 415.16 288.68 408.2 273.71 402.59 271.52 407.86 272.9 409.25 271.95 410.46 258.4 419.67 243.12 454.91 240.36 463.24 236.28 470.1 230.72 482.86 226.25 491.54 220.15 508.02"/><path class="cls-2" d="m320.65,444.55c-5.45-.07-13.75.62-22.57,4.78-21.7,10.23-28.14,32.77-29.19,36.67-3.27,4.42-8.1,12.49-8.06,22.87,0,1.7.15,3.3.37,4.8,16.32,18.28,30.77,24.74,41.28,27.15,11.06,2.53,18.76.79,32.21,7.18,6.32,3,10.6,6.23,15.29,4.5,5.54-2.04,7.82-9.59,9.74-15.94,2.07-6.83,2.35-12.8,2.25-16.79,5.35-10.9,18.81-41.15,6.16-56.55-.52-.63-1.07-1.23-1.68-1.81-6.66-.92-13.31-1.84-19.97-2.77-2.6-.03-5.81-.31-9.37-1.21-2-.5-3.79-1.11-5.35-1.74-.37-.19-1.41-.8-2.03-2.09-.49-1.02-.47-1.96-.44-2.39-2.45-2.06-4.89-4.12-7.34-6.19l-1.3-.48h0Z"/><path class="cls-2" d="m381.43,429.67l-3.75,1.71-4.49,1.01-24.91,16.75-2.34,1.66-1.62,4.39,2.16,3.46c7.13,1.57,12.99,1.32,16.76.87,3.35-.4,14.67-2.11,22.42-9.43,0,0,4.81-4.55,5.91-10.46.07-.36.12-.82,0-1.35-.43-1.93-2.66-2.81-4.34-3.74-1.54-.85-3.63-2.3-5.79-4.88h-.01Z"/><path class="cls-2" d="m342.22,446.44l-9.53.61-3.41,4.17.67,3.65,5.04,2.5,6.76,1.32,4.22-.86-1.65-2.64,1.8-4.88,2.16-1.17c-.57-.58-1.63-1.5-3.21-2.11-1.13-.43-2.14-.56-2.85-.58h0Z"/><path class="cls-2" d="m330.14,410.26c-1.55.09-15.98,1.03-16.85,6.02-.11.63.05,1.22.38,2.37,1.3,4.54,3.65,5.58,5.45,8.96,1.53,2.87.46,3.31,2.25,11.31.63,2.84,1.29,5.12,1.72,6.55,1.87,1.75,3.74,3.51,5.61,5.26l.6.5,3.41-4.17,9.53-.61c-.9-13.86-3.65-23.85-5.3-26.79-2.26-4.01-3.52-5.04-3.52-5.04-.39-.32-1.28-.99-2.13-2.19-.59-.84-.94-1.62-1.14-2.15v-.02Z"/><path class="cls-2" d="m356.68,469.8c5.17,8.78,5.9,16.06,5.92,20.07.05,8.83-3.23,20.33-9.98,29.59-2.71,3.72-5.29,6.13-6.06,10.85-.88,5.37,1.16,10.22,3.06,13.51"/><path class="cls-2" d="m296.63,463.85c-1.74.48-8.3,2.5-11.08,8.53-.53,1.16-.85,2.3-1.03,3.37"/><path class="cls-2" d="m276.65,500.08c-.61,1.08-2.65,4.95-1.59,9.7,1.11,4.96,5.15,8.94,10.43,10.37"/><path class="cls-3" d="m399.79,433.83c-.37-.19-.89-.52-1.41-1.03-.34-.34-1.29-1.37-1.72-3.52-.33-1.64-.14-2.86.63-6.69.42-2.09.8-3.9,1.11-5.35.48-3.07.97-6.14,1.45-9.21l.26-6.96c-.02-.55-.11-1.35-.44-2.25-.37-.99-.88-1.7-1.24-2.14.7.5,1.66,1.27,2.61,2.38,3.26,3.81,4.5,9.32,3.52,14.06-1.06,5.14-3.92,5.43-5.21,10.75-.98,4.04-.25,7.66.44,9.96Z"/><path class="cls-3" d="m400.11,401.07c.34,16.64-6.39,25.63-1.73,31.73.51.67.61.58,4.12,2.45.66.35,1.45.77,2.38,1.28,14.07,7.7,15.91,10.35,21.2,10.74,2.6.19,6.61-.12,11.71-3.04,1.16-1.74,2.85-4.54,4.32-8.22,3.97-9.98,1.74-15.04,6.18-21.36,2.67-3.8,7.46-7.66,9.95-6.49,3.43,1.61,1.58,12.35.52,18.56-2.62,15.22-6.68,18.21-7.62,28.44-.78,8.52,1.56,11.7,4.02,23.48,1.89,9.06,3.64,22.17,2.51,38.96,1.03,18.01-2.63,24.07-6.52,26.04-7.88,3.97-15.25-9.58-35.47-12.58-17.71-2.63-26.96,5.55-36.01-1.37-5.87-4.49-7.13-11.87-7.95-16.67-3.88-22.72,13.01-28.31,16.27-56.76.87-7.55,2.38-30.68,2.1-44.62-.05-2.59-.28-10.49,4.9-15.95,1.58-1.67,5.05,1.63,5.13,5.4v-.02Z"/><path class="cls-3" d="m460.07,411.8c-.07,3.09-.28,7.34-.89,12.37-.38,3.11-.64,5.25-1.28,8.08-1.49,6.64-3.05,9.09-4.58,14.1-1.03,3.39-2.14,8.37-2.2,14.86.33-1.55.89-3.98,1.74-6.89,3.17-10.87,6.45-15.15,8.18-20.95,1.36-4.56,2.21-11.59-.98-21.56h.01Z"/><polyline class="cls-8" points="472.05 360.26 449.26 380.46 456.01 388.85 461.92 396.83 467.92 401.93 477.56 412.49 483.21 417.29 489.93 425.36 514.22 451.32 532 456.11 533.57 457.3 532.55 458.49 538.04 463.34 549.08 451.77 545.08 447.69 543.27 448.41 542.52 447.06 539.37 430.98 512.94 403.11 506.36 397.3 501.65 390.86 492.09 380.74 485.86 373.23 473.09 361.15"/><polyline class="cls-4" points="491.84 509.39 506.24 539.63 516.7 535.46 526.52 532.02 533.41 527.53 546.9 521.09 553.39 516.86 563.52 512.62 596.86 496.2 606.69 479.44 608.34 478.22 609.29 479.67 615.77 475.61 606.98 460.37 601.68 463.13 601.92 465.25 600.33 465.56 582.98 463.47 547.09 481.46 539.32 486.31 531.41 489.03 518.39 495.52 508.96 499.46 493.05 508.61"/><path class="cls-6" d="m804.44,20.18c-.12,0-.21-.04-.29-.11s-.11-.17-.11-.29v-10.4c0-.12.04-.21.11-.29s.17-.11.29-.11h1.7c.12,0,.21.04.29.11.07.07.11.17.11.29v3.65l3.3-3.74c.04-.06.12-.13.22-.2.1-.07.24-.1.41-.1h1.94c.1,0,.18.04.24.1.06.07.1.15.1.23,0,.07-.02.14-.06.19l-4.11,4.83,4.42,5.31s.06.11.06.19-.03.16-.1.23c-.06.07-.14.1-.24.1h-2c-.19,0-.34-.04-.43-.13-.1-.09-.16-.14-.19-.18l-3.54-4.1v4c0,.12-.04.21-.11.29-.08.07-.17.11-.29.11h-1.7Z"/><path class="cls-6" d="m816.96,20.34c-.62,0-1.17-.14-1.64-.42-.47-.28-.84-.69-1.1-1.23-.26-.54-.39-1.19-.39-1.96v-4.46c0-.12.04-.21.11-.29.07-.07.17-.11.27-.11h1.7c.12,0,.21.04.29.11s.11.17.11.29v4.37c0,1.19.52,1.79,1.57,1.79.5,0,.9-.16,1.19-.47.29-.31.44-.75.44-1.32v-4.37c0-.12.04-.21.11-.29.08-.07.17-.11.29-.11h1.7c.11,0,.2.04.27.11.08.07.11.17.11.29v7.52c0,.12-.04.21-.11.29-.07.07-.17.11-.27.11h-1.57c-.12,0-.21-.04-.29-.11-.07-.07-.11-.17-.11-.29v-.62c-.28.38-.63.68-1.07.88s-.97.3-1.6.3Z"/><path class="cls-6" d="m824.38,20.18c-.11,0-.2-.04-.27-.11-.08-.07-.11-.17-.11-.29v-7.52c0-.12.04-.21.11-.29.07-.07.17-.11.27-.11h1.57c.12,0,.21.04.29.11.07.07.11.17.11.29v.62c.28-.34.63-.62,1.07-.85s.97-.34,1.6-.34,1.18.14,1.66.42c.47.28.85.69,1.12,1.23.27.54.41,1.19.41,1.96v4.46c0,.12-.04.21-.12.29s-.17.11-.28.11h-1.7c-.12,0-.21-.04-.29-.11-.08-.07-.11-.17-.11-.29v-4.37c0-.56-.14-1.01-.41-1.32-.27-.31-.67-.47-1.19-.47s-.9.16-1.2.47-.45.75-.45,1.32v4.37c0,.12-.04.21-.11.29-.08.07-.17.11-.27.11h-1.7Z"/><path class="cls-6" d="m841.66,20.35c-.96,0-1.77-.15-2.42-.46-.65-.31-1.14-.71-1.48-1.22s-.51-1.03-.54-1.6c0-.1.03-.18.1-.24.06-.06.14-.1.24-.1h1.81c.13,0,.23.03.31.09s.14.14.18.23c.11.29.25.52.42.7.18.18.38.31.62.4.23.09.49.13.75.13.34,0,.66-.07.94-.22s.52-.35.69-.63c.17-.28.26-.62.26-1.02,0-.35-.08-.66-.24-.93s-.38-.47-.67-.62-.61-.22-.98-.22c-.28,0-.5.03-.68.1s-.32.14-.44.23c-.12.09-.22.17-.32.24-.1.07-.2.1-.32.1h-1.78c-.1,0-.18-.03-.25-.1s-.1-.15-.1-.25l.56-5.52c.02-.15.08-.26.17-.34s.2-.12.33-.12h6.21c.12,0,.21.04.29.11s.11.17.11.29v1.28c0,.11-.04.2-.11.27-.07.07-.17.11-.29.11h-4.62l-.24,2.35c.21-.14.48-.26.79-.38.32-.11.75-.17,1.32-.17.51,0,1,.08,1.46.25.46.17.88.41,1.24.73s.65.7.86,1.14c.21.44.31.95.31,1.51,0,.77-.18,1.44-.54,2.02s-.88,1.03-1.55,1.36-1.47.49-2.4.49Z"/><path class="cls-6" d="m849.83,14.63c-.73,0-1.3-.19-1.72-.57-.42-.38-.65-.89-.7-1.53-.02-.28-.03-.52-.02-.73,0-.21.01-.46.02-.76.03-.65.25-1.17.66-1.56.41-.39.99-.58,1.75-.58s1.35.19,1.76.58c.41.39.62.91.66,1.56.02.3.03.55.03.76s-.01.45-.03.73c-.03.64-.26,1.15-.69,1.53-.43.38-1,.57-1.73.57Zm-1.3,5.55c-.24,0-.35-.11-.35-.32,0-.06.02-.12.06-.18l7.9-10.4c.08-.1.15-.17.22-.22.07-.05.18-.08.32-.08h.99c.23,0,.35.11.35.32,0,.06-.02.12-.06.18l-7.9,10.4c-.07.1-.15.17-.22.22-.07.05-.18.08-.33.08h-.99Zm1.3-6.85c.2,0,.36-.04.48-.13.12-.08.21-.2.26-.34.06-.14.09-.28.1-.42.02-.26.03-.48.03-.68s-.01-.41-.03-.65c-.01-.22-.08-.43-.21-.62s-.34-.28-.64-.28-.51.09-.63.28c-.12.19-.2.39-.22.62-.01.23-.02.45-.02.65s0,.42.02.68c.02.14.06.28.11.42s.14.25.26.34c.12.09.28.13.48.13Zm6.58,6.93c-.73,0-1.3-.19-1.72-.58-.42-.38-.65-.9-.7-1.54-.02-.28-.03-.52-.02-.74,0-.21.01-.47.02-.77.03-.64.25-1.16.66-1.55.41-.39.99-.59,1.75-.59s1.34.2,1.75.59c.41.39.63.91.66,1.55.02.3.03.55.03.77s-.01.46-.03.74c-.03.64-.26,1.15-.7,1.54-.43.38-1.01.58-1.72.58Zm0-1.31c.2,0,.36-.04.48-.13s.21-.2.26-.34.09-.28.1-.43c.02-.25.03-.47.03-.66s-.01-.42-.03-.66c-.01-.22-.08-.43-.21-.61-.13-.18-.34-.27-.64-.27s-.51.09-.63.27c-.12.18-.19.38-.22.61-.01.25-.02.47-.02.66s0,.42.02.66c.02.15.06.29.1.43s.13.25.26.34c.12.09.29.13.49.13Z"/><path class="cls-6" d="m866.47,20.34c-.57,0-1.07-.11-1.52-.33-.45-.22-.8-.51-1.07-.89-.27-.37-.4-.79-.4-1.25,0-.76.31-1.35.92-1.79.61-.44,1.42-.74,2.42-.9l2.1-.3v-.29c0-.42-.1-.74-.29-.96-.19-.22-.53-.34-1.01-.34-.35,0-.63.07-.85.21-.21.14-.38.32-.5.54-.08.14-.21.21-.37.21h-1.52c-.12,0-.21-.03-.27-.1-.06-.07-.09-.15-.08-.25,0-.18.07-.39.21-.64.14-.25.35-.49.64-.73.29-.24.66-.44,1.1-.6.45-.16,1-.24,1.65-.24s1.25.08,1.73.24c.48.16.86.38,1.15.67s.5.62.64,1,.21.79.21,1.22v4.94c0,.12-.04.21-.11.29-.08.07-.17.11-.29.11h-1.57c-.11,0-.2-.04-.27-.11-.08-.07-.11-.17-.11-.29v-.59c-.14.2-.33.39-.56.57-.24.18-.52.32-.84.42s-.71.16-1.14.16Zm.64-1.66c.35,0,.67-.07.94-.22s.5-.38.66-.69c.16-.31.24-.7.24-1.17v-.27l-1.49.24c-.58.1-1,.24-1.26.43s-.4.43-.4.7c0,.2.06.38.18.53.12.15.29.26.49.34.2.08.42.11.64.11Z"/><path class="cls-6" d="m874.55,20.18c-.12,0-.21-.04-.29-.11-.08-.07-.11-.17-.11-.29v-6.03h-1.25c-.12,0-.21-.04-.29-.11-.07-.07-.11-.17-.11-.29v-1.09c0-.12.04-.21.11-.29.08-.07.17-.11.29-.11h1.25v-.58c0-.68.13-1.24.38-1.68.26-.44.63-.76,1.12-.96.49-.2,1.09-.3,1.81-.3h1.17c.12,0,.21.04.29.11.07.07.11.17.11.29v1.09c0,.12-.04.21-.11.29-.08.07-.17.11-.29.11h-1.07c-.39,0-.67.1-.82.29s-.23.47-.23.85v.5h1.97c.12,0,.21.04.29.11.07.07.11.17.11.29v1.09c0,.12-.04.21-.11.29-.08.07-.17.11-.29.11h-1.97v6.03c0,.12-.04.21-.11.29-.08.07-.17.11-.27.11h-1.57Z"/><path class="cls-6" d="m883.71,23.22c-.12,0-.21-.04-.29-.11s-.11-.17-.11-.29v-10.56c0-.12.04-.21.11-.29.07-.07.17-.11.29-.11h1.52c.12,0,.21.04.29.11s.11.17.11.29v.61c.26-.34.59-.62.99-.84.41-.22.91-.33,1.52-.33.55,0,1.04.09,1.45.26.41.18.76.43,1.04.75.28.33.5.72.66,1.18.15.46.24.98.26,1.55.01.2.02.39.02.58s0,.38-.02.59c-.01.54-.09,1.05-.25,1.5s-.38.85-.66,1.18-.64.59-1.05.77c-.41.18-.89.27-1.45.27s-1.02-.1-1.42-.3c-.4-.2-.73-.47-.98-.81v3.58c0,.12-.04.21-.11.29-.08.07-.17.11-.27.11h-1.65Zm3.71-4.8c.41,0,.73-.09.96-.26.23-.18.4-.41.5-.7.1-.29.16-.6.18-.94.02-.33.02-.66,0-.99-.02-.34-.08-.66-.18-.94s-.27-.52-.5-.7c-.23-.18-.55-.26-.96-.26s-.71.09-.96.27c-.25.18-.42.41-.53.69-.11.28-.17.58-.19.9-.01.19-.02.39-.02.59s0,.41.02.61c0,.3.08.58.2.84.12.26.3.48.54.65.24.17.55.26.94.26Z"/><path class="cls-6" d="m893.66,20.18c-.12,0-.21-.04-.29-.11-.08-.07-.11-.17-.11-.29v-10.56c0-.12.04-.21.11-.29.07-.07.17-.11.29-.11h1.6c.11,0,.2.04.27.11.07.07.11.17.11.29v10.56c0,.12-.04.21-.11.29-.08.07-.17.11-.27.11h-1.6Z"/><path class="cls-6" d="m900.11,20.34c-.57,0-1.07-.11-1.52-.33-.45-.22-.8-.51-1.07-.89-.27-.37-.4-.79-.4-1.25,0-.76.31-1.35.92-1.79.61-.44,1.42-.74,2.42-.9l2.1-.3v-.29c0-.42-.1-.74-.29-.96-.19-.22-.53-.34-1.01-.34-.35,0-.63.07-.85.21-.21.14-.38.32-.5.54-.08.14-.21.21-.37.21h-1.52c-.12,0-.21-.03-.27-.1-.06-.07-.09-.15-.08-.25,0-.18.07-.39.21-.64.14-.25.35-.49.64-.73.29-.24.66-.44,1.1-.6.45-.16,1-.24,1.65-.24s1.25.08,1.73.24c.48.16.86.38,1.15.67s.5.62.64,1,.21.79.21,1.22v4.94c0,.12-.04.21-.11.29-.08.07-.17.11-.29.11h-1.57c-.11,0-.2-.04-.27-.11-.08-.07-.11-.17-.11-.29v-.59c-.14.2-.33.39-.56.57-.24.18-.52.32-.84.42s-.71.16-1.14.16Zm.64-1.66c.35,0,.67-.07.94-.22s.5-.38.66-.69c.16-.31.24-.7.24-1.17v-.27l-1.49.24c-.58.1-1,.24-1.26.43s-.4.43-.4.7c0,.2.06.38.18.53.12.15.29.26.49.34.2.08.42.11.64.11Z"/><path class="cls-6" d="m910.22,20.34c-.66,0-1.23-.08-1.7-.23-.47-.15-.86-.34-1.15-.57-.29-.22-.51-.45-.66-.68-.14-.23-.22-.42-.23-.58-.01-.12.03-.21.11-.29.08-.07.17-.11.26-.11h1.55s.06,0,.1.02c.03.01.06.04.1.08.14.1.28.21.43.33s.32.23.52.31c.2.09.45.13.74.13.35,0,.65-.07.9-.22.25-.14.37-.35.37-.62,0-.19-.06-.35-.17-.48-.11-.13-.32-.25-.63-.35-.31-.11-.77-.22-1.38-.35-.58-.13-1.07-.3-1.47-.51s-.71-.48-.91-.81c-.2-.33-.3-.72-.3-1.18,0-.42.13-.82.39-1.2.26-.38.65-.7,1.16-.95.51-.25,1.15-.38,1.92-.38.59,0,1.1.07,1.54.22.44.14.81.33,1.11.54.3.22.53.44.68.67.16.23.24.43.25.6.01.11-.02.2-.1.27s-.16.11-.26.11h-1.42c-.05,0-.1,0-.14-.02-.04-.02-.08-.04-.11-.07-.13-.08-.26-.18-.39-.3-.13-.11-.29-.21-.47-.3-.18-.09-.42-.13-.7-.13-.35,0-.62.08-.81.23-.19.15-.28.35-.28.58,0,.15.05.29.14.42.1.13.29.25.59.35.3.11.75.22,1.36.34.73.13,1.3.32,1.73.58.43.26.73.55.92.89s.28.7.28,1.08c0,.5-.15.95-.45,1.34-.3.39-.73.69-1.3.91-.57.22-1.27.33-2.1.33Z"/><path class="cls-6" d="m919.58,20.18c-.66,0-1.23-.11-1.7-.33-.47-.22-.82-.56-1.06-1.02-.24-.46-.36-1.03-.36-1.73v-3.36h-1.25c-.12,0-.21-.04-.29-.11-.07-.07-.11-.17-.11-.29v-1.09c0-.12.04-.21.11-.29.08-.07.17-.11.29-.11h1.25v-2.64c0-.12.04-.21.12-.29.08-.07.17-.11.28-.11h1.57c.12,0,.21.04.29.11.08.07.11.17.11.29v2.64h2c.11,0,.2.04.27.11.07.07.11.17.11.29v1.09c0,.12-.04.21-.11.29-.08.07-.17.11-.27.11h-2v3.17c0,.41.07.72.22.95.14.23.4.34.76.34h1.17c.11,0,.2.04.27.11s.11.17.11.27v1.18c0,.12-.04.21-.11.29s-.17.11-.27.11h-1.39Z"/><path class="cls-6" d="m923.08,10.58c-.11,0-.2-.04-.27-.11-.08-.07-.11-.17-.11-.29v-1.28c0-.12.04-.22.11-.3.07-.08.17-.12.27-.12h1.68c.12,0,.22.04.3.12.08.08.12.18.12.3v1.28c0,.12-.04.21-.12.29s-.18.11-.3.11h-1.68Zm.05,9.6c-.11,0-.2-.04-.27-.11-.08-.07-.11-.17-.11-.29v-7.52c0-.12.04-.21.11-.29.07-.07.17-.11.27-.11h1.6c.12,0,.21.04.29.11.07.07.11.17.11.29v7.52c0,.12-.04.21-.11.29-.08.07-.17.11-.29.11h-1.6Z"/><path class="cls-6" d="m927.53,20.18c-.12,0-.21-.04-.29-.11-.08-.07-.11-.17-.11-.29v-10.56c0-.12.04-.21.11-.29.07-.07.17-.11.29-.11h1.57c.11,0,.2.04.27.11.07.07.11.17.11.29v5.41l2.46-2.5c.08-.07.16-.14.23-.19.07-.05.18-.08.33-.08h1.81c.11,0,.19.03.26.1.06.07.1.15.1.25,0,.04-.01.09-.03.14-.02.05-.06.1-.11.13l-3.09,3.1,3.49,3.98c.1.09.14.17.14.26,0,.1-.04.18-.1.25s-.15.1-.25.1h-1.86c-.16,0-.28-.03-.34-.08-.07-.05-.15-.12-.23-.19l-2.8-3.14v3.01c0,.12-.04.21-.11.29-.08.07-.17.11-.27.11h-1.57Z"/><path class="cls-6" d="m936.6,20.18c-.12,0-.21-.04-.29-.11-.08-.07-.11-.17-.11-.29v-10.56c0-.12.04-.21.11-.29.07-.07.17-.11.29-.11h1.57c.11,0,.2.04.27.11.07.07.11.17.11.29v5.41l2.46-2.5c.08-.07.16-.14.23-.19.07-.05.18-.08.33-.08h1.81c.11,0,.19.03.26.1.06.07.1.15.1.25,0,.04-.01.09-.03.14-.02.05-.06.1-.11.13l-3.09,3.1,3.49,3.98c.1.09.14.17.14.26,0,.1-.04.18-.1.25s-.15.1-.25.1h-1.86c-.16,0-.28-.03-.34-.08-.07-.05-.15-.12-.23-.19l-2.8-3.14v3.01c0,.12-.04.21-.11.29-.08.07-.17.11-.27.11h-1.57Z"/><path class="cls-6" d="m948.62,20.34c-1.23,0-2.2-.34-2.92-1.02s-1.1-1.67-1.14-2.98v-.69c.04-.82.23-1.53.56-2.12.33-.59.79-1.05,1.39-1.36.6-.31,1.3-.47,2.1-.47.9,0,1.65.18,2.25.55.6.37,1.06.87,1.36,1.5.3.63.46,1.36.46,2.18v.37c0,.11-.04.2-.12.27-.08.07-.17.11-.28.11h-5.23v.13c.01.34.08.65.2.94s.3.51.53.68c.23.17.5.26.82.26.27,0,.48-.04.66-.11.17-.07.31-.17.42-.27.11-.11.2-.2.25-.27.1-.11.17-.17.23-.2.06-.03.15-.04.28-.04h1.66c.11,0,.19.03.26.09s.1.14.09.25c-.01.17-.1.38-.26.63-.17.25-.41.5-.73.74-.32.24-.72.44-1.19.6-.48.16-1.02.24-1.64.24Zm-1.58-5.1h3.14v-.03c0-.38-.06-.72-.18-1-.12-.28-.3-.5-.54-.66-.23-.16-.52-.24-.85-.24s-.61.08-.85.24c-.24.16-.41.38-.54.66-.12.28-.18.62-.18,1v.03Z"/><path class="cls-6" d="m954.65,20.18c-.11,0-.2-.04-.27-.11-.08-.07-.11-.17-.11-.29v-7.52c0-.12.04-.21.11-.29.07-.07.17-.11.27-.11h1.57c.12,0,.21.04.29.11.07.07.11.17.11.29v.62c.28-.34.63-.62,1.07-.85s.97-.34,1.6-.34,1.18.14,1.66.42c.47.28.85.69,1.12,1.23.27.54.41,1.19.41,1.96v4.46c0,.12-.04.21-.12.29s-.17.11-.28.11h-1.7c-.12,0-.21-.04-.29-.11-.08-.07-.11-.17-.11-.29v-4.37c0-.56-.14-1.01-.41-1.32-.27-.31-.67-.47-1.19-.47s-.9.16-1.2.47-.45.75-.45,1.32v4.37c0,.12-.04.21-.11.29-.08.07-.17.11-.27.11h-1.7Z"/><path class="cls-6" d="m968.26,10.58c-.11,0-.2-.04-.27-.11-.08-.07-.11-.17-.11-.29v-1.28c0-.12.04-.22.11-.3.07-.08.17-.12.27-.12h1.68c.12,0,.22.04.3.12.08.08.12.18.12.3v1.28c0,.12-.04.21-.12.29s-.18.11-.3.11h-1.68Zm.05,9.6c-.11,0-.2-.04-.27-.11-.08-.07-.11-.17-.11-.29v-7.52c0-.12.04-.21.11-.29.07-.07.17-.11.27-.11h1.6c.12,0,.21.04.29.11.07.07.11.17.11.29v7.52c0,.12-.04.21-.11.29-.08.07-.17.11-.29.11h-1.6Z"/><path class="cls-6" d="m976.25,20.18c-.12,0-.21-.04-.29-.11-.08-.07-.11-.17-.11-.29v-10.56c0-.12.04-.21.11-.29.07-.07.17-.11.29-.11h1.73c.11,0,.2.04.27.11.07.07.11.17.11.29v3.6c.29-.34.64-.61,1.06-.82s.92-.3,1.5-.3c.63,0,1.19.14,1.67.42.49.28.87.69,1.14,1.23.28.54.42,1.19.42,1.96v4.46c0,.12-.04.21-.11.29-.08.07-.17.11-.29.11h-1.74c-.11,0-.2-.04-.27-.11-.08-.07-.11-.17-.11-.29v-4.37c0-.56-.14-1.01-.42-1.32s-.67-.47-1.18-.47-.9.16-1.21.47c-.3.31-.46.75-.46,1.32v4.37c0,.12-.04.21-.11.29-.08.07-.17.11-.27.11h-1.73Z"/><path class="cls-6" d="m988.52,20.34c-.57,0-1.07-.11-1.52-.33-.45-.22-.8-.51-1.07-.89-.27-.37-.4-.79-.4-1.25,0-.76.31-1.35.92-1.79.61-.44,1.42-.74,2.42-.9l2.1-.3v-.29c0-.42-.1-.74-.29-.96-.19-.22-.53-.34-1.01-.34-.35,0-.63.07-.85.21-.21.14-.38.32-.5.54-.08.14-.21.21-.37.21h-1.52c-.12,0-.21-.03-.27-.1-.06-.07-.09-.15-.08-.25,0-.18.07-.39.21-.64.14-.25.35-.49.64-.73.29-.24.66-.44,1.1-.6.45-.16,1-.24,1.65-.24s1.25.08,1.73.24c.48.16.86.38,1.15.67s.5.62.64,1,.21.79.21,1.22v4.94c0,.12-.04.21-.11.29-.08.07-.17.11-.29.11h-1.57c-.11,0-.2-.04-.27-.11-.08-.07-.11-.17-.11-.29v-.59c-.14.2-.33.39-.56.57-.24.18-.52.32-.84.42s-.71.16-1.14.16Zm.64-1.66c.35,0,.67-.07.94-.22s.5-.38.66-.69c.16-.31.24-.7.24-1.17v-.27l-1.49.24c-.58.1-1,.24-1.26.43s-.4.43-.4.7c0,.2.06.38.18.53.12.15.29.26.49.34.2.08.42.11.64.11Z"/><path class="cls-6" d="m998.07,20.18c-.16,0-.28-.04-.36-.12s-.15-.17-.2-.28l-3.01-7.42s-.03-.09-.03-.14c0-.1.04-.18.1-.25s.15-.1.25-.1h1.55c.14,0,.24.04.31.11.07.07.11.14.14.21l1.97,5.28,1.97-5.28c.03-.06.08-.13.15-.21s.17-.11.3-.11h1.55c.1,0,.18.03.25.1s.1.15.1.25c0,.05,0,.1-.02.14l-3.02,7.42c-.04.11-.11.2-.19.28-.08.08-.21.12-.37.12h-1.44Z"/><path class="cls-6" d="m1007.86,20.34c-1.23,0-2.2-.34-2.92-1.02s-1.1-1.67-1.14-2.98v-.69c.04-.82.23-1.53.56-2.12.33-.59.79-1.05,1.39-1.36.6-.31,1.3-.47,2.1-.47.9,0,1.65.18,2.25.55.6.37,1.06.87,1.36,1.5.3.63.46,1.36.46,2.18v.37c0,.11-.04.2-.12.27-.08.07-.17.11-.28.11h-5.23v.13c.01.34.08.65.2.94s.3.51.53.68c.23.17.5.26.82.26.27,0,.48-.04.66-.11.17-.07.31-.17.42-.27.11-.11.2-.2.25-.27.1-.11.17-.17.23-.2.06-.03.15-.04.28-.04h1.66c.11,0,.19.03.26.09s.1.14.09.25c-.01.17-.1.38-.26.63-.17.25-.41.5-.73.74-.32.24-.72.44-1.19.6-.48.16-1.02.24-1.64.24Zm-1.58-5.1h3.14v-.03c0-.38-.06-.72-.18-1-.12-.28-.3-.5-.54-.66-.23-.16-.52-.24-.85-.24s-.61.08-.85.24c-.24.16-.41.38-.54.66-.12.28-.18.62-.18,1v.03Z"/><path class="cls-6" d="m1017.48,20.18c-.66,0-1.23-.11-1.7-.33-.47-.22-.82-.56-1.06-1.02-.24-.46-.36-1.03-.36-1.73v-3.36h-1.25c-.12,0-.21-.04-.29-.11-.07-.07-.11-.17-.11-.29v-1.09c0-.12.04-.21.11-.29.08-.07.17-.11.29-.11h1.25v-2.64c0-.12.04-.21.12-.29.08-.07.17-.11.28-.11h1.57c.12,0,.21.04.29.11.08.07.11.17.11.29v2.64h2c.11,0,.2.04.27.11.07.07.11.17.11.29v1.09c0,.12-.04.21-.11.29-.08.07-.17.11-.27.11h-2v3.17c0,.41.07.72.22.95.14.23.4.34.76.34h1.17c.11,0,.2.04.27.11s.11.17.11.27v1.18c0,.12-.04.21-.11.29s-.17.11-.27.11h-1.39Z"/><path class="cls-6" d="m1024.58,20.18c-.12,0-.21-.04-.29-.11-.08-.07-.11-.17-.11-.29v-10.56c0-.12.04-.21.11-.29.07-.07.17-.11.29-.11h1.6c.11,0,.2.04.27.11.07.07.11.17.11.29v10.56c0,.12-.04.21-.11.29-.08.07-.17.11-.27.11h-1.6Z"/><path class="cls-6" d="m1028.92,10.58c-.11,0-.2-.04-.27-.11-.08-.07-.11-.17-.11-.29v-1.28c0-.12.04-.22.11-.3.07-.08.17-.12.27-.12h1.68c.12,0,.22.04.3.12.08.08.12.18.12.3v1.28c0,.12-.04.21-.12.29s-.18.11-.3.11h-1.68Zm.05,9.6c-.11,0-.2-.04-.27-.11-.08-.07-.11-.17-.11-.29v-7.52c0-.12.04-.21.11-.29.07-.07.17-.11.27-.11h1.6c.12,0,.21.04.29.11.07.07.11.17.11.29v7.52c0,.12-.04.21-.11.29-.08.07-.17.11-.29.11h-1.6Z"/><path class="cls-6" d="m1036.87,23.7c-.79,0-1.45-.1-1.97-.31-.52-.21-.94-.46-1.24-.75-.3-.29-.52-.58-.65-.87s-.2-.51-.21-.67c-.01-.12.03-.21.11-.29.08-.07.18-.11.29-.11h1.71c.1,0,.18.02.25.07s.12.13.17.25c.05.13.13.26.22.41.1.14.24.26.44.36.2.1.46.14.79.14.37,0,.68-.05.93-.16.25-.11.43-.29.55-.54.12-.26.18-.6.18-1.04v-1.07c-.26.28-.58.51-.97.69-.39.18-.87.27-1.43.27s-1.04-.09-1.46-.26c-.42-.18-.77-.43-1.05-.75s-.49-.72-.64-1.18c-.15-.46-.24-.98-.26-1.55-.01-.29-.01-.57,0-.85.02-.55.11-1.06.26-1.52.15-.46.36-.86.64-1.19s.63-.6,1.05-.78c.42-.19.91-.28,1.46-.28.59,0,1.09.11,1.5.34s.76.5,1.02.83v-.61c0-.11.04-.2.11-.28.07-.08.17-.12.27-.12h1.57c.11,0,.2.04.28.12.08.08.12.17.12.28l.02,7.7c0,.8-.16,1.48-.46,2.03-.31.55-.77.98-1.37,1.27-.6.29-1.35.44-2.25.44Zm-.08-5.5c.38,0,.7-.09.94-.26.24-.18.42-.4.54-.67s.18-.56.19-.86c.01-.12.02-.29.02-.5s0-.39-.02-.5c-.01-.3-.08-.58-.19-.86s-.3-.49-.54-.66c-.24-.17-.55-.26-.94-.26-.41,0-.73.09-.96.26-.23.18-.41.41-.51.7-.11.29-.17.6-.19.94-.01.26-.01.51,0,.75.02.35.08.67.19.96.11.29.28.52.51.7.23.18.55.26.96.26Z"/><path class="cls-6" d="m1046.87,23.7c-.79,0-1.45-.1-1.97-.31-.52-.21-.94-.46-1.24-.75-.3-.29-.52-.58-.65-.87s-.2-.51-.21-.67c-.01-.12.03-.21.11-.29.08-.07.18-.11.29-.11h1.71c.1,0,.18.02.25.07s.12.13.17.25c.05.13.13.26.22.41.1.14.24.26.44.36.2.1.46.14.79.14.37,0,.68-.05.93-.16.25-.11.43-.29.55-.54.12-.26.18-.6.18-1.04v-1.07c-.26.28-.58.51-.97.69-.39.18-.87.27-1.43.27s-1.04-.09-1.46-.26c-.42-.18-.77-.43-1.05-.75s-.49-.72-.64-1.18c-.15-.46-.24-.98-.26-1.55-.01-.29-.01-.57,0-.85.02-.55.11-1.06.26-1.52.15-.46.36-.86.64-1.19s.63-.6,1.05-.78c.42-.19.91-.28,1.46-.28.59,0,1.09.11,1.5.34s.76.5,1.02.83v-.61c0-.11.04-.2.11-.28.07-.08.17-.12.27-.12h1.57c.11,0,.2.04.28.12.08.08.12.17.12.28l.02,7.7c0,.8-.16,1.48-.46,2.03-.31.55-.77.98-1.37,1.27-.6.29-1.35.44-2.25.44Zm-.08-5.5c.38,0,.7-.09.94-.26.24-.18.42-.4.54-.67s.18-.56.19-.86c.01-.12.02-.29.02-.5s0-.39-.02-.5c-.01-.3-.08-.58-.19-.86s-.3-.49-.54-.66c-.24-.17-.55-.26-.94-.26-.41,0-.73.09-.96.26-.23.18-.41.41-.51.7-.11.29-.17.6-.19.94-.01.26-.01.51,0,.75.02.35.08.67.19.96.11.29.28.52.51.7.23.18.55.26.96.26Z"/><path class="cls-6" d="m1056.68,20.34c-1.23,0-2.2-.34-2.92-1.02s-1.1-1.67-1.14-2.98v-.69c.04-.82.23-1.53.56-2.12.33-.59.79-1.05,1.39-1.36.6-.31,1.3-.47,2.1-.47.9,0,1.65.18,2.25.55.6.37,1.06.87,1.36,1.5.3.63.46,1.36.46,2.18v.37c0,.11-.04.2-.12.27-.08.07-.17.11-.28.11h-5.23v.13c.01.34.08.65.2.94s.3.51.53.68c.23.17.5.26.82.26.27,0,.48-.04.66-.11.17-.07.31-.17.42-.27.11-.11.2-.2.25-.27.1-.11.17-.17.23-.2.06-.03.15-.04.28-.04h1.66c.11,0,.19.03.26.09s.1.14.09.25c-.01.17-.1.38-.26.63-.17.25-.41.5-.73.74-.32.24-.72.44-1.19.6-.48.16-1.02.24-1.64.24Zm-1.58-5.1h3.14v-.03c0-.38-.06-.72-.18-1-.12-.28-.3-.5-.54-.66-.23-.16-.52-.24-.85-.24s-.61.08-.85.24c-.24.16-.41.38-.54.66-.12.28-.18.62-.18,1v.03Z"/><path class="cls-6" d="m1062.71,20.18c-.11,0-.2-.04-.27-.11-.08-.07-.11-.17-.11-.29v-7.52c0-.11.04-.2.11-.28.07-.08.17-.12.27-.12h1.57c.11,0,.2.04.28.12.08.08.12.17.12.28v.64c.27-.33.59-.59.98-.77.39-.18.84-.27,1.35-.27h.69c.11,0,.2.04.27.11.07.07.11.17.11.29v1.38c0,.12-.04.21-.11.29-.08.07-.17.11-.27.11h-1.41c-.47,0-.84.13-1.1.39s-.4.63-.4,1.11v4.24c0,.12-.04.21-.11.29-.08.07-.17.11-.29.11h-1.68Z"/><path class="cls-6" d="m1072.9,23.22c-.12,0-.21-.04-.29-.11s-.11-.17-.11-.29v-10.56c0-.12.04-.21.11-.29.07-.07.17-.11.29-.11h1.52c.12,0,.21.04.29.11s.11.17.11.29v.61c.26-.34.59-.62.99-.84.41-.22.91-.33,1.52-.33.55,0,1.04.09,1.45.26.41.18.76.43,1.04.75.28.33.5.72.66,1.18.15.46.24.98.26,1.55.01.2.02.39.02.58s0,.38-.02.59c-.01.54-.09,1.05-.25,1.5s-.38.85-.66,1.18-.64.59-1.05.77c-.41.18-.89.27-1.45.27s-1.02-.1-1.42-.3c-.4-.2-.73-.47-.98-.81v3.58c0,.12-.04.21-.11.29-.08.07-.17.11-.27.11h-1.65Zm3.71-4.8c.41,0,.73-.09.96-.26.23-.18.4-.41.5-.7.1-.29.16-.6.18-.94.02-.33.02-.66,0-.99-.02-.34-.08-.66-.18-.94s-.27-.52-.5-.7c-.23-.18-.55-.26-.96-.26s-.71.09-.96.27c-.25.18-.42.41-.53.69-.11.28-.17.58-.19.9-.01.19-.02.39-.02.59s0,.41.02.61c0,.3.08.58.2.84.12.26.3.48.54.65.24.17.55.26.94.26Z"/><path class="cls-6" d="m1084.9,20.34c-.57,0-1.07-.11-1.52-.33-.45-.22-.8-.51-1.07-.89-.27-.37-.4-.79-.4-1.25,0-.76.31-1.35.92-1.79.61-.44,1.42-.74,2.42-.9l2.1-.3v-.29c0-.42-.1-.74-.29-.96-.19-.22-.53-.34-1.01-.34-.35,0-.63.07-.85.21-.21.14-.38.32-.5.54-.08.14-.21.21-.37.21h-1.52c-.12,0-.21-.03-.27-.1-.06-.07-.09-.15-.08-.25,0-.18.07-.39.21-.64.14-.25.35-.49.64-.73.29-.24.66-.44,1.1-.6.45-.16,1-.24,1.65-.24s1.25.08,1.73.24c.48.16.86.38,1.15.67s.5.62.64,1,.21.79.21,1.22v4.94c0,.12-.04.21-.11.29-.08.07-.17.11-.29.11h-1.57c-.11,0-.2-.04-.27-.11-.08-.07-.11-.17-.11-.29v-.59c-.14.2-.33.39-.56.57-.24.18-.52.32-.84.42s-.71.16-1.14.16Zm.64-1.66c.35,0,.67-.07.94-.22s.5-.38.66-.69c.16-.31.24-.7.24-1.17v-.27l-1.49.24c-.58.1-1,.24-1.26.43s-.4.43-.4.7c0,.2.06.38.18.53.12.15.29.26.49.34.2.08.42.11.64.11Zm.51-7.94c-.4,0-.73-.13-1.02-.38-.28-.26-.42-.58-.42-.98s.14-.72.42-.98c.28-.26.62-.39,1.02-.39s.73.13,1.02.39c.28.26.42.59.42.98s-.14.72-.42.98c-.28.26-.62.38-1.02.38Zm0-.88c.14,0,.25-.05.34-.14.09-.09.14-.21.14-.34s-.04-.25-.14-.34c-.09-.09-.21-.14-.34-.14s-.25.05-.34.14c-.09.09-.14.21-.14.34s.04.25.14.34c.09.09.21.14.34.14Z"/><path class="cls-6" d="m1099.08,20.34c-.89,0-1.63-.15-2.22-.44-.6-.29-1.05-.71-1.37-1.26s-.49-1.18-.52-1.9c-.01-.21-.02-.46-.02-.73s0-.51.02-.71c.03-.74.21-1.37.54-1.91.33-.54.79-.95,1.39-1.25.6-.29,1.32-.44,2.18-.44s1.56.15,2.16.44c.6.29,1.06.71,1.39,1.25.33.54.51,1.18.54,1.91.02.2.03.44.03.71s-.01.51-.03.73c-.03.73-.21,1.36-.52,1.9s-.77.96-1.37,1.26c-.6.29-1.33.44-2.21.44Zm0-1.76c.52,0,.92-.16,1.18-.49s.41-.8.43-1.43c.01-.16.02-.37.02-.64s0-.48-.02-.64c-.02-.62-.17-1.09-.43-1.42-.27-.33-.66-.5-1.18-.5s-.92.17-1.19.5c-.27.33-.42.81-.44,1.42-.01.16-.02.37-.02.64s0,.48.02.64c.02.63.17,1.11.44,1.43s.67.49,1.19.49Z"/><path class="cls-6" d="m1107.51,20.18c-.16,0-.28-.04-.36-.12s-.15-.17-.2-.28l-3.01-7.42s-.03-.09-.03-.14c0-.1.04-.18.1-.25s.15-.1.25-.1h1.55c.14,0,.24.04.31.11.07.07.11.14.14.21l1.97,5.28,1.97-5.28c.03-.06.08-.13.15-.21s.17-.11.3-.11h1.55c.1,0,.18.03.25.1s.1.15.1.25c0,.05,0,.1-.02.14l-3.02,7.42c-.04.11-.11.2-.19.28-.08.08-.21.12-.37.12h-1.44Z"/><path class="cls-6" d="m1117.3,20.34c-1.23,0-2.2-.34-2.92-1.02s-1.1-1.67-1.14-2.98v-.69c.04-.82.23-1.53.56-2.12.33-.59.79-1.05,1.39-1.36.6-.31,1.3-.47,2.1-.47.9,0,1.65.18,2.25.55.6.37,1.06.87,1.36,1.5.3.63.46,1.36.46,2.18v.37c0,.11-.04.2-.12.27-.08.07-.17.11-.28.11h-5.23v.13c.01.34.08.65.2.94s.3.51.53.68c.23.17.5.26.82.26.27,0,.48-.04.66-.11.17-.07.31-.17.42-.27.11-.11.2-.2.25-.27.1-.11.17-.17.23-.2.06-.03.15-.04.28-.04h1.66c.11,0,.19.03.26.09s.1.14.09.25c-.01.17-.1.38-.26.63-.17.25-.41.5-.73.74-.32.24-.72.44-1.19.6-.48.16-1.02.24-1.64.24Zm-1.58-5.1h3.14v-.03c0-.38-.06-.72-.18-1-.12-.28-.3-.5-.54-.66-.23-.16-.52-.24-.85-.24s-.61.08-.85.24c-.24.16-.41.38-.54.66-.12.28-.18.62-.18,1v.03Z"/><path class="cls-6" d="m1123.33,20.18c-.11,0-.2-.04-.27-.11-.08-.07-.11-.17-.11-.29v-7.52c0-.11.04-.2.11-.28.07-.08.17-.12.27-.12h1.57c.11,0,.2.04.28.12.08.08.12.17.12.28v.64c.27-.33.59-.59.98-.77.39-.18.84-.27,1.35-.27h.69c.11,0,.2.04.27.11.07.07.11.17.11.29v1.38c0,.12-.04.21-.11.29-.08.07-.17.11-.27.11h-1.41c-.47,0-.84.13-1.1.39s-.4.63-.4,1.11v4.24c0,.12-.04.21-.11.29-.08.07-.17.11-.29.11h-1.68Z"/><path class="cls-6" d="m1131.22,20.18c-.12,0-.21-.04-.29-.11-.08-.07-.11-.17-.11-.29v-6.03h-1.25c-.12,0-.21-.04-.29-.11-.07-.07-.11-.17-.11-.29v-1.09c0-.12.04-.21.11-.29.08-.07.17-.11.29-.11h1.25v-.58c0-.68.13-1.24.38-1.68.26-.44.63-.76,1.12-.96.49-.2,1.09-.3,1.81-.3h1.01c.11,0,.2.04.27.11.08.07.11.17.11.29v1.09c0,.12-.04.21-.11.29-.07.07-.17.11-.27.11h-.91c-.39,0-.67.1-.82.29s-.23.47-.23.85v.5h3.23v-3.12c0-.12.04-.21.11-.29.07-.07.17-.11.27-.11h1.57c.12,0,.21.04.29.11.07.07.11.17.11.29v11.04c0,.12-.04.21-.11.29-.08.07-.17.11-.29.11h-1.57c-.11,0-.2-.04-.27-.11-.08-.07-.11-.17-.11-.29v-6.03h-3.23v6.03c0,.12-.04.21-.11.29-.08.07-.17.11-.27.11h-1.57Z"/><path class="cls-6" d="m1143.22,20.34c-.57,0-1.07-.11-1.52-.33-.45-.22-.8-.51-1.07-.89-.27-.37-.4-.79-.4-1.25,0-.76.31-1.35.92-1.79.61-.44,1.42-.74,2.42-.9l2.1-.3v-.29c0-.42-.1-.74-.29-.96-.19-.22-.53-.34-1.01-.34-.35,0-.63.07-.85.21-.21.14-.38.32-.5.54-.08.14-.21.21-.37.21h-1.52c-.12,0-.21-.03-.27-.1-.06-.07-.09-.15-.08-.25,0-.18.07-.39.21-.64.14-.25.35-.49.64-.73.29-.24.66-.44,1.1-.6.45-.16,1-.24,1.65-.24s1.25.08,1.73.24c.48.16.86.38,1.15.67s.5.62.64,1,.21.79.21,1.22v4.94c0,.12-.04.21-.11.29-.08.07-.17.11-.29.11h-1.57c-.11,0-.2-.04-.27-.11-.08-.07-.11-.17-.11-.29v-.59c-.14.2-.33.39-.56.57-.24.18-.52.32-.84.42s-.71.16-1.14.16Zm.64-1.66c.35,0,.67-.07.94-.22s.5-.38.66-.69c.16-.31.24-.7.24-1.17v-.27l-1.49.24c-.58.1-1,.24-1.26.43s-.4.43-.4.7c0,.2.06.38.18.53.12.15.29.26.49.34.2.08.42.11.64.11Z"/><path class="cls-6" d="m1153.14,20.34c-.53,0-1.01-.09-1.42-.26s-.77-.43-1.06-.77-.51-.74-.66-1.2c-.15-.46-.24-.98-.27-1.54-.01-.2-.02-.39-.02-.55s0-.34.02-.54c.02-.55.11-1.06.26-1.52.15-.46.37-.86.66-1.19.28-.34.63-.6,1.06-.78.42-.19.9-.28,1.43-.28s1.03.09,1.42.28c.39.19.72.43.98.73v-3.49c0-.12.04-.21.11-.29.07-.07.17-.11.29-.11h1.65c.11,0,.2.04.27.11.07.07.11.17.11.29v10.56c0,.12-.04.21-.11.29-.08.07-.17.11-.27.11h-1.54c-.11,0-.2-.04-.27-.11-.08-.07-.11-.17-.11-.29v-.54c-.27.32-.6.58-1.01.79s-.91.31-1.52.31Zm.74-1.92c.39,0,.71-.09.95-.27.24-.18.42-.41.53-.69.11-.28.17-.58.18-.9.02-.2.03-.41.03-.61s-.01-.4-.03-.59c-.01-.3-.08-.58-.19-.84-.12-.26-.3-.48-.54-.65-.24-.17-.55-.26-.94-.26-.41,0-.73.09-.96.26-.23.18-.4.41-.5.7s-.16.6-.18.94c-.03.33-.03.66,0,.99.02.34.08.66.18.94.1.29.27.52.5.7.23.18.55.26.96.26Z"/><path class="cls-6" d="m1163.72,20.34c-1.23,0-2.2-.34-2.92-1.02s-1.1-1.67-1.14-2.98v-.69c.04-.82.23-1.53.56-2.12.33-.59.79-1.05,1.39-1.36.6-.31,1.3-.47,2.1-.47.9,0,1.65.18,2.25.55.6.37,1.06.87,1.36,1.5.3.63.46,1.36.46,2.18v.37c0,.11-.04.2-.12.27-.08.07-.17.11-.28.11h-5.23v.13c.01.34.08.65.2.94s.3.51.53.68c.23.17.5.26.82.26.27,0,.48-.04.66-.11.17-.07.31-.17.42-.27.11-.11.2-.2.25-.27.1-.11.17-.17.23-.2.06-.03.15-.04.28-.04h1.66c.11,0,.19.03.26.09s.1.14.09.25c-.01.17-.1.38-.26.63-.17.25-.41.5-.73.74-.32.24-.72.44-1.19.6-.48.16-1.02.24-1.64.24Zm-1.58-5.1h3.14v-.03c0-.38-.06-.72-.18-1-.12-.28-.3-.5-.54-.66-.23-.16-.52-.24-.85-.24s-.61.08-.85.24c-.24.16-.41.38-.54.66-.12.28-.18.62-.18,1v.03Z"/><path class="cls-6" d="m1169.75,20.18c-.11,0-.2-.04-.27-.11-.08-.07-.11-.17-.11-.29v-7.52c0-.12.04-.21.11-.29.07-.07.17-.11.27-.11h1.57c.12,0,.21.04.29.11.07.07.11.17.11.29v.62c.28-.34.63-.62,1.07-.85s.97-.34,1.6-.34,1.18.14,1.66.42c.47.28.85.69,1.12,1.23.27.54.41,1.19.41,1.96v4.46c0,.12-.04.21-.12.29s-.17.11-.28.11h-1.7c-.12,0-.21-.04-.29-.11-.08-.07-.11-.17-.11-.29v-4.37c0-.56-.14-1.01-.41-1.32-.27-.31-.67-.47-1.19-.47s-.9.16-1.2.47-.45.75-.45,1.32v4.37c0,.12-.04.21-.11.29-.08.07-.17.11-.27.11h-1.7Z"/><path class="cls-6" d="m330.86,344.54c-.12,0-.21-.04-.29-.11-.07-.08-.11-.17-.11-.29v-10.4c0-.12.04-.21.11-.29.07-.07.17-.11.29-.11h4.02c1.07,0,1.96.17,2.67.5.71.34,1.26.83,1.64,1.47.38.65.58,1.44.6,2.39.01.47.02.88.02,1.23s0,.76-.02,1.22c-.03.99-.23,1.81-.59,2.46-.36.65-.9,1.13-1.6,1.45s-1.58.47-2.64.47h-4.1Zm2.14-2.06h1.87c.53,0,.97-.08,1.31-.24.34-.16.59-.41.76-.76s.25-.8.26-1.35c.01-.31.02-.59.02-.83,0-.25,0-.49,0-.74,0-.25-.01-.52-.02-.82-.02-.8-.23-1.39-.62-1.77-.39-.38-.99-.57-1.8-.57h-1.79v7.07Z"/><path class="cls-6" d="m345.34,344.7c-1.23,0-2.2-.34-2.92-1.02s-1.1-1.67-1.14-2.98v-.69c.04-.82.23-1.53.56-2.12.33-.59.79-1.05,1.39-1.36.6-.31,1.3-.47,2.1-.47.9,0,1.65.18,2.25.55s1.06.87,1.36,1.5c.3.63.46,1.36.46,2.18v.37c0,.11-.04.2-.12.27-.08.07-.17.11-.28.11h-5.23v.13c.01.34.08.65.2.94.12.28.3.51.53.68.23.17.5.26.82.26.27,0,.48-.04.66-.11s.31-.17.42-.27c.11-.11.2-.2.25-.27.1-.11.17-.17.23-.2s.15-.04.28-.04h1.66c.11,0,.19.03.26.09s.1.14.09.25c-.01.17-.1.38-.26.63-.17.25-.41.5-.73.74-.32.24-.72.44-1.19.6-.48.16-1.02.24-1.64.24Zm-1.58-5.1h3.14v-.03c0-.38-.06-.72-.18-1s-.3-.5-.54-.66-.52-.24-.85-.24-.61.08-.85.24c-.24.16-.41.38-.54.66-.12.28-.18.62-.18,1v.03Z"/><path class="cls-6" d="m354.91,344.54c-.11,0-.2-.04-.27-.11s-.11-.17-.11-.29v-7.52c0-.11.04-.2.11-.28.07-.08.17-.12.27-.12h1.57c.11,0,.2.04.28.12.08.08.12.17.12.28v.64c.27-.33.59-.59.98-.77s.84-.27,1.35-.27h.69c.11,0,.2.04.27.11.07.08.11.17.11.29v1.38c0,.12-.04.21-.11.29s-.17.11-.27.11h-1.41c-.47,0-.84.13-1.1.39-.27.26-.4.63-.4,1.11v4.24c0,.12-.04.21-.11.29-.08.07-.17.11-.29.11h-1.68Z"/><path class="cls-6" d="m365.1,344.7c-1.23,0-2.2-.34-2.92-1.02s-1.1-1.67-1.14-2.98v-.69c.04-.82.23-1.53.56-2.12.33-.59.79-1.05,1.39-1.36.6-.31,1.3-.47,2.1-.47.9,0,1.65.18,2.25.55s1.06.87,1.36,1.5c.3.63.46,1.36.46,2.18v.37c0,.11-.04.2-.12.27-.08.07-.17.11-.28.11h-5.23v.13c.01.34.08.65.2.94.12.28.3.51.53.68.23.17.5.26.82.26.27,0,.48-.04.66-.11s.31-.17.42-.27c.11-.11.2-.2.25-.27.1-.11.17-.17.23-.2s.15-.04.28-.04h1.66c.11,0,.19.03.26.09s.1.14.09.25c-.01.17-.1.38-.26.63-.17.25-.41.5-.73.74-.32.24-.72.44-1.19.6-.48.16-1.02.24-1.64.24Zm-1.58-5.1h3.14v-.03c0-.38-.06-.72-.18-1s-.3-.5-.54-.66-.52-.24-.85-.24-.61.08-.85.24c-.24.16-.41.38-.54.66-.12.28-.18.62-.18,1v.03Z"/><path class="cls-6" d="m374.03,344.7c-.66,0-1.23-.08-1.7-.23-.47-.16-.86-.34-1.15-.57-.29-.22-.51-.45-.66-.68-.14-.23-.22-.42-.23-.58-.01-.12.03-.21.11-.29.08-.08.17-.11.26-.11h1.55s.06,0,.1.02c.03.01.06.04.1.08.14.1.28.21.43.33.15.12.32.23.52.31.2.08.45.13.74.13.35,0,.65-.07.9-.22.25-.14.37-.35.37-.62,0-.19-.06-.35-.17-.48-.11-.13-.32-.25-.63-.35-.31-.11-.77-.22-1.38-.35-.58-.13-1.07-.3-1.47-.51-.41-.21-.71-.48-.91-.81-.2-.33-.3-.72-.3-1.18,0-.42.13-.82.39-1.2.26-.38.65-.7,1.16-.95.51-.25,1.15-.38,1.92-.38.59,0,1.1.07,1.54.22.44.14.81.33,1.11.54s.53.44.68.67c.16.23.24.43.25.6.01.11-.02.2-.1.27-.07.08-.16.11-.26.11h-1.42c-.05,0-.1,0-.14-.02-.04-.02-.08-.04-.11-.07-.13-.08-.26-.18-.39-.3-.13-.11-.29-.21-.47-.3-.18-.08-.42-.13-.7-.13-.35,0-.62.08-.81.23-.19.15-.28.35-.28.58,0,.15.05.29.14.42.1.13.29.25.59.35.3.11.75.22,1.36.34.73.13,1.3.32,1.73.58.43.26.73.55.92.89s.28.7.28,1.08c0,.5-.15.95-.45,1.34-.3.39-.73.69-1.3.91-.57.22-1.27.33-2.1.33Z"/><path class="cls-6" d="m383.39,344.54c-.66,0-1.23-.11-1.7-.33-.47-.22-.82-.56-1.06-1.02s-.36-1.03-.36-1.73v-3.36h-1.25c-.12,0-.21-.04-.29-.11s-.11-.17-.11-.29v-1.09c0-.12.04-.21.11-.29.08-.07.17-.11.29-.11h1.25v-2.64c0-.12.04-.21.12-.29.08-.07.17-.11.28-.11h1.57c.12,0,.21.04.29.11s.11.17.11.29v2.64h2c.11,0,.2.04.27.11.07.08.11.17.11.29v1.09c0,.12-.04.21-.11.29s-.17.11-.27.11h-2v3.17c0,.41.07.72.22.95.14.23.4.34.76.34h1.17c.11,0,.2.04.27.11.07.07.11.17.11.27v1.18c0,.12-.04.21-.11.29-.07.07-.17.11-.27.11h-1.39Z"/><path class="cls-6" d="m390.27,344.7c-1.23,0-2.2-.34-2.92-1.02s-1.1-1.67-1.14-2.98v-.69c.04-.82.23-1.53.56-2.12.33-.59.79-1.05,1.39-1.36.6-.31,1.3-.47,2.1-.47.9,0,1.65.18,2.25.55s1.06.87,1.36,1.5c.3.63.46,1.36.46,2.18v.37c0,.11-.04.2-.12.27-.08.07-.17.11-.28.11h-5.23v.13c.01.34.08.65.2.94.12.28.3.51.53.68.23.17.5.26.82.26.27,0,.48-.04.66-.11s.31-.17.42-.27c.11-.11.2-.2.25-.27.1-.11.17-.17.23-.2s.15-.04.28-.04h1.66c.11,0,.19.03.26.09s.1.14.09.25c-.01.17-.1.38-.26.63-.17.25-.41.5-.73.74-.32.24-.72.44-1.19.6-.48.16-1.02.24-1.64.24Zm-1.58-5.1h3.14v-.03c0-.38-.06-.72-.18-1s-.3-.5-.54-.66-.52-.24-.85-.24-.61.08-.85.24c-.24.16-.41.38-.54.66-.12.28-.18.62-.18,1v.03Z"/><path class="cls-6" d="m396.3,344.54c-.11,0-.2-.04-.27-.11s-.11-.17-.11-.29v-7.52c0-.11.04-.2.11-.28.07-.08.17-.12.27-.12h1.57c.11,0,.2.04.28.12.08.08.12.17.12.28v.64c.27-.33.59-.59.98-.77s.84-.27,1.35-.27h.69c.11,0,.2.04.27.11.07.08.11.17.11.29v1.38c0,.12-.04.21-.11.29s-.17.11-.27.11h-1.41c-.47,0-.84.13-1.1.39-.27.26-.4.63-.4,1.11v4.24c0,.12-.04.21-.11.29-.08.07-.17.11-.29.11h-1.68Z"/><path class="cls-6" d="m406.5,344.7c-1.23,0-2.2-.34-2.92-1.02s-1.1-1.67-1.14-2.98v-.69c.04-.82.23-1.53.56-2.12.33-.59.79-1.05,1.39-1.36.6-.31,1.3-.47,2.1-.47.9,0,1.65.18,2.25.55s1.06.87,1.36,1.5c.3.63.46,1.36.46,2.18v.37c0,.11-.04.2-.12.27-.08.07-.17.11-.28.11h-5.23v.13c.01.34.08.65.2.94.12.28.3.51.53.68.23.17.5.26.82.26.27,0,.48-.04.66-.11s.31-.17.42-.27c.11-.11.2-.2.25-.27.1-.11.17-.17.23-.2s.15-.04.28-.04h1.66c.11,0,.19.03.26.09s.1.14.09.25c-.01.17-.1.38-.26.63-.17.25-.41.5-.73.74-.32.24-.72.44-1.19.6-.48.16-1.02.24-1.64.24Zm-1.58-5.1h3.14v-.03c0-.38-.06-.72-.18-1s-.3-.5-.54-.66-.52-.24-.85-.24-.61.08-.85.24c-.24.16-.41.38-.54.66-.12.28-.18.62-.18,1v.03Z"/><path class="cls-6" d="m412.53,344.54c-.11,0-.2-.04-.27-.11s-.11-.17-.11-.29v-7.52c0-.12.04-.21.11-.29s.17-.11.27-.11h1.57c.12,0,.21.04.29.11.07.08.11.17.11.29v.62c.28-.34.63-.62,1.07-.85.44-.22.97-.34,1.6-.34s1.18.14,1.66.42c.47.28.85.69,1.12,1.23.27.54.41,1.19.41,1.96v4.46c0,.12-.04.21-.12.29-.08.07-.17.11-.28.11h-1.7c-.12,0-.21-.04-.29-.11s-.11-.17-.11-.29v-4.37c0-.57-.14-1.01-.41-1.32-.27-.31-.67-.47-1.19-.47s-.9.16-1.2.47-.45.75-.45,1.32v4.37c0,.12-.04.21-.11.29-.08.07-.17.11-.27.11h-1.7Z"/><path class="cls-6" d="m425.36,344.7c-.53,0-1.01-.09-1.42-.26s-.77-.43-1.06-.77-.51-.74-.66-1.2c-.15-.46-.24-.98-.27-1.54-.01-.2-.02-.39-.02-.55s0-.34.02-.54c.02-.55.11-1.06.26-1.52.15-.46.37-.86.66-1.19.28-.34.63-.6,1.06-.78.42-.19.9-.28,1.43-.28s1.03.09,1.42.28c.39.19.72.43.98.73v-3.49c0-.12.04-.21.11-.29s.17-.11.29-.11h1.65c.11,0,.2.04.27.11.07.08.11.17.11.29v10.56c0,.12-.04.21-.11.29-.08.07-.17.11-.27.11h-1.54c-.11,0-.2-.04-.27-.11s-.11-.17-.11-.29v-.54c-.27.32-.6.58-1.01.79s-.91.31-1.52.31Zm.74-1.92c.39,0,.71-.09.95-.27.24-.18.42-.41.53-.69.11-.28.17-.58.18-.9.02-.2.03-.41.03-.61s-.01-.4-.03-.59c-.01-.3-.08-.58-.19-.84-.12-.26-.3-.48-.54-.65-.24-.17-.55-.26-.94-.26-.41,0-.73.09-.96.26s-.4.41-.5.7-.16.6-.18.94c-.03.33-.03.66,0,.99.02.34.08.66.18.94s.27.52.5.7c.23.18.55.26.96.26Z"/><path class="cls-6" d="m435.94,344.7c-1.23,0-2.2-.34-2.92-1.02s-1.1-1.67-1.14-2.98v-.69c.04-.82.23-1.53.56-2.12.33-.59.79-1.05,1.39-1.36.6-.31,1.3-.47,2.1-.47.9,0,1.65.18,2.25.55s1.06.87,1.36,1.5c.3.63.46,1.36.46,2.18v.37c0,.11-.04.2-.12.27-.08.07-.17.11-.28.11h-5.23v.13c.01.34.08.65.2.94.12.28.3.51.53.68.23.17.5.26.82.26.27,0,.48-.04.66-.11s.31-.17.42-.27c.11-.11.2-.2.25-.27.1-.11.17-.17.23-.2s.15-.04.28-.04h1.66c.11,0,.19.03.26.09s.1.14.09.25c-.01.17-.1.38-.26.63-.17.25-.41.5-.73.74-.32.24-.72.44-1.19.6-.48.16-1.02.24-1.64.24Zm-1.58-5.1h3.14v-.03c0-.38-.06-.72-.18-1s-.3-.5-.54-.66-.52-.24-.85-.24-.61.08-.85.24c-.24.16-.41.38-.54.66-.12.28-.18.62-.18,1v.03Z"/><path class="cls-6" d="m446.98,344.54c-.1,0-.18-.03-.24-.1s-.1-.15-.1-.25c0-.05,0-.1.02-.13.02-.03.03-.06.04-.08l2.32-3.17c-.19.04-.38.06-.58.05-.51-.02-1-.12-1.46-.31-.46-.19-.87-.44-1.23-.78-.36-.33-.65-.72-.85-1.17-.2-.45-.3-.94-.3-1.49,0-.49.09-.97.28-1.44.19-.47.47-.89.84-1.26s.84-.67,1.39-.9c.55-.22,1.2-.34,1.94-.34s1.38.1,1.94.3c.56.2,1.03.48,1.42.84.38.36.67.77.86,1.23.19.46.29.96.29,1.48,0,.47-.08.91-.24,1.31s-.36.78-.59,1.14c-.23.35-.47.69-.7,1.02l-2.69,3.71c-.04.05-.11.12-.19.2-.09.08-.21.12-.37.12h-1.81Zm2.1-5.57c.35,0,.67-.08.96-.22s.51-.36.68-.64c.17-.28.25-.61.25-.99s-.08-.73-.25-1.01c-.17-.28-.39-.49-.68-.64s-.61-.22-.96-.22-.66.08-.94.22-.51.36-.68.64-.25.61-.25,1.01.08.71.25.99.39.49.68.64.6.22.94.22Z"/><path class="cls-6" d="m459.18,344.71c-.96,0-1.77-.15-2.42-.46-.65-.31-1.14-.71-1.48-1.22-.34-.5-.51-1.03-.54-1.6,0-.1.03-.18.1-.24.06-.06.14-.1.24-.1h1.81c.13,0,.23.03.31.09s.14.14.18.23c.11.29.25.52.42.7.18.18.38.32.62.4s.49.13.75.13c.34,0,.66-.07.94-.22.29-.14.52-.35.69-.63.17-.28.26-.62.26-1.02,0-.35-.08-.66-.24-.93s-.38-.47-.67-.62-.61-.22-.98-.22c-.28,0-.5.03-.68.1-.18.06-.32.14-.44.23-.12.09-.22.17-.32.24-.1.07-.2.1-.32.1h-1.78c-.1,0-.18-.04-.25-.1s-.1-.15-.1-.25l.56-5.52c.02-.15.08-.26.17-.34s.2-.12.33-.12h6.21c.12,0,.21.04.29.11.07.08.11.17.11.29v1.28c0,.11-.04.2-.11.27-.07.08-.17.11-.29.11h-4.62l-.24,2.35c.21-.14.48-.26.79-.38.32-.11.75-.17,1.32-.17.51,0,1,.08,1.46.25.46.17.88.41,1.24.73.36.32.65.7.86,1.14.21.44.31.95.31,1.51,0,.77-.18,1.44-.54,2.02-.36.58-.88,1.04-1.55,1.36s-1.47.49-2.4.49Z"/><path class="cls-6" d="m467.36,338.99c-.73,0-1.3-.19-1.72-.57-.42-.38-.65-.89-.7-1.53-.02-.28-.03-.52-.02-.73,0-.21.01-.46.02-.76.03-.65.25-1.17.66-1.56.41-.39.99-.58,1.75-.58s1.35.19,1.76.58c.41.39.62.91.66,1.56.02.3.03.55.03.76s-.01.45-.03.73c-.03.64-.26,1.15-.69,1.53-.43.38-1,.57-1.73.57Zm-1.3,5.55c-.24,0-.35-.11-.35-.32,0-.06.02-.12.06-.18l7.9-10.4c.08-.1.15-.17.22-.22.07-.05.18-.08.32-.08h.99c.23,0,.35.11.35.32,0,.06-.02.12-.06.18l-7.9,10.4c-.07.1-.15.17-.22.22-.07.05-.18.08-.33.08h-.99Zm1.3-6.85c.2,0,.36-.04.48-.13s.21-.2.26-.34c.06-.14.09-.28.1-.42.02-.26.03-.48.03-.68s-.01-.41-.03-.65c-.01-.22-.08-.43-.21-.62s-.34-.28-.64-.28-.51.09-.63.28c-.12.19-.2.39-.22.62-.01.23-.02.45-.02.65s0,.42.02.68c.02.14.06.28.11.42s.14.25.26.34.28.13.48.13Zm6.58,6.93c-.73,0-1.3-.19-1.72-.58-.42-.38-.65-.9-.7-1.54-.02-.28-.03-.52-.02-.74,0-.21.01-.47.02-.77.03-.64.25-1.16.66-1.55.41-.39.99-.59,1.75-.59s1.34.2,1.75.59c.41.39.63.91.66,1.55.02.3.03.55.03.77s-.01.46-.03.74c-.03.64-.26,1.15-.7,1.54-.43.38-1.01.58-1.72.58Zm0-1.31c.2,0,.36-.04.48-.13.12-.09.21-.2.26-.34s.09-.28.1-.43c.02-.25.03-.47.03-.66s-.01-.42-.03-.66c-.01-.22-.08-.43-.21-.61s-.34-.27-.64-.27-.51.09-.63.27c-.12.18-.19.38-.22.61-.01.25-.02.47-.02.66s0,.42.02.66c.02.15.06.29.1.43s.13.25.26.34c.12.08.29.13.49.13Z"/><path class="cls-6" d="m485.26,344.7c-1.23,0-2.2-.34-2.92-1.02s-1.1-1.67-1.14-2.98v-.69c.04-.82.23-1.53.56-2.12.33-.59.79-1.05,1.39-1.36.6-.31,1.3-.47,2.1-.47.9,0,1.65.18,2.25.55s1.06.87,1.36,1.5c.3.63.46,1.36.46,2.18v.37c0,.11-.04.2-.12.27-.08.07-.17.11-.28.11h-5.23v.13c.01.34.08.65.2.94.12.28.3.51.53.68.23.17.5.26.82.26.27,0,.48-.04.66-.11s.31-.17.42-.27c.11-.11.2-.2.25-.27.1-.11.17-.17.23-.2s.15-.04.28-.04h1.66c.11,0,.19.03.26.09s.1.14.09.25c-.01.17-.1.38-.26.63-.17.25-.41.5-.73.74-.32.24-.72.44-1.19.6-.48.16-1.02.24-1.64.24Zm-1.58-5.1h3.14v-.03c0-.38-.06-.72-.18-1s-.3-.5-.54-.66-.52-.24-.85-.24-.61.08-.85.24c-.24.16-.41.38-.54.66-.12.28-.18.62-.18,1v.03Z"/><path class="cls-6" d="m491.29,344.54c-.11,0-.2-.04-.27-.11s-.11-.17-.11-.29v-7.52c0-.12.04-.21.11-.29s.17-.11.27-.11h1.57c.12,0,.21.04.29.11.07.08.11.17.11.29v.62c.28-.34.63-.62,1.07-.85.44-.22.97-.34,1.6-.34s1.18.14,1.66.42c.47.28.85.69,1.12,1.23.27.54.41,1.19.41,1.96v4.46c0,.12-.04.21-.12.29-.08.07-.17.11-.28.11h-1.7c-.12,0-.21-.04-.29-.11s-.11-.17-.11-.29v-4.37c0-.57-.14-1.01-.41-1.32-.27-.31-.67-.47-1.19-.47s-.9.16-1.2.47-.45.75-.45,1.32v4.37c0,.12-.04.21-.11.29-.08.07-.17.11-.27.11h-1.7Z"/><path class="cls-6" d="m504.13,344.7c-.53,0-1.01-.09-1.42-.26s-.77-.43-1.06-.77-.51-.74-.66-1.2c-.15-.46-.24-.98-.27-1.54-.01-.2-.02-.39-.02-.55s0-.34.02-.54c.02-.55.11-1.06.26-1.52.15-.46.37-.86.66-1.19.28-.34.63-.6,1.06-.78.42-.19.9-.28,1.43-.28s1.03.09,1.42.28c.39.19.72.43.98.73v-3.49c0-.12.04-.21.11-.29s.17-.11.29-.11h1.65c.11,0,.2.04.27.11.07.08.11.17.11.29v10.56c0,.12-.04.21-.11.29-.08.07-.17.11-.27.11h-1.54c-.11,0-.2-.04-.27-.11s-.11-.17-.11-.29v-.54c-.27.32-.6.58-1.01.79s-.91.31-1.52.31Zm.74-1.92c.39,0,.71-.09.95-.27.24-.18.42-.41.53-.69.11-.28.17-.58.18-.9.02-.2.03-.41.03-.61s-.01-.4-.03-.59c-.01-.3-.08-.58-.19-.84-.12-.26-.3-.48-.54-.65-.24-.17-.55-.26-.94-.26-.41,0-.73.09-.96.26s-.4.41-.5.7-.16.6-.18.94c-.03.33-.03.66,0,.99.02.34.08.66.18.94s.27.52.5.7c.23.18.55.26.96.26Z"/><path class="cls-6" d="m514.7,344.7c-1.23,0-2.2-.34-2.92-1.02s-1.1-1.67-1.14-2.98v-.69c.04-.82.23-1.53.56-2.12.33-.59.79-1.05,1.39-1.36.6-.31,1.3-.47,2.1-.47.9,0,1.65.18,2.25.55s1.06.87,1.36,1.5c.3.63.46,1.36.46,2.18v.37c0,.11-.04.2-.12.27-.08.07-.17.11-.28.11h-5.23v.13c.01.34.08.65.2.94.12.28.3.51.53.68.23.17.5.26.82.26.27,0,.48-.04.66-.11s.31-.17.42-.27c.11-.11.2-.2.25-.27.1-.11.17-.17.23-.2s.15-.04.28-.04h1.66c.11,0,.19.03.26.09s.1.14.09.25c-.01.17-.1.38-.26.63-.17.25-.41.5-.73.74-.32.24-.72.44-1.19.6-.48.16-1.02.24-1.64.24Zm-1.58-5.1h3.14v-.03c0-.38-.06-.72-.18-1s-.3-.5-.54-.66-.52-.24-.85-.24-.61.08-.85.24c-.24.16-.41.38-.54.66-.12.28-.18.62-.18,1v.03Z"/><path class="cls-6" d="m520.73,344.54c-.11,0-.2-.04-.27-.11s-.11-.17-.11-.29v-7.52c0-.11.04-.2.11-.28.07-.08.17-.12.27-.12h1.57c.11,0,.2.04.28.12.08.08.12.17.12.28v.64c.27-.33.59-.59.98-.77s.84-.27,1.35-.27h.69c.11,0,.2.04.27.11.07.08.11.17.11.29v1.38c0,.12-.04.21-.11.29s-.17.11-.27.11h-1.41c-.47,0-.84.13-1.1.39-.27.26-.4.63-.4,1.11v4.24c0,.12-.04.21-.11.29-.08.07-.17.11-.29.11h-1.68Z"/><path class="cls-6" d="m530.93,347.58c-.12,0-.21-.04-.29-.11s-.11-.17-.11-.29v-10.56c0-.12.04-.21.11-.29s.17-.11.29-.11h1.52c.12,0,.21.04.29.11.07.08.11.17.11.29v.61c.26-.34.59-.62.99-.84.41-.22.91-.33,1.52-.33.55,0,1.04.09,1.45.26.41.18.76.43,1.04.75.28.33.5.72.66,1.18.15.46.24.98.26,1.55.01.2.02.39.02.58s0,.38-.02.59c-.01.54-.09,1.04-.25,1.5-.15.46-.38.85-.66,1.18-.29.33-.64.59-1.05.77-.41.18-.89.27-1.45.27s-1.02-.1-1.42-.3c-.4-.2-.73-.47-.98-.81v3.58c0,.12-.04.21-.11.29-.08.07-.17.11-.27.11h-1.65Zm3.71-4.8c.41,0,.73-.09.96-.26.23-.18.4-.41.5-.7s.16-.6.18-.94c.02-.33.02-.66,0-.99-.02-.34-.08-.66-.18-.94s-.27-.52-.5-.7-.55-.26-.96-.26-.71.09-.96.27c-.25.18-.42.41-.53.69s-.17.58-.19.9c-.01.19-.02.39-.02.59s0,.41.02.61c0,.3.08.58.2.84.12.26.3.48.54.65.24.17.55.26.94.26Z"/><path class="cls-6" d="m542.93,344.7c-.57,0-1.07-.11-1.52-.33-.45-.22-.8-.51-1.07-.89s-.4-.79-.4-1.25c0-.76.31-1.35.92-1.79s1.42-.74,2.42-.9l2.1-.3v-.29c0-.42-.1-.74-.29-.96-.19-.22-.53-.34-1.01-.34-.35,0-.63.07-.85.21-.21.14-.38.32-.5.54-.08.14-.21.21-.37.21h-1.52c-.12,0-.21-.03-.27-.1-.06-.07-.09-.15-.08-.25,0-.18.07-.39.21-.64.14-.25.35-.49.64-.73s.66-.44,1.1-.6c.45-.16,1-.24,1.65-.24s1.25.08,1.73.24c.48.16.86.38,1.15.67s.5.62.64,1c.14.38.21.79.21,1.22v4.94c0,.12-.04.21-.11.29-.08.07-.17.11-.29.11h-1.57c-.11,0-.2-.04-.27-.11s-.11-.17-.11-.29v-.59c-.14.2-.33.39-.56.57-.24.18-.52.32-.84.42s-.71.16-1.14.16Zm.64-1.66c.35,0,.67-.07.94-.22s.5-.38.66-.69c.16-.31.24-.7.24-1.17v-.27l-1.49.24c-.58.1-1,.24-1.26.43-.27.19-.4.43-.4.7,0,.2.06.38.18.53.12.15.29.26.49.34.2.08.42.11.64.11Zm.51-7.94c-.4,0-.73-.13-1.02-.38-.28-.26-.42-.58-.42-.98s.14-.72.42-.98c.28-.26.62-.39,1.02-.39s.73.13,1.02.39c.28.26.42.59.42.98s-.14.72-.42.98c-.28.26-.62.38-1.02.38Zm0-.88c.14,0,.25-.05.34-.14.09-.09.14-.21.14-.34s-.04-.25-.14-.34-.21-.14-.34-.14-.25.04-.34.14-.14.21-.14.34.04.25.14.34c.09.09.21.14.34.14Z"/><path class="cls-6" d="m553.69,344.54c-.12,0-.21-.04-.29-.11s-.11-.17-.11-.29v-10.56c0-.12.04-.21.11-.29s.17-.11.29-.11h1.73c.11,0,.2.04.27.11.07.08.11.17.11.29v3.6c.29-.34.64-.61,1.06-.82.42-.2.92-.3,1.5-.3.63,0,1.19.14,1.67.42s.87.69,1.14,1.23c.28.54.42,1.19.42,1.96v4.46c0,.12-.04.21-.11.29-.08.07-.17.11-.29.11h-1.74c-.11,0-.2-.04-.27-.11s-.11-.17-.11-.29v-4.37c0-.57-.14-1.01-.42-1.32s-.67-.47-1.18-.47-.9.16-1.21.47c-.3.31-.46.75-.46,1.32v4.37c0,.12-.04.21-.11.29-.08.07-.17.11-.27.11h-1.73Z"/><path class="cls-6" d="m565.97,344.7c-.57,0-1.07-.11-1.52-.33-.45-.22-.8-.51-1.07-.89s-.4-.79-.4-1.25c0-.76.31-1.35.92-1.79s1.42-.74,2.42-.9l2.1-.3v-.29c0-.42-.1-.74-.29-.96-.19-.22-.53-.34-1.01-.34-.35,0-.63.07-.85.21-.21.14-.38.32-.5.54-.08.14-.21.21-.37.21h-1.52c-.12,0-.21-.03-.27-.1-.06-.07-.09-.15-.08-.25,0-.18.07-.39.21-.64.14-.25.35-.49.64-.73s.66-.44,1.1-.6c.45-.16,1-.24,1.65-.24s1.25.08,1.73.24c.48.16.86.38,1.15.67s.5.62.64,1c.14.38.21.79.21,1.22v4.94c0,.12-.04.21-.11.29-.08.07-.17.11-.29.11h-1.57c-.11,0-.2-.04-.27-.11s-.11-.17-.11-.29v-.59c-.14.2-.33.39-.56.57-.24.18-.52.32-.84.42s-.71.16-1.14.16Zm.64-1.66c.35,0,.67-.07.94-.22s.5-.38.66-.69c.16-.31.24-.7.24-1.17v-.27l-1.49.24c-.58.1-1,.24-1.26.43-.27.19-.4.43-.4.7,0,.2.06.38.18.53.12.15.29.26.49.34.2.08.42.11.64.11Z"/><path class="cls-6" d="m575.52,344.54c-.16,0-.28-.04-.36-.12s-.15-.17-.2-.28l-3.01-7.42s-.03-.09-.03-.14c0-.1.04-.18.1-.25s.15-.1.25-.1h1.55c.14,0,.24.04.31.11.07.08.11.14.14.21l1.97,5.28,1.97-5.28c.03-.06.08-.13.15-.21.07-.07.17-.11.3-.11h1.55c.1,0,.18.03.25.1s.1.15.1.25c0,.05,0,.1-.02.14l-3.02,7.42c-.04.11-.11.2-.19.28-.08.08-.21.12-.37.12h-1.44Z"/><path class="cls-6" d="m586.75,344.7c-.61,0-1.11-.1-1.52-.31-.41-.21-.74-.47-.99-.79v.54c0,.12-.04.21-.11.29-.07.07-.17.11-.29.11h-1.52c-.12,0-.21-.04-.29-.11s-.11-.17-.11-.29v-10.56c0-.12.04-.21.11-.29s.17-.11.29-.11h1.65c.11,0,.2.04.27.11.07.08.11.17.11.29v3.49c.27-.3.6-.54.99-.73.39-.19.86-.28,1.41-.28s1.04.09,1.45.28c.41.19.76.45,1.05.78s.51.73.66,1.19.24.97.25,1.52c.01.19.02.37.02.54s0,.35-.02.55c-.02.57-.11,1.08-.26,1.54-.16.46-.37.86-.66,1.2-.28.34-.63.59-1.04.77-.41.18-.89.26-1.45.26Zm-.72-1.92c.41,0,.73-.09.96-.26.23-.18.4-.41.5-.7s.16-.6.18-.94c.02-.33.02-.66,0-.99-.02-.34-.08-.66-.18-.94s-.27-.52-.5-.7-.55-.26-.96-.26c-.38,0-.7.08-.94.26-.24.17-.42.39-.54.65-.12.26-.19.54-.2.84-.01.19-.02.39-.02.59s0,.41.02.61c.02.32.08.62.19.9s.28.51.53.69c.25.18.57.27.96.27Z"/><path class="cls-6" d="m594.93,344.7c-.62,0-1.17-.14-1.64-.42s-.84-.69-1.1-1.23c-.26-.54-.39-1.19-.39-1.96v-4.46c0-.12.04-.21.11-.29s.17-.11.27-.11h1.7c.12,0,.21.04.29.11.07.08.11.17.11.29v4.37c0,1.19.52,1.79,1.57,1.79.5,0,.9-.16,1.19-.47.29-.31.44-.75.44-1.32v-4.37c0-.12.04-.21.11-.29.08-.07.17-.11.29-.11h1.7c.11,0,.2.04.27.11s.11.17.11.29v7.52c0,.12-.04.21-.11.29s-.17.11-.27.11h-1.57c-.12,0-.21-.04-.29-.11-.07-.08-.11-.17-.11-.29v-.62c-.28.38-.63.68-1.07.88-.44.2-.97.3-1.6.3Z"/><path class="cls-6" d="m602.35,344.54c-.11,0-.2-.04-.27-.11s-.11-.17-.11-.29v-7.52c0-.12.04-.21.11-.29s.17-.11.27-.11h1.57c.12,0,.21.04.29.11.07.08.11.17.11.29v.62c.28-.34.63-.62,1.07-.85.44-.22.97-.34,1.6-.34s1.18.14,1.66.42c.47.28.85.69,1.12,1.23.27.54.41,1.19.41,1.96v4.46c0,.12-.04.21-.12.29-.08.07-.17.11-.28.11h-1.7c-.12,0-.21-.04-.29-.11s-.11-.17-.11-.29v-4.37c0-.57-.14-1.01-.41-1.32-.27-.31-.67-.47-1.19-.47s-.9.16-1.2.47-.45.75-.45,1.32v4.37c0,.12-.04.21-.11.29-.08.07-.17.11-.27.11h-1.7Z"/><path class="cls-6" d="m615.18,344.7c-.53,0-1.01-.09-1.42-.26s-.77-.43-1.06-.77-.51-.74-.66-1.2c-.15-.46-.24-.98-.27-1.54-.01-.2-.02-.39-.02-.55s0-.34.02-.54c.02-.55.11-1.06.26-1.52.15-.46.37-.86.66-1.19.28-.34.63-.6,1.06-.78.42-.19.9-.28,1.43-.28s1.03.09,1.42.28c.39.19.72.43.98.73v-3.49c0-.12.04-.21.11-.29s.17-.11.29-.11h1.65c.11,0,.2.04.27.11.07.08.11.17.11.29v10.56c0,.12-.04.21-.11.29-.08.07-.17.11-.27.11h-1.54c-.11,0-.2-.04-.27-.11s-.11-.17-.11-.29v-.54c-.27.32-.6.58-1.01.79s-.91.31-1.52.31Zm.74-1.92c.39,0,.71-.09.95-.27.24-.18.42-.41.53-.69.11-.28.17-.58.18-.9.02-.2.03-.41.03-.61s-.01-.4-.03-.59c-.01-.3-.08-.58-.19-.84-.12-.26-.3-.48-.54-.65-.24-.17-.55-.26-.94-.26-.41,0-.73.09-.96.26s-.4.41-.5.7-.16.6-.18.94c-.03.33-.03.66,0,.99.02.34.08.66.18.94s.27.52.5.7c.23.18.55.26.96.26Z"/><path class="cls-6" d="m625.76,344.7c-1.23,0-2.2-.34-2.92-1.02s-1.1-1.67-1.14-2.98v-.69c.04-.82.23-1.53.56-2.12.33-.59.79-1.05,1.39-1.36.6-.31,1.3-.47,2.1-.47.9,0,1.65.18,2.25.55s1.06.87,1.36,1.5c.3.63.46,1.36.46,2.18v.37c0,.11-.04.2-.12.27-.08.07-.17.11-.28.11h-5.23v.13c.01.34.08.65.2.94.12.28.3.51.53.68.23.17.5.26.82.26.27,0,.48-.04.66-.11s.31-.17.42-.27c.11-.11.2-.2.25-.27.1-.11.17-.17.23-.2s.15-.04.28-.04h1.66c.11,0,.19.03.26.09s.1.14.09.25c-.01.17-.1.38-.26.63-.17.25-.41.5-.73.74-.32.24-.72.44-1.19.6-.48.16-1.02.24-1.64.24Zm-1.58-5.1h3.14v-.03c0-.38-.06-.72-.18-1s-.3-.5-.54-.66-.52-.24-.85-.24-.61.08-.85.24c-.24.16-.41.38-.54.66-.12.28-.18.62-.18,1v.03Z"/><path class="cls-6" d="m631.79,344.54c-.11,0-.2-.04-.27-.11s-.11-.17-.11-.29v-7.52c0-.12.04-.21.11-.29s.17-.11.27-.11h1.57c.12,0,.21.04.29.11.07.08.11.17.11.29v.62c.28-.34.63-.62,1.07-.85.44-.22.97-.34,1.6-.34s1.18.14,1.66.42c.47.28.85.69,1.12,1.23.27.54.41,1.19.41,1.96v4.46c0,.12-.04.21-.12.29-.08.07-.17.11-.28.11h-1.7c-.12,0-.21-.04-.29-.11s-.11-.17-.11-.29v-4.37c0-.57-.14-1.01-.41-1.32-.27-.31-.67-.47-1.19-.47s-.9.16-1.2.47-.45.75-.45,1.32v4.37c0,.12-.04.21-.11.29-.08.07-.17.11-.27.11h-1.7Z"/></svg>